<svg width="300" height="300" viewBox="0 0 300 300" fill="none" xmlns="http://www.w3.org/2000/svg">
<circle cx="150" cy="150" r="150" fill="white"/>
<g clip-path="url(#clip0)">
<path fill-rule="evenodd" clip-rule="evenodd" d="M272.427 149.546C272.171 149.597 271.915 150.16 271.915 150.466C271.864 152.514 271.813 157.941 271.813 161.626C271.813 161.729 271.966 161.933 272.12 161.933C272.887 161.984 274.73 162.035 276.317 162.035C278.518 162.035 279.798 161.729 280.515 161.422C282.357 160.5 283.227 158.504 283.227 156.302C283.227 151.337 279.747 149.443 274.576 149.443C274.218 149.392 273.195 149.392 272.427 149.546V149.546ZM285.634 172.427C285.634 167.36 281.897 164.544 275.14 164.544C274.833 164.544 272.683 164.493 272.171 164.595C272.017 164.646 271.813 164.749 271.813 164.903C271.813 168.537 271.761 174.322 271.915 176.574C272.017 177.546 272.734 178.929 273.605 179.338C274.525 179.85 276.624 179.952 278.058 179.952C282.101 179.952 285.634 177.7 285.634 172.427V172.427ZM261.985 146.73C262.496 146.73 264.032 146.884 267.973 146.884C271.71 146.884 274.679 146.781 278.313 146.781C282.766 146.781 288.909 148.368 288.909 155.023C288.909 158.299 286.605 160.91 283.586 162.19C283.433 162.241 283.433 162.343 283.586 162.394C287.885 163.469 291.674 166.131 291.674 171.147C291.674 176.062 288.602 179.184 284.149 181.13C281.436 182.307 278.058 182.716 274.628 182.716C272.017 182.716 265.005 182.409 261.115 182.512C260.705 182.358 261.473 180.515 261.831 180.208C262.753 180.157 263.469 180.106 264.442 179.798C265.824 179.441 265.977 179.031 266.182 176.932C266.284 175.14 266.284 168.792 266.284 164.288C266.284 158.094 266.336 153.897 266.284 151.849C266.233 150.263 265.67 149.75 264.544 149.443C263.674 149.29 262.241 149.085 261.063 148.932C260.807 148.675 261.677 146.935 261.985 146.73ZM232.449 178.57C233.678 179.542 236.084 179.951 238.234 179.951C240.998 179.951 243.762 179.441 246.424 177.034C249.137 174.577 251.031 170.789 251.031 164.749C251.031 158.964 248.83 154.255 244.325 151.491C241.766 149.903 238.49 149.239 234.702 149.239C233.576 149.239 232.501 149.29 231.836 149.597C231.681 149.699 231.324 150.16 231.324 150.415C231.221 151.439 231.221 159.322 231.221 163.93C231.221 168.69 231.221 175.345 231.324 176.113C231.324 176.881 231.681 178.058 232.45 178.57H232.449ZM220.829 146.73C221.802 146.73 225.539 146.884 227.33 146.884C230.556 146.884 232.859 146.73 238.95 146.73C244.069 146.73 248.369 148.112 251.44 150.723C255.176 153.948 257.122 158.402 257.122 163.827C257.122 171.557 253.59 176.011 250.058 178.57C246.526 181.181 241.919 182.716 235.367 182.716C231.887 182.716 225.898 182.614 220.932 182.562H220.881C220.625 182.102 221.29 180.31 221.7 180.259C223.031 180.106 223.389 180.054 224.055 179.799C225.129 179.389 225.335 178.826 225.488 176.932C225.641 173.4 225.59 169.151 225.59 164.339C225.59 160.91 225.641 154.204 225.539 152.053C225.386 150.262 224.618 149.801 223.082 149.494C222.314 149.341 221.29 149.136 219.858 148.983C219.652 148.624 220.574 147.037 220.829 146.73V146.73Z" fill="#8E714E"/>
<path fill-rule="evenodd" clip-rule="evenodd" d="M158.894 180.566C157.614 180.412 156.693 180.208 155.567 179.696C155.413 179.594 155.157 179.082 155.157 178.877C155.055 177.085 155.055 171.966 155.055 168.537C155.055 165.773 154.594 163.367 153.417 161.678C152.035 159.732 150.039 158.606 147.479 158.606C145.227 158.606 142.207 160.142 139.698 162.292C139.647 162.343 139.238 162.702 139.289 162.138C139.289 161.575 139.392 160.449 139.443 159.681C139.494 158.964 139.084 158.606 139.084 158.606C137.446 159.425 132.84 160.5 131.15 160.653C129.922 160.91 129.615 162.087 130.895 162.496H130.946C132.327 162.906 133.249 163.367 133.965 163.828C134.477 164.237 134.426 164.8 134.426 165.261C134.477 169.1 134.477 174.987 134.324 178.212C134.273 179.492 133.915 179.952 132.993 180.157L133.095 180.106C132.379 180.259 131.816 180.412 130.945 180.515C130.638 180.822 130.638 182.46 130.945 182.819C131.508 182.819 134.477 182.665 136.935 182.665C140.313 182.665 142.053 182.819 142.923 182.819C143.282 182.409 143.384 180.873 143.179 180.515C142.207 180.464 141.49 180.362 140.825 180.157C139.904 179.951 139.647 179.492 139.596 178.417C139.494 175.703 139.494 169.97 139.494 166.08C139.494 165.005 139.801 164.493 140.108 164.185C141.285 163.162 143.179 162.445 144.869 162.445C146.507 162.445 147.581 162.957 148.4 163.623C149.526 164.544 149.885 165.875 150.038 166.848C150.294 169.049 150.192 173.4 150.192 177.188C150.192 179.235 150.038 179.747 149.271 180.003C148.912 180.157 147.991 180.362 146.916 180.463C146.558 180.822 146.66 182.409 146.916 182.768C148.4 182.768 150.141 182.614 152.7 182.614C155.874 182.614 157.921 182.768 158.741 182.768C158.996 182.46 159.098 180.976 158.894 180.566V180.566ZM173.073 161.013C170.36 161.013 168.671 163.111 168.671 166.387C168.671 169.714 170.155 173.553 174.352 173.553C175.069 173.553 176.4 173.246 177.014 172.529C177.987 171.609 178.652 169.765 178.652 167.82C178.652 163.571 176.553 161.012 173.073 161.012V161.013ZM172.714 183.637C171.691 183.637 170.974 183.945 170.513 184.201C168.363 185.582 167.391 186.914 167.391 188.501C167.391 189.985 167.954 191.162 169.183 192.186C170.667 193.466 172.714 194.08 175.325 194.08C180.546 194.08 182.85 191.265 182.85 188.501C182.85 186.555 181.877 185.276 179.881 184.559C178.448 183.945 175.837 183.637 172.714 183.637V183.637ZM173.073 196.947C169.95 196.947 167.698 196.282 165.753 194.797C163.859 193.364 163.04 191.214 163.04 189.729C163.04 189.32 163.143 188.193 164.064 187.17C164.626 186.555 165.856 185.378 168.773 183.382C168.875 183.331 168.926 183.28 168.926 183.177C168.926 183.074 168.824 182.972 168.722 182.921C166.316 182 165.599 180.515 165.394 179.696V179.594C165.344 179.286 165.241 178.98 165.702 178.672C166.06 178.417 166.572 178.109 167.135 177.751C168.005 177.239 168.926 176.676 169.489 176.215C169.592 176.113 169.592 176.011 169.592 175.908C169.592 175.806 169.489 175.703 169.387 175.652C165.805 174.475 164.013 171.813 164.013 167.82C164.013 165.209 165.19 162.855 167.288 161.37C168.722 160.244 172.305 158.862 174.66 158.862H174.813C177.219 158.913 178.55 159.425 180.443 160.091C181.467 160.449 182.44 160.602 183.772 160.602C185.767 160.602 186.638 159.988 187.354 159.272C187.405 159.374 187.508 159.63 187.559 160.295C187.61 160.961 187.405 161.933 186.893 162.65C186.484 163.213 185.563 163.623 184.641 163.623H184.385C183.464 163.52 183.054 163.418 183.054 163.418L182.85 163.52C182.799 163.623 182.85 163.725 182.901 163.879L182.952 163.981C183.054 164.442 183.259 165.824 183.259 166.182C183.259 170.38 181.57 172.222 179.778 173.604C178.038 174.884 176.042 175.703 173.789 175.908C173.738 175.908 173.534 175.908 173.073 175.959C172.817 175.959 172.459 176.011 172.407 176.011H172.356C171.947 176.113 170.923 176.625 170.923 177.495C170.923 178.262 171.384 179.184 173.585 179.338C174.045 179.389 174.505 179.389 175.018 179.441C177.936 179.645 181.57 179.901 183.259 180.464C185.614 181.334 187.098 183.433 187.098 185.941C187.098 189.73 184.386 193.262 179.881 195.462C177.68 196.435 175.478 196.947 173.073 196.947V196.947ZM202.249 161.268C201.175 161.268 200.202 161.523 199.485 162.035C197.489 163.264 196.466 165.721 196.466 169.304C196.466 176.011 199.844 180.72 204.655 180.72C206.089 180.72 207.215 180.31 208.187 179.492C209.672 178.262 210.44 175.806 210.44 172.376C210.44 165.721 207.112 161.268 202.25 161.268L202.249 161.268ZM203.171 183.177C194.469 183.177 191.347 176.779 191.347 170.789C191.347 166.592 193.036 163.367 196.414 161.063C198.82 159.579 201.687 158.76 204.246 158.76C210.9 158.76 215.558 163.52 215.558 170.38C215.558 175.038 213.716 178.723 210.183 180.976C208.494 182.102 205.577 183.177 203.171 183.177H203.171V183.177ZM111.955 161.268C110.88 161.268 109.908 161.523 109.19 162.035C107.195 163.264 106.171 165.721 106.171 169.304C106.171 176.011 109.549 180.72 114.361 180.72C115.794 180.72 116.92 180.31 117.893 179.492C119.377 178.262 120.145 175.806 120.145 172.376C120.145 165.721 116.869 161.268 111.955 161.268ZM112.876 183.177C104.174 183.177 101.052 176.779 101.052 170.789C101.052 166.592 102.741 163.367 106.119 161.063C108.525 159.579 111.392 158.76 113.951 158.76C120.606 158.76 125.264 163.52 125.264 170.38C125.264 175.038 123.421 178.723 119.889 180.976C118.251 182.102 115.333 183.177 112.876 183.177ZM54.3691 182.665C54.2665 182.512 54.1638 182.051 54.2154 181.488C54.2154 181.078 54.318 180.822 54.3691 180.72C55.4441 180.566 56.0071 180.412 56.6211 180.259C57.645 180.003 58.0544 179.441 58.1054 178.161C58.2596 175.089 58.2596 169.253 58.2081 165.209V165.107C58.2081 164.646 58.2081 164.083 57.6451 163.673C56.8258 163.162 55.8534 162.702 54.5737 162.342C54.1134 162.19 53.8061 161.933 53.8571 161.627C53.8571 161.319 54.1644 160.961 54.83 160.858C56.519 160.705 60.9205 159.63 62.6611 158.862C62.7637 158.964 62.9174 159.272 62.9174 159.681L62.8663 160.244C62.8147 160.807 62.7637 161.473 62.7637 162.138C62.7637 162.343 62.9689 162.496 63.1731 162.496C63.2757 162.496 63.3783 162.445 63.4804 162.394C66.7563 159.834 69.725 158.913 71.2604 158.913C73.7693 158.913 75.7145 160.091 77.1989 162.547C77.3009 162.702 77.4036 162.753 77.5572 162.753C77.6593 162.753 77.8124 162.702 77.864 162.599C80.8842 160.295 83.9045 158.913 85.9003 158.913C90.6606 158.913 93.4762 162.445 93.4762 168.435C93.4762 170.124 93.4762 172.325 93.4252 174.322C93.4252 176.113 93.3741 177.751 93.3741 178.929C93.3741 179.184 93.7319 180.003 94.2949 180.157C95.0116 180.515 95.9845 180.669 97.2641 180.873H97.3152C97.4178 181.232 97.2131 182.562 97.0084 182.819C96.7011 182.819 96.2402 182.819 95.7288 182.768C94.433 182.7 93.1357 182.666 91.8382 182.665C88.6648 182.665 87.0268 182.716 85.4393 182.819C85.3378 182.409 85.2862 181.181 85.4393 180.873C86.3612 180.72 86.8216 180.566 87.3852 180.413C88.4091 180.106 88.6648 179.645 88.7164 178.314C88.7164 177.342 88.9205 169.049 88.6132 167.052C88.3065 165.005 86.7706 162.599 83.392 162.599C82.1123 162.599 80.1165 163.111 78.1713 164.595C78.0692 164.697 77.966 164.953 77.966 165.107V165.158C78.1713 166.233 78.1713 167.462 78.1713 169.356V172.683C78.1713 174.987 78.1197 177.137 78.1713 178.774C78.1713 179.901 78.8369 180.157 79.3999 180.362C79.7072 180.412 79.9113 180.464 80.1676 180.515C80.628 180.618 81.0889 180.72 81.8056 180.873C81.9082 181.079 81.9082 181.744 81.7545 182.307C81.7029 182.614 81.6003 182.767 81.5493 182.819C79.8092 182.768 78.0176 182.716 75.4072 182.716C74.6396 182.716 73.3083 182.768 72.1823 182.768C71.2604 182.768 70.3907 182.819 69.8792 182.819C69.8276 182.716 69.725 182.358 69.725 181.795C69.725 181.334 69.8276 180.976 69.9303 180.873C70.186 180.822 70.3907 180.771 70.6469 180.771C71.2604 180.669 71.7729 180.566 72.2844 180.464C73.1552 180.208 73.462 179.747 73.513 178.621C73.6666 176.062 73.8203 168.742 73.462 166.899C72.8479 163.93 71.1589 162.445 68.4454 162.445C66.859 162.445 64.8621 163.213 63.2246 164.442C62.9684 164.646 62.7637 165.158 62.7637 165.619V168.639C62.7637 172.325 62.7637 176.932 62.8147 178.929C62.8663 179.542 63.0704 180.259 64.248 180.515C64.5043 180.566 64.9137 180.669 65.4256 180.72L66.3464 180.873C66.4496 181.181 66.398 182.409 66.1933 182.819C65.6814 182.819 65.0673 182.768 64.3501 182.768C63.2757 182.716 61.8934 182.665 60.358 182.665C58.5664 182.665 57.2867 182.716 56.2628 182.768C55.5461 182.665 54.9831 182.665 54.3691 182.665V182.665Z" fill="#442D22"/>
<path fill-rule="evenodd" clip-rule="evenodd" d="M27.4431 194.951L25.3447 194.234C25.3447 194.234 25.601 183.535 21.7614 182.768C19.2027 179.798 22.1719 56.8415 31.3853 182.358C31.3853 182.358 28.2114 183.944 27.6483 186.658C27.0338 189.32 27.4431 194.951 27.4431 194.951V194.951Z" fill="white"/>
<path fill-rule="evenodd" clip-rule="evenodd" d="M27.4431 194.951L25.3447 194.234C25.3447 194.234 25.601 183.535 21.7614 182.768C19.2027 179.798 22.1719 56.8415 31.3853 182.358C31.3853 182.358 28.2114 183.944 27.6483 186.658C27.0338 189.32 27.4431 194.951 27.4431 194.951V194.951Z" fill="#A6A385"/>
<path fill-rule="evenodd" clip-rule="evenodd" d="M28.5697 184.61C28.5697 184.61 46.9465 172.529 42.646 147.395C38.5002 129.121 28.7233 123.132 27.6483 120.828C26.4713 119.19 25.3447 116.324 25.3447 116.324L26.113 167.154C26.113 167.206 24.526 182.716 28.5702 184.611" fill="white"/>
<path fill-rule="evenodd" clip-rule="evenodd" d="M28.5697 184.61C28.5697 184.61 46.9465 172.529 42.646 147.395C38.5002 129.121 28.7233 123.132 27.6483 120.828C26.4713 119.19 25.3447 116.324 25.3447 116.324L26.113 167.154C26.113 167.206 24.526 182.716 28.5702 184.611" fill="#499D4A"/>
<path fill-rule="evenodd" clip-rule="evenodd" d="M24.2707 185.276C24.2707 185.276 7.01989 173.502 8.04384 152.771C9.01621 132.039 21.1988 121.852 23.5535 120.01C25.0894 118.371 25.1404 117.757 25.243 116.119C26.318 118.423 26.1133 150.57 26.2664 154.357C26.7268 168.946 25.4477 182.512 24.2707 185.276Z" fill="white"/>
<path fill-rule="evenodd" clip-rule="evenodd" d="M24.2707 185.276C24.2707 185.276 7.01989 173.502 8.04384 152.771C9.01621 132.039 21.1988 121.852 23.5535 120.01C25.0894 118.371 25.1404 117.757 25.243 116.119C26.318 118.423 26.1133 150.57 26.2664 154.357C26.7268 168.946 25.4477 182.512 24.2707 185.276Z" fill="#58AA50"/>
</g>
<defs>
<clipPath id="clip0">
<rect width="284" height="81" fill="white" transform="translate(8 116)"/>
</clipPath>
</defs>
</svg>
