<svg width="300" height="300" viewBox="0 0 300 300" fill="none" xmlns="http://www.w3.org/2000/svg">
<circle cx="150" cy="150" r="150" fill="white"/>
<path d="M160.342 125.841L155.217 134.857L137.687 104.016L83.8743 198.682H120.309C120.309 203.661 124.283 207.698 129.185 207.698H83.8743C80.7039 207.698 77.7739 205.978 76.1887 203.188C75.4095 201.814 75 200.261 75 198.681C75 197.101 75.4095 195.548 76.1887 194.174L130.003 99.5079C131.589 96.718 134.519 95 137.69 95C140.861 95 143.791 96.718 145.376 99.5079L160.342 125.841Z" fill="#00C58E"/>
<path d="M199.188 194.174L165.468 134.857L160.342 125.841L155.217 134.857L121.5 194.174C119.915 196.963 119.914 200.4 121.5 203.189C123.086 205.978 126.014 207.698 129.185 207.698H191.492C194.663 207.698 197.594 205.98 199.18 203.19C200.766 200.401 200.767 196.964 199.18 194.174H199.188ZM129.185 198.682L160.342 143.873L191.492 198.682H129.185Z" fill="#2F495E"/>
<path d="M223.298 203.19C221.713 205.978 218.784 207.698 215.613 207.698H191.493C196.395 207.698 200.369 203.661 200.369 198.682H215.594L172.392 122.675L165.469 134.857L160.343 125.841L164.707 118.166C166.293 115.377 169.223 113.658 172.394 113.658C175.565 113.658 178.495 115.377 180.08 118.167L223.297 194.173C224.077 195.548 224.487 197.101 224.487 198.681C224.487 200.262 224.077 201.815 223.297 203.19H223.298Z" fill="#108775"/>
</svg>
