<svg width="300" height="300" viewBox="0 0 300 300" fill="none" xmlns="http://www.w3.org/2000/svg">
<circle cx="150" cy="150" r="150" fill="white"/>
<path d="M203.578 162.659C202.924 160.669 201.212 159.283 198.998 158.951C197.954 158.794 196.759 158.861 195.344 159.154C192.878 159.665 191.048 159.86 189.713 159.898C194.753 151.345 198.851 141.591 201.21 132.409C205.025 117.563 202.987 110.799 200.604 107.74C194.3 99.6424 185.102 95.2923 174.005 95.1592C168.085 95.0865 162.889 96.2613 160.178 97.1061C157.654 96.6585 154.94 96.4085 152.092 96.3623C146.754 96.2767 142.038 97.4464 138.008 99.8504C135.777 99.092 132.196 98.0229 128.061 97.3407C118.335 95.7357 110.496 96.9863 104.763 101.058C97.8199 105.987 94.6014 114.552 95.1967 126.514C95.3857 130.312 97.4993 141.868 100.827 152.827C102.74 159.126 104.779 164.357 106.889 168.376C109.881 174.075 113.082 177.43 116.676 178.636C118.691 179.31 122.351 179.783 126.2 176.56C126.688 177.154 127.339 177.744 128.203 178.292C129.3 178.988 130.642 179.556 131.982 179.893C136.811 181.106 141.334 180.803 145.193 179.102C145.217 179.792 145.235 180.451 145.25 181.02C145.276 181.943 145.301 182.849 145.335 183.695C145.564 189.419 145.951 193.87 147.099 196.984C147.162 197.155 147.247 197.416 147.336 197.693C147.909 199.455 148.866 202.406 151.303 204.717C153.825 207.11 156.877 207.844 159.672 207.844C161.074 207.844 162.411 207.66 163.584 207.407C167.765 206.506 172.514 205.134 175.949 200.217C179.197 195.569 180.776 188.569 181.061 177.538C181.098 177.226 181.133 176.928 181.165 176.645L181.233 176.062L181.999 176.129L182.196 176.143C186.454 176.338 191.662 175.43 194.86 173.937C197.387 172.758 205.485 168.461 203.578 162.659" fill="black"/>
<path d="M196.296 163.787C183.633 166.413 182.762 162.103 182.762 162.103C196.132 142.162 201.721 116.85 196.898 110.655C183.74 93.7554 160.963 101.748 160.583 101.955L160.46 101.977C157.959 101.455 155.159 101.144 152.012 101.092C146.283 100.998 141.936 102.602 138.638 105.116C138.638 105.116 98.0059 88.2904 99.896 126.278C100.298 134.359 111.419 187.426 124.684 171.397C129.532 165.536 134.217 160.58 134.217 160.58C136.544 162.134 139.329 162.926 142.249 162.642L142.476 162.448C142.406 163.176 142.438 163.888 142.567 164.73C139.15 168.568 140.154 169.242 133.323 170.655C126.41 172.087 130.471 174.637 133.122 175.303C136.336 176.111 143.772 177.255 148.797 170.185L148.596 170.992C149.935 172.07 150.875 178.004 150.718 183.383C150.56 188.762 150.455 192.455 151.51 195.34C152.565 198.225 153.616 204.715 162.597 202.781C170.101 201.164 173.989 196.976 174.53 189.988C174.914 185.021 175.783 185.756 175.837 181.314L176.534 179.212C177.338 172.479 176.662 170.306 181.285 171.317L182.409 171.416C185.811 171.571 190.265 170.866 192.879 169.644C198.507 167.019 201.845 162.635 196.295 163.787H196.296" fill="#336791"/>
<path d="M141.017 129.892C139.876 129.732 138.842 129.88 138.319 130.278C138.026 130.502 137.935 130.761 137.91 130.939C137.844 131.412 138.174 131.935 138.377 132.205C138.95 132.968 139.787 133.493 140.615 133.609C140.735 133.626 140.855 133.634 140.974 133.634C142.355 133.634 143.612 132.552 143.723 131.754C143.861 130.754 142.417 130.088 141.017 129.892V129.892ZM178.819 129.923C178.71 129.14 177.323 128.916 176.007 129.1C174.692 129.284 173.417 129.881 173.523 130.666C173.609 131.277 174.706 132.32 176.004 132.32C176.114 132.32 176.225 132.312 176.337 132.297C177.204 132.176 177.84 131.622 178.142 131.304C178.602 130.817 178.868 130.276 178.819 129.923" fill="white"/>
<path d="M200.51 163.489C200.027 162.021 198.473 161.549 195.891 162.085C188.225 163.675 185.479 162.574 184.578 161.906C190.537 152.782 195.439 141.752 198.083 131.461C199.336 126.586 200.028 122.059 200.084 118.369C200.147 114.319 199.461 111.342 198.045 109.524C192.339 102.195 183.964 98.2634 173.826 98.1556C166.857 98.0768 160.968 99.8697 159.826 100.374C157.422 99.7729 154.802 99.404 151.949 99.3569C146.717 99.2718 142.194 100.531 138.45 103.098C136.823 102.489 132.62 101.038 127.479 100.206C118.593 98.768 111.531 99.8577 106.491 103.446C100.478 107.729 97.7016 115.384 98.2393 126.198C98.4203 129.836 100.483 141.029 103.737 151.748C108.022 165.856 112.679 173.843 117.579 175.486C118.152 175.678 118.813 175.813 119.543 175.813C121.33 175.813 123.522 175.003 125.802 172.248C128.583 168.894 131.46 165.622 134.429 162.435C136.355 163.475 138.471 164.055 140.635 164.113C140.639 164.17 140.645 164.227 140.65 164.284C140.278 164.73 139.913 165.183 139.556 165.642C138.056 167.556 137.744 167.954 132.917 168.953C131.544 169.238 127.897 169.994 127.843 172.563C127.786 175.371 132.154 176.55 132.652 176.675C134.387 177.112 136.058 177.327 137.652 177.327C141.528 177.327 144.939 176.046 147.664 173.569C147.581 183.578 147.996 193.44 149.191 196.445C150.171 198.905 152.563 204.917 160.119 204.917C161.227 204.917 162.448 204.787 163.79 204.498C171.676 202.799 175.1 199.295 176.425 191.571C177.134 187.443 178.35 177.586 178.923 172.299C180.13 172.678 181.685 172.851 183.365 172.851C186.87 172.851 190.915 172.102 193.451 170.919C196.301 169.588 201.442 166.325 200.51 163.489V163.489ZM181.73 127.76C181.704 129.321 181.491 130.738 181.264 132.217C181.02 133.808 180.768 135.453 180.705 137.45C180.642 139.393 180.883 141.413 181.117 143.366C181.589 147.313 182.073 151.375 180.199 155.384C179.888 154.829 179.61 154.256 179.369 153.668C179.136 153.1 178.63 152.189 177.929 150.927C175.205 146.015 168.824 134.514 172.091 129.82C173.064 128.423 175.533 126.987 181.73 127.76V127.76ZM174.218 101.316C183.301 101.518 190.487 104.934 195.574 111.468C199.476 116.48 195.179 139.286 182.741 158.961C182.616 158.802 182.49 158.642 182.364 158.483L182.206 158.286C185.421 152.95 184.792 147.671 184.233 142.99C184.003 141.069 183.786 139.255 183.841 137.551C183.898 135.745 184.136 134.196 184.365 132.698C184.648 130.852 184.935 128.942 184.856 126.69C184.915 126.454 184.939 126.175 184.908 125.843C184.706 123.684 182.253 117.222 177.255 111.373C174.52 108.174 170.533 104.594 165.088 102.179C167.43 101.691 170.632 101.236 174.218 101.316V101.316ZM123.389 170.231C120.877 173.267 119.142 172.685 118.572 172.494C114.855 171.248 110.541 163.35 106.739 150.828C103.448 139.992 101.525 129.096 101.373 126.04C100.893 116.377 103.223 109.643 108.3 106.024C116.562 100.135 130.145 103.659 135.603 105.447C135.525 105.525 135.443 105.598 135.365 105.677C126.409 114.769 126.621 130.303 126.643 131.253C126.642 131.619 126.673 132.138 126.715 132.852C126.869 135.465 127.156 140.327 126.389 145.834C125.678 150.952 127.247 155.96 130.694 159.577C131.048 159.947 131.42 160.299 131.809 160.633C130.274 162.285 126.939 165.938 123.389 170.231V170.231ZM132.96 157.394C130.181 154.48 128.919 150.426 129.497 146.271C130.306 140.454 130.008 135.387 129.847 132.665C129.825 132.284 129.805 131.95 129.793 131.687C131.102 130.521 137.165 127.255 141.489 128.251C143.462 128.705 144.665 130.056 145.165 132.379C147.752 144.407 145.507 149.42 143.703 153.449C143.332 154.278 142.98 155.063 142.681 155.874L142.448 156.502C141.86 158.088 141.312 159.563 140.973 160.963C138.019 160.955 135.145 159.686 132.96 157.394V157.394ZM133.414 173.615C132.551 173.398 131.775 173.022 131.32 172.71C131.7 172.53 132.377 172.286 133.55 172.042C139.229 170.868 140.106 170.038 142.021 167.594C142.46 167.033 142.958 166.398 143.647 165.624L143.648 165.624C144.675 164.468 145.144 164.664 145.996 165.019C146.686 165.306 147.358 166.176 147.631 167.133C147.76 167.585 147.905 168.442 147.431 169.11C143.43 174.741 137.6 174.668 133.414 173.615V173.615ZM163.133 201.414C156.186 202.91 153.726 199.347 152.105 195.274C151.059 192.644 150.544 180.786 150.909 167.691C150.914 167.517 150.889 167.349 150.842 167.19C150.799 166.878 150.734 166.568 150.647 166.265C150.105 164.36 148.783 162.766 147.197 162.105C146.567 161.843 145.41 161.361 144.021 161.719C144.317 160.491 144.831 159.105 145.388 157.604L145.622 156.973C145.885 156.261 146.216 155.523 146.565 154.743C148.452 150.528 151.037 144.755 148.232 131.713C147.181 126.828 143.671 124.442 138.352 124.996C135.163 125.328 132.245 126.621 130.789 127.363C130.476 127.522 130.19 127.676 129.923 127.826C130.329 122.904 131.864 113.706 137.604 107.886C141.219 104.223 146.032 102.413 151.897 102.511C163.452 102.701 170.863 108.662 175.045 113.629C178.649 117.91 180.6 122.222 181.379 124.547C175.522 123.949 171.539 125.111 169.52 128.012C165.127 134.324 171.923 146.575 175.189 152.463C175.788 153.542 176.305 154.474 176.468 154.871C177.531 157.462 178.908 159.192 179.914 160.454C180.222 160.841 180.521 161.217 180.748 161.544C178.974 162.058 175.788 163.246 176.079 169.183C175.844 172.161 174.179 186.108 173.333 191.035C172.216 197.545 169.833 199.97 163.133 201.414V201.414ZM192.13 168.058C190.316 168.904 187.281 169.539 184.397 169.675C181.213 169.825 179.591 169.317 179.21 169.004C179.031 165.304 180.401 164.918 181.85 164.509C182.078 164.444 182.3 164.382 182.515 164.306C182.648 164.415 182.794 164.524 182.954 164.63C185.514 166.328 190.08 166.511 196.526 165.174L196.596 165.16C195.727 165.977 194.239 167.073 192.13 168.058Z" fill="white"/>
</svg>
