<svg width="300" height="300" viewBox="0 0 300 300" fill="none" xmlns="http://www.w3.org/2000/svg">
<circle cx="150" cy="150" r="150" fill="white"/>
<path d="M262.06 153.742C260.528 152.735 258.841 152.019 257.243 151.123C256.207 150.541 255.103 150.026 254.204 149.288C252.673 148.035 252.988 145.573 254.587 144.498C256.883 142.976 260.686 143.827 261.091 146.938C261.091 147.005 261.159 147.05 261.226 147.05H264.693C264.783 147.05 264.851 146.983 264.828 146.893C264.648 144.744 263.815 142.954 262.285 141.812C260.821 140.716 259.156 140.134 257.377 140.134C248.217 140.134 247.383 149.78 252.312 152.824C252.875 153.182 257.714 155.599 259.426 156.651C261.136 157.703 261.677 159.628 260.933 161.15C260.258 162.538 258.503 163.5 256.748 163.388C254.833 163.276 253.348 162.247 252.83 160.635C252.74 160.344 252.695 159.785 252.695 159.539C252.695 159.472 252.628 159.404 252.56 159.404H248.802C248.735 159.404 248.667 159.472 248.667 159.539C248.667 162.247 249.343 163.746 251.188 165.112C252.92 166.41 254.811 166.947 256.77 166.947C261.902 166.947 264.558 164.06 265.097 161.061C265.57 158.129 264.693 155.488 262.06 153.742Z" fill="#161616"/>
<path d="M98.8544 140.626H97.1889H95.3657C95.2981 140.626 95.2531 140.671 95.2306 140.716L92.1471 150.832C92.1021 150.967 91.9221 150.967 91.877 150.832L88.7934 140.716C88.7709 140.649 88.7258 140.626 88.6583 140.626H86.8353H85.1696H82.9188C82.8513 140.626 82.7837 140.694 82.7837 140.761V166.589C82.7837 166.656 82.8513 166.723 82.9188 166.723H86.6776C86.7452 166.723 86.8128 166.656 86.8128 166.589V146.96C86.8128 146.804 87.0378 146.781 87.0829 146.916L90.1888 157.099L90.4139 157.815C90.4364 157.883 90.4814 157.905 90.549 157.905H93.4301C93.4975 157.905 93.5425 157.86 93.5651 157.815L93.7901 157.099L96.8962 146.916C96.9413 146.759 97.1664 146.804 97.1664 146.96V166.589C97.1664 166.656 97.2339 166.723 97.3013 166.723H101.06C101.128 166.723 101.195 166.656 101.195 166.589V140.761C101.195 140.694 101.128 140.626 101.06 140.626H98.8544Z" fill="#161616"/>
<path d="M204.506 140.626C204.439 140.626 204.393 140.671 204.371 140.716L201.289 150.832C201.244 150.967 201.063 150.967 201.018 150.832L197.935 140.716C197.912 140.649 197.867 140.626 197.799 140.626H192.082C192.014 140.626 191.947 140.694 191.947 140.761V166.589C191.947 166.656 192.014 166.723 192.082 166.723H195.842C195.909 166.723 195.977 166.656 195.977 166.589V146.96C195.977 146.804 196.202 146.781 196.247 146.916L199.352 157.099L199.577 157.815C199.599 157.883 199.645 157.905 199.712 157.905H202.593C202.661 157.905 202.706 157.86 202.728 157.815L202.954 157.099L206.06 146.916C206.105 146.759 206.33 146.804 206.33 146.96V166.589C206.33 166.656 206.398 166.723 206.466 166.723H210.224C210.291 166.723 210.359 166.656 210.359 166.589V140.761C210.359 140.694 210.291 140.626 210.224 140.626H204.506Z" fill="#161616"/>
<path d="M156.024 140.626H149.024H145.265H138.266C138.198 140.626 138.13 140.694 138.13 140.761V143.984C138.13 144.051 138.198 144.118 138.266 144.118H145.13V166.589C145.13 166.656 145.198 166.723 145.265 166.723H149.024C149.092 166.723 149.159 166.656 149.159 166.589V144.118H156.024C156.092 144.118 156.159 144.051 156.159 143.984V140.761C156.159 140.694 156.114 140.626 156.024 140.626Z" fill="#161616"/>
<path d="M178.195 166.723H181.616C181.706 166.723 181.773 166.633 181.751 166.544L174.684 140.626C174.661 140.559 174.616 140.537 174.548 140.537H173.243H170.948H169.642C169.574 140.537 169.529 140.581 169.507 140.626L162.439 166.544C162.417 166.633 162.484 166.723 162.575 166.723H165.996C166.063 166.723 166.108 166.678 166.131 166.633L168.179 159.091C168.201 159.024 168.246 159.001 168.314 159.001H175.877C175.945 159.001 175.99 159.046 176.012 159.091L178.06 166.633C178.083 166.678 178.15 166.723 178.195 166.723ZM169.214 155.308L171.96 145.214C172.005 145.08 172.185 145.08 172.23 145.214L174.976 155.308C174.999 155.398 174.931 155.487 174.841 155.487H169.349C169.259 155.487 169.192 155.398 169.214 155.308Z" fill="#161616"/>
<path d="M236.536 166.723H239.956C240.046 166.723 240.113 166.633 240.091 166.544L233.024 140.626C233.001 140.559 232.956 140.537 232.889 140.537H231.584H229.288H227.982C227.914 140.537 227.869 140.581 227.847 140.626L220.78 166.544C220.757 166.633 220.825 166.723 220.915 166.723H224.337C224.404 166.723 224.449 166.678 224.472 166.633L226.52 159.091C226.542 159.024 226.587 159.001 226.655 159.001H234.217C234.285 159.001 234.33 159.046 234.353 159.091L236.401 166.633C236.423 166.678 236.468 166.723 236.536 166.723ZM227.554 155.308L230.3 145.214C230.345 145.08 230.525 145.08 230.57 145.214L233.317 155.308C233.339 155.398 233.272 155.487 233.181 155.487H227.689C227.599 155.487 227.532 155.398 227.554 155.308Z" fill="#161616"/>
<path d="M116.456 162.896V154.883C116.456 154.816 116.523 154.749 116.591 154.749H126.607C126.674 154.749 126.742 154.682 126.742 154.615V151.392C126.742 151.325 126.674 151.258 126.607 151.258H116.591C116.523 151.258 116.456 151.19 116.456 151.123V144.275C116.456 144.207 116.523 144.14 116.591 144.14H127.98C128.047 144.14 128.115 144.073 128.115 144.006V140.783C128.115 140.716 128.047 140.649 127.98 140.649H116.456H112.562C112.494 140.649 112.427 140.716 112.427 140.783V144.14V151.28V154.772V163.053V166.589C112.427 166.656 112.494 166.723 112.562 166.723H116.456H128.452C128.52 166.723 128.588 166.656 128.588 166.589V163.187C128.588 163.12 128.52 163.053 128.452 163.053H116.568C116.501 163.03 116.456 162.985 116.456 162.896Z" fill="#161616"/>
<path d="M296.406 166.499L283.396 153.138C283.351 153.093 283.351 153.003 283.396 152.959L295.101 140.873C295.192 140.783 295.124 140.649 295.011 140.649H290.217C290.172 140.649 290.15 140.671 290.127 140.694L280.201 150.944C280.111 151.034 279.976 150.967 279.976 150.855V140.783C279.976 140.716 279.909 140.649 279.841 140.649H276.081C276.014 140.649 275.946 140.716 275.946 140.783V166.611C275.946 166.679 276.014 166.746 276.081 166.746H279.841C279.909 166.746 279.976 166.679 279.976 166.611V155.242C279.976 155.13 280.134 155.062 280.201 155.152L291.454 166.701C291.477 166.723 291.522 166.746 291.545 166.746H296.339C296.429 166.723 296.496 166.567 296.406 166.499Z" fill="#161616"/>
<path d="M57.1023 126.727L34.3467 143.513L38.5783 133.621L57.1023 126.727Z" fill="#E17726" stroke="#E17726" stroke-width="0.25" stroke-linecap="round" stroke-linejoin="round"/>
<path d="M4.61328 126.727L27.1663 143.67L23.1374 133.621L4.61328 126.727Z" fill="#E27625" stroke="#E27625" stroke-width="0.25" stroke-linecap="round" stroke-linejoin="round"/>
<path d="M48.9086 165.649L42.854 174.87L55.8186 178.429L59.5325 165.85L48.9086 165.649Z" fill="#E27625" stroke="#E27625" stroke-width="0.25" stroke-linecap="round" stroke-linejoin="round"/>
<path d="M2.20508 165.85L5.89636 178.429L18.8385 174.87L12.8063 165.649L2.20508 165.85Z" fill="#E27625" stroke="#E27625" stroke-width="0.25" stroke-linecap="round" stroke-linejoin="round"/>
<path d="M18.1408 150.071L14.5396 155.488L27.3691 156.069L26.9415 142.305L18.1408 150.071Z" fill="#E27625" stroke="#E27625" stroke-width="0.25" stroke-linecap="round" stroke-linejoin="round"/>
<path d="M43.5748 150.071L34.6393 142.148L34.3467 156.07L47.1761 155.488L43.5748 150.071Z" fill="#E27625" stroke="#E27625" stroke-width="0.25" stroke-linecap="round" stroke-linejoin="round"/>
<path d="M18.8389 174.87L26.604 171.132L19.9193 165.94L18.8389 174.87Z" fill="#E27625" stroke="#E27625" stroke-width="0.25" stroke-linecap="round" stroke-linejoin="round"/>
<path d="M35.1118 171.132L42.8544 174.87L41.7965 165.94L35.1118 171.132Z" fill="#E27625" stroke="#E27625" stroke-width="0.25" stroke-linecap="round" stroke-linejoin="round"/>
<path d="M42.8544 174.87L35.1118 171.133L35.7419 176.146L35.6744 178.272L42.8544 174.87Z" fill="#D5BFB2" stroke="#D5BFB2" stroke-width="0.25" stroke-linecap="round" stroke-linejoin="round"/>
<path d="M18.8389 174.87L26.0415 178.272L25.9964 176.146L26.604 171.133L18.8389 174.87Z" fill="#D5BFB2" stroke="#D5BFB2" stroke-width="0.25" stroke-linecap="round" stroke-linejoin="round"/>
<path d="M26.1756 162.627L19.7383 160.747L24.2849 158.666L26.1756 162.627Z" fill="#233447" stroke="#233447" stroke-width="0.25" stroke-linecap="round" stroke-linejoin="round"/>
<path d="M35.5396 162.627L37.4303 158.666L41.9994 160.747L35.5396 162.627Z" fill="#233447" stroke="#233447" stroke-width="0.25" stroke-linecap="round" stroke-linejoin="round"/>
<path d="M18.8382 174.87L19.9637 165.649L12.8062 165.85L18.8382 174.87Z" fill="#CC6228" stroke="#CC6228" stroke-width="0.25" stroke-linecap="round" stroke-linejoin="round"/>
<path d="M41.7515 165.649L42.8544 174.87L48.909 165.85L41.7515 165.649Z" fill="#CC6228" stroke="#CC6228" stroke-width="0.25" stroke-linecap="round" stroke-linejoin="round"/>
<path d="M47.1761 155.487L34.3467 156.069L35.5395 162.627L37.4303 158.666L41.9994 160.747L47.1761 155.487Z" fill="#CC6228" stroke="#CC6228" stroke-width="0.25" stroke-linecap="round" stroke-linejoin="round"/>
<path d="M19.7389 160.747L24.2854 158.666L26.1762 162.627L27.3691 156.069L14.5396 155.487L19.7389 160.747Z" fill="#CC6228" stroke="#CC6228" stroke-width="0.25" stroke-linecap="round" stroke-linejoin="round"/>
<path d="M14.54 155.487L19.9195 165.94L19.7393 160.747L14.54 155.487Z" fill="#E27525" stroke="#E27525" stroke-width="0.25" stroke-linecap="round" stroke-linejoin="round"/>
<path d="M41.9994 160.747L41.7969 165.94L47.1763 155.487L41.9994 160.747Z" fill="#E27525" stroke="#E27525" stroke-width="0.25" stroke-linecap="round" stroke-linejoin="round"/>
<path d="M27.3693 156.069L26.1763 162.627L27.6843 170.371L28.022 160.165L27.3693 156.069Z" fill="#E27525" stroke="#E27525" stroke-width="0.25" stroke-linecap="round" stroke-linejoin="round"/>
<path d="M34.3466 156.069L33.7163 160.143L34.0315 170.371L35.5395 162.627L34.3466 156.069Z" fill="#E27525" stroke="#E27525" stroke-width="0.25" stroke-linecap="round" stroke-linejoin="round"/>
<path d="M35.5393 162.627L34.0312 170.371L35.1117 171.132L41.7966 165.94L41.9991 160.747L35.5393 162.627Z" fill="#F5841F" stroke="#F5841F" stroke-width="0.25" stroke-linecap="round" stroke-linejoin="round"/>
<path d="M19.7383 160.747L19.9185 165.94L26.6032 171.132L27.6836 170.371L26.1756 162.627L19.7383 160.747Z" fill="#F5841F" stroke="#F5841F" stroke-width="0.25" stroke-linecap="round" stroke-linejoin="round"/>
<path d="M35.6748 178.272L35.7422 176.146L35.1571 175.653H26.5591L25.9964 176.146L26.0415 178.272L18.8389 174.87L21.3597 176.929L26.4691 180.443H35.2245L40.3564 176.929L42.8547 174.87L35.6748 178.272Z" fill="#C0AC9D" stroke="#C0AC9D" stroke-width="0.25" stroke-linecap="round" stroke-linejoin="round"/>
<path d="M35.1118 171.132L34.0314 170.371H27.6841L26.6039 171.132L25.9961 176.146L26.5588 175.653H35.1568L35.7421 176.146L35.1118 171.132Z" fill="#161616" stroke="#161616" stroke-width="0.25" stroke-linecap="round" stroke-linejoin="round"/>
<path d="M58.0698 144.61L59.983 135.344L57.102 126.727L35.1118 142.954L43.5747 150.071L55.5264 153.54L58.1599 150.474L57.012 149.646L58.835 147.99L57.4396 146.915L59.2628 145.528L58.0698 144.61Z" fill="#763E1A" stroke="#763E1A" stroke-width="0.25" stroke-linecap="round" stroke-linejoin="round"/>
<path d="M1.73242 135.344L3.6681 144.61L2.43017 145.528L4.27582 146.915L2.88033 147.99L4.70346 149.646L3.55556 150.474L6.18899 153.54L18.1408 150.071L26.6036 142.954L4.61344 126.727L1.73242 135.344Z" fill="#763E1A" stroke="#763E1A" stroke-width="0.25" stroke-linecap="round" stroke-linejoin="round"/>
<path d="M55.5267 153.54L43.575 150.071L47.1763 155.488L41.7969 165.94L48.9094 165.85H59.5331L55.5267 153.54Z" fill="#F5841F" stroke="#F5841F" stroke-width="0.25" stroke-linecap="round" stroke-linejoin="round"/>
<path d="M18.1406 150.071L6.18897 153.54L2.20508 165.85H12.8063L19.9187 165.94L14.5394 155.488L18.1406 150.071Z" fill="#F5841F" stroke="#F5841F" stroke-width="0.25" stroke-linecap="round" stroke-linejoin="round"/>
<path d="M34.3462 156.069L35.1114 142.954L38.5776 133.621H23.1372L26.6034 142.954L27.3686 156.069L27.6613 160.188L27.6838 170.371H34.031L34.0535 160.188L34.3462 156.069Z" fill="#F5841F" stroke="#F5841F" stroke-width="0.25" stroke-linecap="round" stroke-linejoin="round"/>
</svg>
