<svg width="300" height="300" viewBox="0 0 300 300" fill="none" xmlns="http://www.w3.org/2000/svg">
<circle cx="150" cy="150" r="150" fill="white"/>
<path d="M97.7551 108.868C97.0396 109.494 96.6021 110.379 96.5388 111.328C96.4756 112.277 96.7918 113.212 97.418 113.928L103.583 120.976V138.758C103.583 139.71 103.961 140.623 104.634 141.296C105.307 141.969 106.22 142.347 107.172 142.347V170.924C107.172 173.839 104.91 176.325 101.997 176.436C101.273 176.464 100.551 176.345 99.874 176.087C99.1969 175.829 98.5788 175.438 98.0566 174.936C97.5344 174.433 97.1188 173.831 96.8346 173.165C96.5504 172.498 96.4035 171.781 96.4027 171.057V135.17C96.4027 132.791 95.4574 130.509 93.7748 128.826C92.0922 127.143 89.8101 126.198 87.4305 126.198H85.6398V111.071C85.6398 108.897 84.7761 106.811 83.2386 105.274C81.7012 103.736 79.616 102.873 77.4418 102.873H40.0081C37.8339 102.873 35.7487 103.736 34.2113 105.274C32.6738 106.811 31.8101 108.897 31.8101 111.071V185.411H28.2212C27.7499 185.411 27.2832 185.504 26.8478 185.684C26.4124 185.865 26.0167 186.129 25.6835 186.462C25.3502 186.796 25.0859 187.191 24.9055 187.627C24.7252 188.062 24.6323 188.529 24.6323 189H92.8138C92.8138 188.048 92.4357 187.135 91.7627 186.462C91.0896 185.789 90.1768 185.411 89.2249 185.411H85.6398V129.787H87.4342C88.862 129.787 90.2313 130.354 91.2408 131.364C92.2504 132.373 92.8176 133.743 92.8176 135.17V170.884C92.8176 175.786 96.6774 179.908 101.578 180.022C102.773 180.049 103.961 179.837 105.074 179.399C106.186 178.961 107.2 178.306 108.055 177.471C108.911 176.636 109.591 175.638 110.056 174.537C110.521 173.435 110.762 172.252 110.763 171.057V123.729L97.7551 108.868ZM71.6638 175.111H43.6557V142.901H71.6651L71.6638 175.111ZM74.8731 131.575H42.5818V110.097H74.8731V131.575ZM107.375 138.677C107.368 138.857 107.291 139.028 107.16 139.153C107.03 139.278 106.856 139.348 106.676 139.348C106.495 139.348 106.321 139.278 106.191 139.153C106.06 139.028 105.983 138.857 105.976 138.677V123.295L107.375 125.168V138.677Z" fill="#34495E"/>
<path d="M65.9289 159.52L57.9844 156.464V164.317L65.9289 159.52Z" fill="#34495E"/>
<path d="M57.4859 155.803V145.577L49.3203 159.005L57.4859 155.803Z" fill="#34495E"/>
<path d="M57.9844 155.931L65.9926 159.01L57.9844 145.586V155.931Z" fill="#34495E"/>
<path d="M57.4865 164.225V156.338L49.3809 159.516L57.4865 164.225Z" fill="#34495E"/>
<path d="M57.4861 166.009L49.3555 161.098L57.4861 172.492V166.009Z" fill="#34495E"/>
<path d="M57.9844 166.018V172.485L66.4471 161.182L57.9844 166.018Z" fill="#34495E"/>
<path d="M141.367 125.73H129.396V136.172H143.16V138H127.234V112.406H143.072V114.252H129.396V123.902H141.367V125.73ZM165.449 114.252H156.678V138H154.516V114.252H145.762V112.406H165.449V114.252ZM188.564 138H186.385V125.73H171.76V138H169.598V112.406H171.76V123.902H186.385V112.406H188.564V138ZM222.314 134.959C221.564 136.025 220.387 136.857 218.781 137.455C217.188 138.053 215.4 138.352 213.42 138.352C211.416 138.352 209.635 137.871 208.076 136.91C206.518 135.949 205.311 134.59 204.455 132.832C203.6 131.074 203.166 129.059 203.154 126.785V123.551C203.154 120 204.051 117.199 205.844 115.148C207.637 113.086 210.045 112.055 213.068 112.055C215.705 112.055 217.826 112.729 219.432 114.076C221.037 115.412 221.992 117.258 222.297 119.613H220.135C219.818 117.738 219.051 116.32 217.832 115.359C216.625 114.387 215.043 113.9 213.086 113.9C210.695 113.9 208.803 114.75 207.408 116.449C206.014 118.148 205.316 120.545 205.316 123.639V126.662C205.316 128.607 205.645 130.33 206.301 131.83C206.969 133.318 207.918 134.473 209.148 135.293C210.391 136.113 211.814 136.523 213.42 136.523C215.283 136.523 216.883 136.23 218.219 135.645C219.086 135.258 219.73 134.807 220.152 134.291V127.682H213.279V125.854H222.314V134.959ZM242.266 130.828H230.646L228.01 138H225.742L235.428 112.406H237.484L247.17 138H244.92L242.266 130.828ZM231.314 128.982H241.58L236.447 115.043L231.314 128.982ZM265.434 131.707C265.434 130.289 264.936 129.17 263.939 128.35C262.943 127.518 261.121 126.732 258.473 125.994C255.824 125.244 253.891 124.43 252.672 123.551C250.938 122.309 250.07 120.68 250.07 118.664C250.07 116.707 250.873 115.119 252.479 113.9C254.096 112.67 256.158 112.055 258.666 112.055C260.365 112.055 261.883 112.383 263.219 113.039C264.566 113.695 265.609 114.609 266.348 115.781C267.086 116.953 267.455 118.26 267.455 119.701H265.275C265.275 117.955 264.678 116.555 263.482 115.5C262.287 114.434 260.682 113.9 258.666 113.9C256.709 113.9 255.15 114.34 253.99 115.219C252.83 116.086 252.25 117.223 252.25 118.629C252.25 119.93 252.771 120.99 253.814 121.811C254.857 122.631 256.527 123.357 258.824 123.99C261.121 124.611 262.861 125.262 264.045 125.941C265.229 126.609 266.119 127.412 266.717 128.35C267.314 129.287 267.613 130.395 267.613 131.672C267.613 133.688 266.805 135.305 265.188 136.523C263.582 137.742 261.461 138.352 258.824 138.352C257.02 138.352 255.361 138.029 253.85 137.385C252.35 136.74 251.207 135.838 250.422 134.678C249.648 133.518 249.262 132.188 249.262 130.688H251.424C251.424 132.492 252.098 133.916 253.445 134.959C254.793 136.002 256.586 136.523 258.824 136.523C260.816 136.523 262.416 136.084 263.623 135.205C264.83 134.326 265.434 133.16 265.434 131.707ZM141.719 173.707C141.719 172.289 141.221 171.17 140.225 170.35C139.229 169.518 137.406 168.732 134.758 167.994C132.109 167.244 130.176 166.43 128.957 165.551C127.223 164.309 126.355 162.68 126.355 160.664C126.355 158.707 127.158 157.119 128.764 155.9C130.381 154.67 132.443 154.055 134.951 154.055C136.65 154.055 138.168 154.383 139.504 155.039C140.852 155.695 141.895 156.609 142.633 157.781C143.371 158.953 143.74 160.26 143.74 161.701H141.561C141.561 159.955 140.963 158.555 139.768 157.5C138.572 156.434 136.967 155.9 134.951 155.9C132.994 155.9 131.436 156.34 130.275 157.219C129.115 158.086 128.535 159.223 128.535 160.629C128.535 161.93 129.057 162.99 130.1 163.811C131.143 164.631 132.812 165.357 135.109 165.99C137.406 166.611 139.146 167.262 140.33 167.941C141.514 168.609 142.404 169.412 143.002 170.35C143.6 171.287 143.898 172.395 143.898 173.672C143.898 175.688 143.09 177.305 141.473 178.523C139.867 179.742 137.746 180.352 135.109 180.352C133.305 180.352 131.646 180.029 130.135 179.385C128.635 178.74 127.492 177.838 126.707 176.678C125.934 175.518 125.547 174.188 125.547 172.688H127.709C127.709 174.492 128.383 175.916 129.73 176.959C131.078 178.002 132.871 178.523 135.109 178.523C137.102 178.523 138.701 178.084 139.908 177.205C141.115 176.326 141.719 175.16 141.719 173.707ZM165.941 156.252H157.17V180H155.008V156.252H146.254V154.406H165.941V156.252ZM182.5 172.828H170.881L168.244 180H165.977L175.662 154.406H177.719L187.404 180H185.154L182.5 172.828ZM171.549 170.982H181.814L176.682 157.043L171.549 170.982ZM206.266 156.252H197.494V180H195.332V156.252H186.578V154.406H206.266V156.252ZM213.051 180H210.889V154.406H213.051V180ZM238.926 168.592C238.926 170.947 238.516 173.016 237.695 174.797C236.887 176.578 235.727 177.949 234.215 178.91C232.703 179.871 230.957 180.352 228.977 180.352C225.988 180.352 223.574 179.285 221.734 177.152C219.895 175.008 218.975 172.119 218.975 168.486V165.85C218.975 163.518 219.385 161.455 220.205 159.662C221.037 157.857 222.209 156.475 223.721 155.514C225.232 154.541 226.973 154.055 228.941 154.055C230.91 154.055 232.645 154.529 234.145 155.479C235.656 156.428 236.822 157.77 237.643 159.504C238.463 161.238 238.891 163.248 238.926 165.533V168.592ZM236.764 165.814C236.764 162.732 236.066 160.318 234.672 158.572C233.277 156.826 231.367 155.953 228.941 155.953C226.562 155.953 224.664 156.832 223.246 158.59C221.84 160.336 221.137 162.779 221.137 165.92V168.592C221.137 171.627 221.84 174.035 223.246 175.816C224.652 177.586 226.562 178.471 228.977 178.471C231.426 178.471 233.336 177.598 234.707 175.852C236.078 174.094 236.764 171.65 236.764 168.521V165.814ZM263.43 180H261.268L246.555 158.098V180H244.375V154.406H246.555L261.285 176.326V154.406H263.43V180Z" fill="#34495E"/>
</svg>
