<svg width="300" height="300" viewBox="0 0 300 300" fill="none" xmlns="http://www.w3.org/2000/svg">
<circle cx="150" cy="150" r="150" fill="white"/>
<g clip-path="url(#clip0)">
<path d="M22.7381 145.371L34.003 134.111L45.2724 145.38L51.8233 138.825L34.003 121L16.1826 138.82L22.7381 145.371Z" fill="#F3BA2F"/>
<path d="M4.9978 150.001L11.5509 143.448L18.104 150.001L11.5509 156.554L4.9978 150.001Z" fill="#F3BA2F"/>
<path d="M22.738 154.629L34.0029 165.894L45.2723 154.625L51.8278 161.171L51.8232 161.175L34.0029 179L16.1825 161.185L16.1733 161.175L22.738 154.629Z" fill="#F3BA2F"/>
<path d="M49.8906 150.003L56.4437 143.45L62.9969 150.003L56.4437 156.556L49.8906 150.003Z" fill="#F3BA2F"/>
<path d="M40.6499 149.998L34.0027 143.346L29.0872 148.262L28.5192 148.825L27.3556 149.989L27.3464 149.998L27.3556 150.011L34.0027 156.654L40.6499 150.002L40.6544 149.998H40.6499Z" fill="#F3BA2F"/>
<path d="M73.2214 135.055H87.4777C91.0143 135.055 93.6897 135.971 95.5038 137.803C96.1872 138.48 96.726 139.289 97.0875 140.18C97.449 141.072 97.6255 142.027 97.6065 142.989V143.076C97.6188 143.864 97.5091 144.649 97.2812 145.403C97.0783 146.052 96.7836 146.669 96.4062 147.235C96.0544 147.769 95.6287 148.25 95.1419 148.665C94.6662 149.074 94.1451 149.428 93.5889 149.718C95.193 150.277 96.6354 151.221 97.7897 152.467C98.8098 153.627 99.3198 155.231 99.3198 157.277V157.364C99.3488 158.642 99.0707 159.908 98.509 161.056C97.9646 162.114 97.1666 163.021 96.1863 163.695C95.0781 164.438 93.8441 164.973 92.5444 165.275C91.0003 165.642 89.4173 165.818 87.8305 165.802H73.2214V135.055ZM86.0484 147.487C87.2819 147.547 88.5093 147.282 89.6079 146.718C90.0364 146.467 90.3862 146.102 90.6177 145.663C90.8493 145.225 90.9533 144.73 90.9181 144.235V144.148C90.9408 143.692 90.8482 143.237 90.6488 142.827C90.4494 142.416 90.1497 142.062 89.7774 141.798C89.017 141.257 87.919 140.987 86.4836 140.987H79.8136V147.487H86.0484ZM87.8488 159.879C89.0776 159.948 90.3008 159.667 91.3762 159.068C91.7952 158.799 92.1343 158.422 92.3583 157.978C92.5823 157.533 92.6829 157.036 92.6498 156.539V156.452C92.6663 155.98 92.5667 155.511 92.3599 155.086C92.153 154.661 91.8452 154.294 91.4633 154.015C90.6753 153.404 89.4018 153.099 87.6427 153.099H79.8136V159.879H87.8488Z" fill="#F3BA2F"/>
<path d="M107.813 135.055H114.579V165.811H107.813V135.055Z" fill="#F3BA2F"/>
<path d="M124.818 135.055H131.058L145.479 153.983V135.055H152.158V165.811H146.4L131.506 146.26V165.811H124.818V135.055Z" fill="#F3BA2F"/>
<path d="M172.644 134.835H178.875L192.054 165.811H184.99L182.177 158.912H169.172L166.359 165.811H159.46L172.644 134.835ZM179.763 152.939L175.668 142.961L171.591 152.939H179.763Z" fill="#F3BA2F"/>
<path d="M199.37 135.055H205.61L220.022 153.983V135.055H226.701V165.811H220.943L206.05 146.26V165.811H199.37V135.055Z" fill="#F3BA2F"/>
<path d="M251.054 166.352C248.897 166.37 246.76 165.953 244.769 165.124C242.894 164.35 241.194 163.209 239.767 161.768C238.341 160.326 237.218 158.614 236.463 156.732C235.667 154.763 235.264 152.657 235.277 150.534V150.447C235.241 146.261 236.852 142.228 239.762 139.219C241.193 137.748 242.907 136.583 244.801 135.792C246.86 134.939 249.072 134.513 251.301 134.541C252.62 134.532 253.936 134.65 255.232 134.894C256.34 135.104 257.424 135.428 258.466 135.861C259.411 136.259 260.31 136.76 261.146 137.354C261.962 137.934 262.728 138.581 263.436 139.287L259.135 144.253C258.036 143.239 256.803 142.381 255.47 141.702C254.161 141.076 252.725 140.762 251.274 140.785C250.066 140.772 248.87 141.017 247.764 141.502C246.659 141.986 245.669 142.701 244.86 143.598C244.059 144.493 243.431 145.529 243.01 146.654C242.568 147.842 242.346 149.101 242.354 150.369V150.456C242.35 151.722 242.572 152.978 243.01 154.166C243.426 155.295 244.047 156.337 244.842 157.24C245.644 158.148 246.631 158.873 247.738 159.367C248.844 159.86 250.044 160.11 251.255 160.099C252.798 160.147 254.329 159.815 255.713 159.132C257.03 158.414 258.249 157.527 259.336 156.494L263.643 160.846C262.882 161.671 262.06 162.436 261.183 163.136C260.321 163.817 259.385 164.4 258.393 164.872C257.335 165.37 256.222 165.737 255.076 165.967C253.752 166.233 252.404 166.361 251.054 166.352V166.352Z" fill="#F3BA2F"/>
<path d="M271.627 135.055H294.776V141.074H278.284V147.313H292.806V153.333H278.307V159.792H295.005V165.811H271.641L271.627 135.055Z" fill="#F3BA2F"/>
</g>
<defs>
<clipPath id="clip0">
<rect width="290" height="58" fill="white" transform="translate(5 121)"/>
</clipPath>
</defs>
</svg>
