<svg width="300" height="300" viewBox="0 0 300 300" fill="none" xmlns="http://www.w3.org/2000/svg">
<circle cx="150" cy="150" r="150" fill="white"/>
<g clip-path="url(#clip0)">
<path d="M224.507 133.601H219.662L219.692 169.695H239.248V165.224H224.507V133.601Z" fill="#7B7B7B"/>
<path d="M257.889 163.329C256.677 164.602 254.639 165.876 251.892 165.876C248.199 165.876 246.722 164.07 246.722 161.701C246.722 158.118 249.204 156.4 254.462 156.4C255.437 156.4 257.032 156.519 257.859 156.667V163.329H257.889ZM252.896 141.477C248.997 141.477 245.422 142.869 242.616 145.178L244.329 148.139C246.309 146.984 248.731 145.83 252.187 145.83C256.146 145.83 257.918 147.873 257.918 151.278V153.055C257.15 152.877 255.555 152.788 254.58 152.788C246.102 152.788 241.818 155.749 241.818 161.997C241.818 167.563 245.216 170.376 250.385 170.376C253.871 170.376 257.209 168.778 258.361 166.201L259.247 169.725H262.615V151.219C262.615 145.386 260.075 141.477 252.896 141.477Z" fill="#7B7B7B"/>
<path d="M278.212 166.053C276.41 166.053 274.815 165.846 273.604 165.283V148.554C275.258 147.162 277.296 146.185 279.866 146.185C284.534 146.185 286.365 149.501 286.365 154.831C286.365 162.471 283.441 166.053 278.212 166.053V166.053ZM280.25 141.477C275.937 141.477 273.604 144.438 273.604 144.438V139.76L273.574 133.601H268.848L268.877 168.807C271.24 169.784 274.49 170.347 278.005 170.347C287.015 170.347 291.358 164.573 291.358 154.594C291.358 146.688 287.34 141.477 280.25 141.477" fill="#7B7B7B"/>
<path d="M171.925 137.509C176.208 137.509 178.955 138.931 180.787 140.381L182.855 136.769C180.019 134.282 176.208 132.92 172.161 132.92C161.881 132.92 154.673 139.197 154.673 151.87C154.673 165.135 162.442 170.317 171.334 170.317C175.794 170.317 179.576 169.281 182.057 168.215L181.968 154.032V149.561H168.764V154.032H177.183L177.271 164.81C176.178 165.372 174.258 165.787 171.659 165.787C164.51 165.787 159.724 161.286 159.724 151.781C159.724 142.188 164.687 137.509 171.925 137.509" fill="#7B7B7B"/>
<path d="M205.955 133.601H201.229L201.258 139.671V160.575C201.258 166.409 203.799 170.317 210.977 170.317C211.981 170.317 212.956 170.228 213.901 170.051V165.787C213.222 165.905 212.483 165.965 211.715 165.965C207.757 165.965 206.014 163.921 206.014 160.516V146.096H213.872V142.128H205.955V133.601Z" fill="#7B7B7B"/>
<path d="M189.235 169.666H193.962V142.128H189.235V169.666Z" fill="#7B7B7B"/>
<path d="M189.235 138.338H193.962V133.601H189.235V138.338Z" fill="#7B7B7B"/>
<g clip-path="url(#clip1)">
<path d="M62.9007 202.018L82.967 140.124H42.834L62.9003 202.018H62.9007Z" fill="#E24329"/>
<path d="M62.9006 202.018L42.8339 140.124H14.7119L62.9006 202.018Z" fill="#FC6D26"/>
<path d="M14.7123 140.124L8.6145 158.933C8.34338 159.77 8.34334 160.67 8.6144 161.507C8.88545 162.343 9.41369 163.071 10.1234 163.588L62.901 202.018L14.7118 140.124L14.7123 140.124Z" fill="#FCA326"/>
<path d="M14.7119 140.124H42.8339L30.7487 102.846C30.1267 100.928 27.4191 100.928 26.7975 102.846L14.7119 140.124Z" fill="#E24329"/>
<path d="M62.9008 202.018L82.9671 140.124H111.09L62.9004 202.018H62.9008Z" fill="#FC6D26"/>
<path d="M111.089 140.124L117.187 158.933C117.458 159.77 117.458 160.67 117.187 161.507C116.916 162.343 116.387 163.072 115.678 163.588L62.9004 202.018L111.089 140.124V140.124Z" fill="#FCA326"/>
<path d="M111.089 140.124H82.9668L95.0524 102.846C95.6744 100.928 98.382 100.928 99.0036 102.846L111.089 140.124Z" fill="#E24329"/>
</g>
</g>
<defs>
<clipPath id="clip0">
<rect width="284" height="101" fill="white" transform="translate(8 101)"/>
</clipPath>
<clipPath id="clip1">
<rect width="109.056" height="100.772" fill="white" transform="translate(8.34082 101.228)"/>
</clipPath>
</defs>
</svg>
