<svg width="300" height="300" viewBox="0 0 300 300" fill="none" xmlns="http://www.w3.org/2000/svg">
<circle cx="150" cy="150" r="150" fill="white"/>
<path fill-rule="evenodd" clip-rule="evenodd" d="M228 150C228 106.922 193.078 72 150 72C106.922 72 72 106.922 72 150C72 193.078 106.922 228 150 228C193.078 228 228 193.078 228 150ZM227.45 150C227.45 192.774 192.775 227.45 150 227.45C107.226 227.45 72.5501 192.774 72.5501 150C72.5501 107.226 107.226 72.5502 150 72.5502C192.775 72.5502 227.45 107.226 227.45 150ZM225.6 150C225.6 108.247 191.754 74.3994 150 74.3994C108.247 74.3994 74.3993 108.247 74.3993 150C74.3993 191.753 108.247 225.6 150 225.6C191.754 225.6 225.6 191.753 225.6 150ZM110.873 192.611L97.724 203.08C111.175 216.327 129.633 224.5 150 224.5H150.034L147.116 207.78C133.164 207.094 120.511 201.466 110.873 192.611ZM189.245 192.503C179.609 201.405 166.936 207.072 152.952 207.776L150.034 224.5C170.444 224.49 188.933 216.274 202.382 202.976L189.245 192.503ZM159.974 213.747L159.717 213.768C159.491 213.174 159.172 212.718 158.76 212.399C158.348 212.079 157.87 211.942 157.323 211.986C157.054 212.008 156.813 212.081 156.599 212.208C156.385 212.334 156.221 212.502 156.108 212.714C155.994 212.925 155.947 213.16 155.968 213.42C155.981 213.57 156.018 213.716 156.081 213.856C156.143 213.998 156.279 214.167 156.491 214.363C156.702 214.558 157.015 214.768 157.433 214.991C157.901 215.234 158.187 215.387 158.29 215.455C158.872 215.758 159.353 216.045 159.73 216.316C160.107 216.588 160.402 216.89 160.615 217.223C160.829 217.555 160.953 217.942 160.989 218.383C161.021 218.789 160.973 219.165 160.844 219.509C160.714 219.855 160.514 220.162 160.246 220.43C159.977 220.698 159.648 220.915 159.261 221.082C158.873 221.248 158.445 221.352 157.978 221.388C157.497 221.428 156.935 221.383 156.29 221.252C156.218 221.241 156.128 221.228 156.017 221.215C155.908 221.201 155.811 221.198 155.727 221.205C155.52 221.221 155.379 221.343 155.304 221.566L155.073 221.584L154.91 218.829L155.168 218.807C155.293 219.321 155.508 219.742 155.811 220.067C156.115 220.393 156.447 220.62 156.808 220.749C157.169 220.876 157.517 220.928 157.852 220.901C158.341 220.861 158.734 220.691 159.032 220.391C159.329 220.092 159.462 219.748 159.43 219.355C159.409 219.091 159.323 218.865 159.172 218.681C159.022 218.495 158.804 218.317 158.521 218.148C158.236 217.978 157.702 217.684 156.919 217.269C156.506 217.045 156.152 216.826 155.858 216.609C155.563 216.394 155.329 216.184 155.158 215.978C154.985 215.772 154.859 215.563 154.778 215.35C154.696 215.137 154.646 214.906 154.625 214.659C154.586 214.184 154.671 213.704 154.878 213.222C155.084 212.739 155.401 212.334 155.827 212.004C156.253 211.674 156.755 211.486 157.332 211.439C157.6 211.418 157.86 211.424 158.112 211.457C158.179 211.46 158.268 211.472 158.381 211.491C158.493 211.511 158.587 211.527 158.665 211.538C158.861 211.558 159.008 211.564 159.105 211.556C159.255 211.544 159.357 211.511 159.413 211.457C159.469 211.404 159.519 211.329 159.564 211.232L159.769 211.216L159.974 213.747ZM161.351 211.033L161.318 210.858L165.802 210.021L165.837 210.208C165.34 210.301 165.041 210.474 164.939 210.728C164.836 210.982 164.82 211.295 164.889 211.666L166.14 218.366C166.18 218.578 166.235 218.763 166.305 218.925C166.376 219.085 166.506 219.219 166.699 219.324C166.89 219.43 167.157 219.45 167.497 219.386L167.55 219.376L167.585 219.565L163.101 220.403L163.066 220.214C163.558 220.122 163.857 219.95 163.962 219.698C164.067 219.447 164.084 219.134 164.015 218.762L162.763 212.063C162.682 211.622 162.526 211.322 162.297 211.161C162.068 211.001 161.753 210.958 161.351 211.033ZM177.912 205.334L177.981 205.505C177.759 205.614 177.583 205.719 177.452 205.819C177.321 205.92 177.235 206.065 177.197 206.253C177.158 206.441 177.212 206.674 177.357 206.955L180.205 212.607C180.406 213.003 180.587 213.282 180.747 213.444C180.906 213.607 181.06 213.696 181.208 213.715C181.355 213.733 181.571 213.72 181.854 213.673L181.924 213.844L177.928 215.463L177.859 215.292C178.19 215.148 178.417 214.953 178.54 214.706C178.663 214.459 178.603 214.093 178.36 213.609L175.689 208.237L175.665 208.246L175.652 216.385L175.446 216.469L169.776 210.901L169.753 210.91L171.334 215.919C171.489 216.412 171.67 216.762 171.879 216.975C172.088 217.185 172.296 217.294 172.503 217.3C172.709 217.305 172.932 217.269 173.171 217.191L173.241 217.362L170.285 218.559L170.215 218.388C170.58 218.213 170.802 217.948 170.881 217.595C170.961 217.242 170.904 216.731 170.711 216.06L169.065 210.315C168.46 209.876 167.82 209.736 167.146 209.895L167.077 209.723L170.222 208.449L175.06 213.157L175.075 206.483L177.912 205.334ZM188.469 210.147L183.515 213.111L183.418 212.949C183.849 212.69 184.07 212.428 184.076 212.16C184.084 211.894 183.991 211.6 183.8 211.28L180.344 205.503C180.168 205.209 179.962 204.991 179.729 204.848C179.494 204.705 179.17 204.757 178.756 205.005L178.689 205.045L178.593 204.883L182.882 202.316C183.452 201.975 183.964 201.758 184.419 201.663C184.653 201.624 184.916 201.611 185.207 201.624C185.497 201.637 185.804 201.717 186.127 201.862C186.449 202.008 186.713 202.252 186.918 202.595C187.179 203.031 187.263 203.458 187.173 203.877C187.082 204.295 186.915 204.652 186.675 204.947C186.435 205.243 186.188 205.505 185.935 205.732L185.948 205.754C186.196 205.636 186.486 205.523 186.819 205.415C187.151 205.307 187.499 205.247 187.861 205.231C188.224 205.217 188.587 205.294 188.952 205.463C189.316 205.632 189.627 205.932 189.886 206.364C190.157 206.819 190.275 207.279 190.237 207.743C190.199 208.209 190.041 208.648 189.762 209.062C189.6 209.306 189.419 209.503 189.221 209.652C189.022 209.802 188.772 209.967 188.469 210.147ZM184.593 207.027L183.968 207.402L185.541 210.033C185.78 210.431 186.029 210.625 186.291 210.612C186.551 210.601 186.835 210.503 187.14 210.32C187.341 210.2 187.523 210.074 187.686 209.94C187.849 209.808 187.995 209.632 188.123 209.415C188.249 209.196 188.307 208.928 188.294 208.61C188.28 208.292 188.151 207.928 187.906 207.518C187.633 207.064 187.32 206.761 186.965 206.61C186.608 206.459 186.231 206.427 185.833 206.513C185.435 206.6 185.021 206.772 184.593 207.027ZM189.595 198.23L196.759 201.982C197.132 202.17 197.447 202.247 197.702 202.215C197.957 202.183 198.218 202.084 198.487 201.919L198.599 202.047L195.489 204.764L195.376 204.635C195.78 204.24 195.876 203.921 195.663 203.677C195.629 203.638 195.576 203.59 195.501 203.532C195.427 203.474 195.344 203.415 195.253 203.356C195.162 203.296 195.106 203.261 195.084 203.247L193.318 202.331L191.357 204.044L192.06 205.794C192.141 206.006 192.238 206.177 192.353 206.308C192.529 206.511 192.707 206.595 192.887 206.561C193.067 206.527 193.249 206.45 193.434 206.331L193.546 206.461L191.577 208.18L191.463 208.051C191.65 207.851 191.758 207.588 191.787 207.262C191.816 206.935 191.714 206.471 191.481 205.868L188.744 198.974L189.595 198.23ZM182.286 203.296L181.715 203.637L183.694 206.944L184.263 206.602C184.688 206.348 185.037 206.002 185.31 205.563C185.584 205.124 185.504 204.543 185.072 203.821C184.753 203.288 184.335 202.969 183.817 202.864C183.633 202.818 183.427 202.821 183.2 202.873C182.973 202.925 182.668 203.066 182.286 203.296ZM206.75 150C206.75 181.342 181.342 206.75 150 206.75C118.658 206.75 93.2503 181.342 93.2503 150C93.2503 118.658 118.658 93.2502 150 93.2502C181.342 93.2502 206.75 118.658 206.75 150ZM149.086 206.047C148.843 206.043 148.636 205.951 148.464 205.771C148.292 205.592 148.208 205.381 148.212 205.137C148.217 204.894 148.307 204.689 148.484 204.522C148.661 204.355 148.872 204.273 149.118 204.278C149.373 204.283 149.583 204.369 149.745 204.537C149.907 204.705 149.986 204.916 149.982 205.173C149.977 205.421 149.888 205.629 149.714 205.799C149.539 205.969 149.33 206.051 149.086 206.047ZM152.145 206.019C151.901 206.028 151.689 205.948 151.508 205.778C151.327 205.608 151.232 205.401 151.223 205.158C151.214 204.914 151.294 204.705 151.462 204.529C151.629 204.353 151.836 204.26 152.081 204.251C152.337 204.242 152.55 204.317 152.721 204.476C152.892 204.635 152.982 204.843 152.991 205.098C153 205.346 152.922 205.56 152.757 205.738C152.592 205.916 152.388 206.01 152.145 206.019ZM146.029 205.91C145.786 205.893 145.583 205.79 145.422 205.602C145.259 205.413 145.187 205.198 145.205 204.955C145.222 204.712 145.324 204.512 145.51 204.355C145.695 204.198 145.91 204.128 146.156 204.146C146.411 204.164 146.615 204.261 146.768 204.438C146.92 204.614 146.988 204.831 146.969 205.085C146.951 205.333 146.851 205.537 146.668 205.697C146.485 205.857 146.271 205.928 146.029 205.91ZM155.199 205.827C154.957 205.849 154.741 205.779 154.55 205.62C154.36 205.46 154.254 205.258 154.232 205.016C154.21 204.774 154.279 204.56 154.436 204.375C154.594 204.19 154.795 204.087 155.04 204.065C155.295 204.042 155.512 204.104 155.691 204.254C155.871 204.404 155.972 204.606 155.995 204.861C156.017 205.109 155.951 205.326 155.796 205.513C155.64 205.7 155.442 205.804 155.199 205.827ZM142.982 205.608C142.741 205.577 142.544 205.464 142.392 205.266C142.241 205.07 142.181 204.85 142.211 204.609C142.242 204.368 142.354 204.173 142.548 204.026C142.742 203.88 142.961 203.822 143.204 203.853C143.458 203.885 143.657 203.994 143.8 204.178C143.943 204.363 143.999 204.582 143.966 204.836C143.934 205.081 143.823 205.279 143.632 205.429C143.44 205.579 143.223 205.639 142.982 205.608ZM158.241 205.468C158 205.503 157.781 205.446 157.582 205.297C157.383 205.147 157.266 204.953 157.231 204.712C157.196 204.471 157.252 204.254 157.4 204.06C157.548 203.867 157.743 203.753 157.986 203.718C158.239 203.681 158.459 203.732 158.647 203.871C158.834 204.011 158.946 204.207 158.983 204.46C159.018 204.706 158.964 204.927 158.82 205.122C158.674 205.318 158.482 205.433 158.241 205.468ZM139.958 205.14C139.719 205.097 139.529 204.972 139.388 204.767C139.247 204.562 139.199 204.34 139.243 204.101C139.287 203.862 139.41 203.673 139.611 203.537C139.812 203.401 140.034 203.356 140.277 203.4C140.527 203.446 140.72 203.565 140.852 203.757C140.986 203.949 141.029 204.171 140.983 204.423C140.938 204.667 140.816 204.859 140.617 204.998C140.416 205.136 140.197 205.184 139.958 205.14ZM161.252 204.945C161.014 204.993 160.792 204.948 160.585 204.809C160.379 204.671 160.252 204.483 160.203 204.245C160.155 204.006 160.199 203.786 160.335 203.586C160.473 203.384 160.661 203.259 160.902 203.211C161.153 203.16 161.376 203.199 161.571 203.328C161.765 203.458 161.887 203.648 161.938 203.898C161.987 204.141 161.945 204.365 161.811 204.568C161.677 204.771 161.491 204.897 161.252 204.945ZM136.962 204.507C136.726 204.45 136.543 204.316 136.414 204.103C136.285 203.89 136.249 203.666 136.306 203.43C136.363 203.193 136.496 203.012 136.704 202.888C136.913 202.763 137.137 202.729 137.376 202.787C137.625 202.846 137.81 202.976 137.932 203.176C138.054 203.374 138.085 203.598 138.025 203.847C137.967 204.088 137.835 204.273 137.627 204.401C137.421 204.529 137.199 204.564 136.962 204.507ZM164.239 204.256C164.003 204.317 163.778 204.284 163.565 204.157C163.351 204.031 163.213 203.85 163.152 203.615C163.091 203.379 163.123 203.157 163.249 202.949C163.374 202.741 163.556 202.605 163.793 202.543C164.041 202.479 164.265 202.505 164.467 202.624C164.668 202.743 164.801 202.925 164.865 203.173C164.928 203.413 164.898 203.638 164.776 203.849C164.653 204.059 164.474 204.194 164.239 204.256ZM203.76 150C203.76 120.309 179.691 96.2403 150 96.2403C120.309 96.2403 96.2403 120.309 96.2403 150C96.2403 179.691 120.309 203.76 150 203.76C179.691 203.76 203.76 179.691 203.76 150ZM134.007 203.71C133.774 203.64 133.599 203.496 133.482 203.277C133.364 203.057 133.341 202.831 133.411 202.598C133.481 202.365 133.623 202.192 133.838 202.078C134.054 201.966 134.279 201.944 134.515 202.015C134.76 202.088 134.938 202.228 135.048 202.433C135.159 202.639 135.178 202.864 135.105 203.109C135.033 203.347 134.891 203.524 134.677 203.64C134.464 203.757 134.24 203.78 134.007 203.71ZM191.128 203.475L192.763 202.047L189.986 200.575L191.128 203.475ZM167.182 203.403C166.95 203.477 166.724 203.456 166.504 203.342C166.283 203.227 166.136 203.054 166.062 202.822C165.988 202.591 166.008 202.367 166.122 202.152C166.235 201.937 166.409 201.792 166.643 201.717C166.887 201.639 167.112 201.654 167.32 201.761C167.528 201.868 167.67 202.043 167.748 202.287C167.824 202.523 167.806 202.75 167.696 202.966C167.585 203.183 167.414 203.328 167.182 203.403ZM203.21 150C203.21 179.387 179.387 203.209 150 203.209C120.613 203.209 96.7904 179.387 96.7904 150C96.7904 120.613 120.613 96.7904 150 96.7904C179.387 96.7904 203.21 120.613 203.21 150ZM75.4996 149.881L75.4995 150C75.4995 170.766 83.9959 189.547 97.7003 203.057L108.146 189.936C98.8355 180.18 92.9016 167.177 92.2165 152.799L75.4996 149.881ZM224.5 149.881L207.784 152.799C207.101 167.116 201.215 180.069 191.975 189.808L202.432 202.926C216.059 189.429 224.5 170.7 224.5 150V149.881ZM131.104 202.753C130.875 202.671 130.708 202.517 130.603 202.292C130.498 202.067 130.487 201.839 130.569 201.61C130.652 201.381 130.804 201.216 131.025 201.115C131.246 201.014 131.473 201.005 131.704 201.089C131.944 201.175 132.114 201.325 132.214 201.536C132.313 201.747 132.319 201.973 132.233 202.214C132.148 202.447 131.997 202.616 131.777 202.721C131.557 202.825 131.333 202.836 131.104 202.753ZM150.025 196.695C149.721 196.521 148.383 195.46 148.038 194.361C147.66 193.159 147.523 192.913 147.523 192.913L146.945 194.339C146.945 194.339 146.433 194.272 145.855 193.047C145.277 191.822 145.343 192.179 145.343 192.179L144.21 193.27C144.21 193.27 144.032 193.693 143.32 191.934L142.609 190.175L141.208 191.733C141.208 191.733 140.919 191.937 139.896 189.82C138.873 187.702 138.985 187.502 138.985 187.502L137.45 189.596C137.45 189.596 136.872 189.417 135.938 187.391C135.004 185.364 134.404 183.137 134.404 183.137L134.455 183.154C133.989 182.19 133.48 180.891 133.577 179.971C133.749 178.331 133.864 177.294 133.461 176.747C133.314 176.547 133.188 176.152 133.023 175.577C133.018 176.174 132.988 178.603 133.489 182.954C133.893 186.466 133.121 188.125 131.913 189.743C131.927 189.871 131.945 190 131.969 190.134C132.184 191.34 133.566 192.208 133.566 192.208L135.831 190.586C135.831 190.586 135.832 190.586 136.049 192.057C136.267 193.527 136.82 194.132 136.82 194.132L138.379 190.134C138.379 190.134 138.921 191.416 139.426 193.565C139.93 195.715 141.27 196.168 141.27 196.168L141.477 194.998L142.838 196.722L144.963 193.98C144.963 193.98 145.488 194.998 146.518 196.946C147.548 198.894 148.72 199.185 148.72 199.185L150.314 198.175L151.715 199.185C151.715 199.185 152.791 198.894 153.821 196.946C154.851 194.998 155.328 193.98 155.328 193.98L157.429 196.722L158.779 194.998L158.979 196.168C158.979 196.168 160.317 195.715 160.821 193.565C161.325 191.416 161.866 190.134 161.866 190.134L163.424 194.132C163.424 194.132 163.976 193.527 164.194 192.057C164.413 190.586 164.412 190.586 164.412 190.586L166.678 192.208C166.678 192.208 168.059 191.34 168.275 190.134C168.333 189.806 168.36 189.491 168.37 189.205C167.388 187.738 166.816 186.08 167.176 182.954C167.754 177.935 167.684 175.334 167.684 175.334C167.684 175.334 169.215 177.781 169.351 180.693C169.489 183.605 174.796 187.958 174.796 187.958L174.701 183.652L176.118 185.901C176.118 185.901 176.72 185.539 176.72 181.937V178.392C176.72 178.392 177.661 181.564 180.261 183.652C182.863 185.739 182.445 184.939 182.445 184.939C182.445 184.939 181.003 183.271 180.002 180.002C179.001 176.734 179.014 175.8 179.014 175.8C179.014 175.8 181.999 179.87 184.811 180.67C187.624 181.47 188.228 181.404 188.228 181.404C188.228 181.404 187.085 179.416 185.722 177.075C185.269 176.296 184.966 175.82 184.763 175.53C185.182 175.84 185.979 176.246 187.43 176.448C189.964 176.801 191.706 176.292 191.706 176.292C191.706 176.292 189.933 175.6 188.581 174.267L187.23 172.933C187.23 172.933 190.145 172.958 192.956 171.711L195.768 170.465C195.768 170.465 192.566 169.998 190.899 168.531C189.333 167.152 189.107 167.102 189.085 167.101H189.083H189.084H189.085C189.177 167.098 192.458 166.988 194.234 166.396C196.035 165.796 197.035 164.662 197.035 164.662C197.035 164.662 195.22 163.972 193.826 159.948C192.433 155.924 191.706 154.058 191.706 154.058C191.706 154.058 193.612 154.094 195.79 155.509C197.969 156.925 199.073 157.81 199.073 157.81C199.073 157.81 200.987 152.525 197.177 149.856C193.366 147.187 189.698 145.186 189.698 145.186L196.835 146.319C196.835 146.319 195.439 141.723 193.102 140.553C190.765 139.383 189.498 139.355 189.498 139.355C189.498 139.355 190.277 137.547 191.855 136.33L193.434 135.114C193.434 135.114 191.833 136.22 188.098 133.8C184.362 131.379 182.651 126.364 182.651 126.364C182.651 126.364 186.76 129.502 188.293 128.821C189.827 128.139 191.075 126.217 193.69 125.982C195.771 125.795 197.2 127.225 197.7 127.819C197.437 127.612 196.847 127.417 195.571 127.843C193.527 128.524 192.505 130.795 191.142 131.988C189.779 133.18 189.78 133.18 189.78 133.18C189.78 133.18 192.392 133.464 194.891 132.044C196.805 130.956 198.575 131.859 199.298 132.341C199.029 132.228 198.593 132.191 197.958 132.555C196.765 133.236 195.98 134.493 195.98 134.493C195.98 134.493 196.709 133.506 198.469 134.223C200.229 134.94 200.652 136.33 200.652 136.33C200.652 136.33 199.889 135.678 198.241 136.132C197.053 136.46 196.104 136.996 195.666 137.269C195.998 137.119 196.709 136.943 198.147 137.068C200.419 137.265 201.787 139.768 201.83 139.85C201.789 139.778 201.407 139.236 199.876 140.098C198.469 140.888 197.547 141.462 197.177 141.606C197.716 141.517 199.574 141.336 200.632 141.957C201.933 142.72 202.568 144.774 202.568 144.774C202.568 144.774 202.332 144.459 200.429 144.186C198.525 143.913 197.844 144.651 197.844 144.651C197.844 144.651 199.889 145.332 201.138 147.263C202.387 149.194 202.913 152.772 202.282 154.873C201.796 156.484 201.583 157.133 201.51 157.348C201.568 157.15 201.656 156.655 201.318 156.072C200.88 155.316 200.157 154.935 200.157 154.935C200.157 154.935 201.355 156.375 201.463 158.751C201.571 161.128 200.632 162.662 200.632 162.662C200.632 162.662 200.966 161.582 199.778 160.177C198.589 158.773 197.53 158.708 197.53 158.708C197.53 158.708 198.849 159.378 199.194 160.955C199.54 162.533 199.367 162.965 199.367 162.965C199.367 162.965 199.259 161.625 198.352 161.063C197.444 160.501 197.271 160.674 197.271 160.674C197.271 160.674 197.056 160.807 197.913 162.267C198.77 163.728 200.157 164.361 200.157 164.361C200.157 164.361 199.596 166.538 197.382 167.101L195.167 167.663C195.167 167.663 195.301 168.931 196.969 168.531C198.636 168.13 199.303 167.73 199.303 167.73C199.303 167.73 199.948 171.418 196.924 172.509C193.9 173.599 192.012 173.625 192.012 173.625C192.012 173.625 192.219 174.93 193.826 174.598C195.435 174.267 196.095 173.948 196.095 173.948C196.095 173.948 196.864 175.934 193.715 177.001C190.565 178.068 189.432 177.601 189.432 177.601C189.432 177.601 190.365 178.935 191.432 179.002C192.499 179.069 193.145 178.868 193.145 178.868C193.145 178.868 192.966 180.47 190.099 182.07C187.23 183.671 185.362 183.652 185.362 183.652L188.581 184.644C188.581 184.644 187.461 187.736 183.71 188.038C179.96 188.34 177.625 187.006 177.625 187.006C177.625 187.006 178.132 188.419 180.2 189.444L182.268 190.468C182.268 190.468 181.142 192.709 176.982 192.459C175.032 192.341 174.026 191.913 173.507 191.49C173.737 192.023 173.952 192.768 173.957 193.704C173.968 195.723 171.948 196.946 171.948 196.946C171.948 196.946 172.556 194.682 170.489 191.944C170.065 191.383 169.651 190.885 169.267 190.405C169.324 190.934 169.314 191.538 169.185 192.212C168.663 194.934 167.521 195.781 167.521 195.781L166.473 193.9C166.473 193.9 166.596 194.883 166.061 196.089C165.525 197.297 164.195 198.807 164.195 198.807L162.064 196.016C162.064 196.016 162.064 197.638 160.458 199.222C158.851 200.806 157.41 201.636 157.41 201.636C157.41 201.636 156.773 199.826 156.35 199.223L155.927 198.619C155.927 198.619 154.943 200.279 153.377 201.447C151.813 202.617 150.314 202.777 150.314 202.777C150.314 202.777 148.623 202.617 147.058 201.447C145.492 200.279 144.317 198.619 144.317 198.619L143.894 199.223C143.47 199.826 142.833 201.636 142.833 201.636C142.833 201.636 141.392 200.806 139.785 199.222C138.179 197.638 138.179 196.016 138.179 196.016L136.049 198.807C136.049 198.807 134.718 197.297 134.183 196.089C133.647 194.883 133.77 193.9 133.77 193.9L132.722 195.781C132.722 195.781 131.58 194.934 131.058 192.212C130.973 191.764 130.943 191.35 130.947 190.964C130.697 191.274 130.439 191.597 130.176 191.944C128.109 194.682 128.716 196.946 128.716 196.946C128.716 196.946 126.697 195.723 126.708 193.704C126.713 192.768 126.928 192.023 127.158 191.49C126.639 191.913 125.633 192.341 123.682 192.459C119.522 192.709 118.397 190.468 118.397 190.468L120.465 189.444C122.532 188.419 123.039 187.006 123.039 187.006C123.039 187.006 120.705 188.34 116.954 188.038C113.204 187.736 112.083 184.644 112.083 184.644L115.302 183.652C115.302 183.652 113.434 183.671 110.566 182.07C107.698 180.47 107.519 178.868 107.519 178.868C107.519 178.868 108.165 179.069 109.233 179.002C110.299 178.935 111.233 177.601 111.233 177.601C111.233 177.601 110.099 178.068 106.95 177.001C103.8 175.934 104.57 173.948 104.57 173.948C104.57 173.948 105.23 174.267 106.838 174.598C108.446 174.93 108.653 173.625 108.653 173.625C108.653 173.625 106.765 173.599 103.741 172.509C100.717 171.418 101.362 167.73 101.362 167.73C101.362 167.73 102.029 168.13 103.696 168.531C105.364 168.931 105.497 167.663 105.497 167.663L103.283 167.101C101.069 166.538 100.507 164.361 100.507 164.361C100.507 164.361 101.895 163.728 102.752 162.267C103.609 160.807 103.394 160.674 103.394 160.674C103.394 160.674 103.221 160.501 102.313 161.063C101.406 161.625 101.298 162.965 101.298 162.965C101.298 162.965 101.125 162.533 101.471 160.955C101.816 159.378 103.134 158.708 103.134 158.708C103.134 158.708 102.076 158.773 100.887 160.177C99.6988 161.582 100.033 162.662 100.033 162.662C100.033 162.662 99.0937 161.128 99.2017 158.751C99.3098 156.375 100.507 154.935 100.507 154.935C100.507 154.935 99.7852 155.316 99.3467 156.072C99.0088 156.655 99.0966 157.15 99.1549 157.348C99.0815 157.133 98.868 156.484 98.3831 154.873C97.7511 152.772 98.2772 149.194 99.5268 147.263C100.776 145.332 102.82 144.651 102.82 144.651C102.82 144.651 102.139 143.913 100.236 144.186C98.3319 144.459 98.0965 144.774 98.0965 144.774C98.0965 144.774 98.7316 142.72 100.033 141.957C101.091 141.336 102.949 141.517 103.487 141.606C103.118 141.462 102.195 140.888 100.789 140.098C99.2576 139.236 98.8762 139.778 98.8341 139.85C98.8782 139.768 100.246 137.265 102.518 137.068C103.955 136.943 104.666 137.119 104.999 137.269C104.561 136.996 103.612 136.46 102.423 136.132C100.776 135.678 100.012 136.33 100.012 136.33C100.012 136.33 100.435 134.94 102.196 134.223C103.956 133.506 104.685 134.493 104.685 134.493C104.685 134.493 103.9 133.236 102.707 132.555C102.071 132.191 101.636 132.228 101.366 132.341C102.09 131.859 103.86 130.956 105.774 132.044C108.273 133.464 110.885 133.18 110.885 133.18C110.885 133.18 110.885 133.18 109.522 131.988C108.16 130.795 107.138 128.524 105.094 127.843C103.817 127.417 103.228 127.612 102.965 127.819C103.464 127.225 104.894 125.795 106.975 125.982C109.59 126.217 110.838 128.139 112.372 128.821C113.905 129.502 118.014 126.364 118.014 126.364C118.014 126.364 116.302 131.379 112.567 133.8C108.832 136.22 107.231 135.114 107.231 135.114L108.809 136.33C110.387 137.547 111.167 139.355 111.167 139.355C111.167 139.355 109.899 139.383 107.563 140.553C105.226 141.723 103.83 146.319 103.83 146.319L110.967 145.186C110.967 145.186 107.298 147.187 103.488 149.856C99.6775 152.525 101.591 157.81 101.591 157.81C101.591 157.81 102.696 156.925 104.874 155.509C107.053 154.094 108.959 154.058 108.959 154.058C108.959 154.058 108.232 155.924 106.838 159.948C105.445 163.972 103.63 164.662 103.63 164.662C103.63 164.662 104.63 165.796 106.431 166.396C108.207 166.988 111.488 167.098 111.58 167.101H111.581C111.581 167.101 111.581 167.101 111.582 167.101H111.58C111.558 167.102 111.332 167.152 109.766 168.531C108.098 169.998 104.897 170.465 104.897 170.465L107.709 171.711C110.52 172.958 113.434 172.933 113.434 172.933C113.434 172.933 113.435 172.933 112.083 174.267C110.732 175.6 108.959 176.292 108.959 176.292C108.959 176.292 110.7 176.801 113.235 176.448C114.685 176.246 115.483 175.841 115.902 175.53C115.698 175.82 115.395 176.296 114.942 177.075C113.58 179.416 112.436 181.404 112.436 181.404C112.436 181.404 113.039 181.47 115.852 180.67C118.665 179.87 121.649 175.8 121.649 175.8C121.649 175.8 121.658 176.734 120.658 180.002C119.657 183.271 118.21 184.939 118.21 184.939C118.21 184.939 117.783 185.739 120.384 183.652C122.986 181.564 123.907 178.392 123.907 178.392V181.937C123.907 185.539 124.528 185.901 124.528 185.901L125.964 183.652L125.869 187.958C125.869 187.958 131.177 183.605 131.314 180.693C131.44 178.005 132.75 175.719 132.952 175.381C132.675 174.4 132.416 173.229 132.31 172.914C132.299 172.883 132.293 172.857 132.284 172.828C132.058 172.412 131.89 171.995 131.795 171.61C131.487 170.353 132.02 168.76 132.02 168.08C132.02 167.4 131.726 165.658 131.81 165.197C131.894 164.736 132.481 163.269 132.984 162.64C133.487 162.011 134.242 159.622 134.242 159.622C134.242 159.622 134.451 160.88 133.99 161.676C133.529 162.472 133.278 163.604 133.253 164.442C133.227 165.281 133.487 166.035 133.319 166.773C133.15 167.51 133.361 170.227 133.319 171.275C133.278 172.323 135.08 175.509 139.397 176.389C143.715 177.269 148.158 173.999 148.888 172.905C149.158 172.5 149.351 171.829 149.488 171.143V171.056C149.453 171.082 149.345 171.017 149.264 170.9C149.26 170.901 149.214 170.903 149.214 170.903V170.886C149.214 170.666 148.915 170.285 148.795 169.993C148.589 169.494 143.932 165.237 143.022 164.52C142.112 163.803 139.088 162.154 138.941 161.626C138.795 161.097 139.558 158.161 139.822 157.897C139.845 157.875 139.866 157.859 139.885 157.848C139.857 157.773 139.83 157.694 139.8 157.606C139.715 157.358 139.499 156.859 139.23 156.485C138.961 156.218 138.777 155.966 138.796 155.759C138.876 154.876 138.474 154.313 137.992 152.547C137.511 150.781 137.831 151.424 138.474 149.897C139.117 148.372 138.876 148.051 139.117 146.765C139.358 145.481 138.314 145.882 138.474 144.116C138.635 142.348 136.306 142.83 135.744 142.83C135.183 142.83 133.415 142.268 133.415 142.268L133.459 142.152C133.063 141.984 132.71 141.724 132.467 141.327C131.701 140.073 130.548 138.487 130.685 137.731C129.292 137.003 128.519 135.729 129.24 136.187C130.284 136.852 131.087 136.407 133.014 136.247C134.828 136.096 136.148 136.234 137.769 136.717C138.155 136.701 138.541 136.69 138.908 136.633C139.564 136.531 142.05 136.351 141.235 137.591L140.83 137.555C140.831 137.842 140.506 138.197 140.409 138.396C140.242 138.739 140.255 139.122 140.263 139.503C140.316 139.586 140.369 139.668 140.43 139.757C141.743 141.663 140.43 144.116 140.43 144.116C140.43 144.116 140.241 145.963 140.401 147.409C140.562 148.854 140.001 148.933 139.558 149.897C139.117 150.86 138.715 152.226 138.715 152.226L139.278 154.313C139.278 154.313 139.278 155.485 139.56 156.744C140.457 157.51 141.531 158.461 140.401 158.65C140.401 158.65 140.35 158.957 140.061 158.295C140.053 158.351 140.042 158.407 140.028 158.455C139.94 158.749 139.47 160.98 140.028 161.714C140.586 162.447 143.375 163.857 144.432 164.238C145.488 164.621 146.105 164.503 146.105 164.503C146.105 164.503 145.107 163.505 143.668 162.888C142.229 162.272 141.173 162.125 140.615 161.567C140.057 161.01 141.056 160.363 141.906 159.659C142.758 158.954 144.373 159.394 144.784 159.512C145.144 159.615 148.659 160.551 149.623 160.782C150.587 160.551 154.102 159.615 154.461 159.512C154.873 159.394 156.487 158.954 157.338 159.659C158.19 160.363 159.189 161.01 158.631 161.567C158.073 162.125 157.015 162.272 155.577 162.888C154.139 163.505 153.14 164.503 153.14 164.503C153.14 164.503 153.757 164.621 154.814 164.238C155.871 163.857 158.66 162.447 159.218 161.714C159.776 160.98 159.306 158.749 159.218 158.455C159.203 158.407 159.193 158.353 159.185 158.297C158.897 158.956 158.845 158.65 158.845 158.65C157.581 158.439 158.703 157.64 159.601 156.866C159.921 156.08 159.969 154.313 159.969 154.313L160.532 152.226C160.532 152.226 160.13 150.86 159.688 149.897C159.246 148.933 158.685 148.854 158.845 147.409C159.005 145.963 158.817 144.116 158.817 144.116C158.817 144.116 157.504 141.663 158.817 139.757C158.95 139.563 159.059 139.387 159.155 139.221C159.154 138.935 159.131 138.654 159.005 138.396C158.91 138.201 158.597 137.857 158.585 137.573L158.388 137.591C157.572 136.351 160.058 136.531 160.714 136.633C160.978 136.674 161.252 136.69 161.528 136.703C163.127 136.231 164.437 136.097 166.232 136.247C168.16 136.407 168.963 136.852 170.007 136.187C170.728 135.729 169.955 137.003 168.561 137.731C168.699 138.487 167.545 140.073 166.779 141.327C166.536 141.724 166.184 141.984 165.788 142.152L165.831 142.268C165.831 142.268 164.064 142.83 163.503 142.83C162.941 142.83 160.612 142.348 160.772 144.116C160.933 145.882 159.889 145.481 160.129 146.765C160.371 148.051 160.13 148.372 160.772 149.897C161.415 151.424 161.736 150.781 161.254 152.547C160.772 154.313 160.371 154.876 160.451 155.759C160.467 155.94 159.865 156.962 159.52 157.383C159.498 157.458 159.474 157.532 159.449 157.606C159.418 157.694 159.391 157.773 159.364 157.848C159.383 157.86 159.407 157.875 159.428 157.897C159.693 158.161 160.461 161.097 160.315 161.626C160.168 162.154 157.155 163.803 156.245 164.52C155.335 165.237 150.659 169.494 150.454 169.993C150.334 170.285 150.039 170.666 150.039 170.886V170.903C150.039 170.903 149.989 170.901 149.984 170.9C149.958 170.938 149.889 170.971 149.867 170.997C150.005 171.733 150.207 172.472 150.496 172.905C151.225 173.999 155.668 177.269 159.986 176.389C164.303 175.509 166.106 172.323 166.064 171.275C166.022 170.227 166.233 167.51 166.064 166.773C165.896 166.035 166.156 165.281 166.131 164.442C166.106 163.604 165.854 162.472 165.393 161.676C164.932 160.88 165.141 159.622 165.141 159.622C165.141 159.622 165.896 162.011 166.399 162.64C166.903 163.269 167.489 164.736 167.573 165.197C167.657 165.658 167.363 167.4 167.363 168.08C167.363 168.76 167.896 170.353 167.588 171.61C167.505 171.947 167.365 172.308 167.181 172.672C167.163 172.745 167.142 172.823 167.112 172.914C166.94 173.426 166.363 176.2 165.96 176.747C165.557 177.294 165.672 178.331 165.844 179.971C165.941 180.887 165.437 182.178 164.972 183.141L164.984 183.137C164.984 183.137 164.407 185.364 163.51 187.391C162.613 189.417 162.058 189.596 162.058 189.596L160.583 187.502C160.583 187.502 160.691 187.702 159.708 189.82C158.725 191.937 158.447 191.733 158.447 191.733L157.101 190.175L156.417 191.934C155.734 193.693 155.563 193.27 155.563 193.27L154.474 192.179C154.474 192.179 154.539 191.822 153.983 193.047C153.428 194.272 152.938 194.339 152.938 194.339L152.386 192.913C152.386 192.913 152.285 193.159 151.922 194.361C151.586 195.476 150.314 196.551 150.039 196.702V196.703L150.025 196.695ZM170.066 202.392C169.839 202.479 169.613 202.471 169.386 202.368C169.16 202.266 169.003 202.101 168.916 201.874C168.83 201.647 168.837 201.423 168.939 201.202C169.041 200.981 169.207 200.827 169.436 200.739C169.675 200.648 169.901 200.65 170.114 200.746C170.328 200.841 170.479 201.008 170.57 201.247C170.659 201.479 170.654 201.706 170.555 201.928C170.457 202.15 170.294 202.306 170.066 202.392ZM128.248 201.634C128.024 201.54 127.866 201.377 127.774 201.146C127.681 200.915 127.683 200.688 127.778 200.464C127.873 200.24 128.033 200.083 128.26 199.995C128.486 199.906 128.713 199.91 128.939 200.006C129.175 200.105 129.336 200.264 129.424 200.48C129.511 200.697 129.505 200.923 129.405 201.158C129.308 201.387 129.147 201.547 128.922 201.639C128.697 201.731 128.472 201.73 128.248 201.634ZM172.896 201.222C172.674 201.321 172.447 201.326 172.215 201.236C171.983 201.146 171.818 200.99 171.719 200.768C171.62 200.546 171.615 200.322 171.705 200.095C171.794 199.87 171.951 199.707 172.175 199.606C172.409 199.502 172.635 199.492 172.853 199.575C173.071 199.658 173.232 199.817 173.336 200.051C173.437 200.278 173.445 200.505 173.359 200.732C173.273 200.96 173.118 201.122 172.896 201.222ZM125.462 200.361C125.244 200.254 125.095 200.083 125.015 199.848C124.936 199.612 124.949 199.385 125.057 199.167C125.164 198.948 125.333 198.801 125.564 198.725C125.795 198.649 126.021 198.665 126.241 198.773C126.471 198.886 126.623 199.052 126.699 199.273C126.775 199.495 126.756 199.72 126.644 199.949C126.534 200.173 126.365 200.323 126.135 200.403C125.905 200.482 125.681 200.469 125.462 200.361ZM175.654 199.899C175.438 200.011 175.211 200.028 174.974 199.951C174.739 199.874 174.565 199.728 174.454 199.511C174.343 199.295 174.325 199.071 174.403 198.84C174.479 198.609 174.627 198.438 174.846 198.325C175.073 198.209 175.299 198.186 175.521 198.257C175.743 198.329 175.912 198.479 176.029 198.706C176.143 198.927 176.163 199.153 176.089 199.385C176.015 199.617 175.87 199.788 175.654 199.899ZM122.756 198.941C122.543 198.822 122.404 198.643 122.338 198.404C122.271 198.164 122.297 197.939 122.416 197.726C122.535 197.514 122.712 197.376 122.947 197.313C123.182 197.249 123.406 197.277 123.621 197.398C123.844 197.523 123.987 197.698 124.051 197.922C124.114 198.147 124.083 198.371 123.958 198.594C123.837 198.811 123.659 198.953 123.425 199.019C123.191 199.086 122.968 199.06 122.756 198.941ZM178.341 198.426C178.13 198.549 177.905 198.578 177.664 198.514C177.425 198.45 177.243 198.314 177.12 198.104C176.998 197.893 176.968 197.671 177.033 197.436C177.097 197.202 177.235 197.022 177.447 196.899C177.668 196.77 177.892 196.734 178.117 196.793C178.343 196.853 178.521 196.993 178.65 197.214C178.775 197.428 178.807 197.653 178.746 197.888C178.686 198.123 178.55 198.303 178.341 198.426ZM120.13 197.374C119.924 197.243 119.795 197.057 119.742 196.815C119.688 196.572 119.727 196.348 119.857 196.142C119.988 195.937 120.172 195.809 120.41 195.759C120.648 195.708 120.871 195.749 121.078 195.88C121.294 196.017 121.427 196.2 121.478 196.427C121.529 196.655 121.486 196.878 121.349 197.094C121.216 197.303 121.031 197.435 120.794 197.489C120.557 197.543 120.336 197.504 120.13 197.374ZM180.939 196.81C180.736 196.944 180.512 196.985 180.269 196.935C180.026 196.884 179.837 196.758 179.703 196.554C179.569 196.351 179.528 196.13 179.579 195.893C179.63 195.656 179.758 195.469 179.964 195.333C180.177 195.192 180.398 195.145 180.627 195.192C180.856 195.239 181.04 195.369 181.182 195.582C181.318 195.79 181.363 196.012 181.315 196.251C181.267 196.49 181.142 196.676 180.939 196.81ZM150.04 196.713C150.044 196.718 150.039 196.722 150.039 196.722L150.038 196.721C150.036 196.719 150.034 196.716 150.038 196.713L150.04 196.713ZM117.587 195.662C117.389 195.521 117.27 195.327 117.23 195.082C117.19 194.837 117.241 194.615 117.382 194.417C117.523 194.219 117.714 194.101 117.954 194.064C118.195 194.026 118.415 194.079 118.615 194.222C118.823 194.371 118.947 194.56 118.985 194.79C119.024 195.021 118.968 195.24 118.82 195.448C118.675 195.65 118.483 195.772 118.244 195.813C118.004 195.853 117.785 195.803 117.587 195.662ZM183.443 195.054C183.247 195.2 183.028 195.254 182.782 195.216C182.536 195.178 182.34 195.062 182.196 194.867C182.051 194.671 181.997 194.454 182.036 194.214C182.074 193.973 182.192 193.78 182.389 193.634C182.594 193.481 182.813 193.422 183.044 193.456C183.275 193.491 183.467 193.611 183.619 193.816C183.767 194.015 183.824 194.235 183.789 194.476C183.754 194.717 183.639 194.91 183.443 195.054ZM115.145 193.817C114.955 193.665 114.847 193.465 114.82 193.219C114.794 192.972 114.856 192.753 115.008 192.563C115.16 192.373 115.357 192.265 115.599 192.242C115.841 192.217 116.058 192.282 116.25 192.435C116.45 192.595 116.563 192.791 116.588 193.022C116.614 193.255 116.548 193.471 116.388 193.671C116.233 193.865 116.034 193.975 115.793 194.003C115.551 194.03 115.335 193.969 115.145 193.817ZM185.854 193.162C185.667 193.318 185.45 193.384 185.202 193.36C184.955 193.336 184.753 193.23 184.598 193.044C184.443 192.856 184.378 192.641 184.403 192.399C184.428 192.158 184.535 191.958 184.724 191.801C184.921 191.637 185.136 191.567 185.368 191.589C185.601 191.61 185.799 191.719 185.962 191.916C186.12 192.108 186.189 192.324 186.167 192.566C186.145 192.809 186.041 193.007 185.854 193.162ZM112.81 191.844C112.629 191.682 112.531 191.476 112.518 191.228C112.505 190.981 112.579 190.765 112.742 190.584C112.904 190.402 113.106 190.306 113.349 190.295C113.592 190.284 113.805 190.36 113.989 190.524C114.18 190.694 114.281 190.896 114.294 191.129C114.308 191.362 114.229 191.574 114.059 191.765C113.894 191.95 113.69 192.05 113.447 192.065C113.204 192.08 112.992 192.006 112.81 191.844ZM188.156 191.144C187.977 191.309 187.763 191.387 187.516 191.377C187.267 191.366 187.06 191.271 186.895 191.093C186.73 190.915 186.653 190.703 186.665 190.461C186.677 190.218 186.773 190.013 186.954 189.846C187.141 189.672 187.352 189.59 187.585 189.599C187.818 189.607 188.022 189.706 188.196 189.893C188.364 190.076 188.445 190.288 188.436 190.532C188.428 190.775 188.335 190.979 188.156 191.144ZM110.58 189.741C110.407 189.57 110.321 189.36 110.322 189.111C110.322 188.863 110.408 188.652 110.58 188.48C110.751 188.307 110.959 188.222 111.202 188.224C111.445 188.226 111.654 188.314 111.828 188.487C112.009 188.668 112.1 188.875 112.101 189.108C112.101 189.342 112.011 189.549 111.831 189.731C111.655 189.907 111.446 189.996 111.203 189.997C110.96 189.998 110.752 189.913 110.58 189.741ZM190.343 189.005C190.174 189.18 189.964 189.268 189.716 189.271C189.468 189.274 189.257 189.192 189.082 189.022C188.907 188.853 188.819 188.646 188.818 188.403C188.816 188.16 188.901 187.95 189.072 187.774C189.25 187.59 189.456 187.496 189.689 187.492C189.923 187.488 190.132 187.576 190.315 187.754C190.493 187.927 190.585 188.135 190.59 188.378C190.595 188.62 190.512 188.83 190.343 189.005ZM151.237 175.975C150.603 175.979 150.069 176.012 149.764 176.035V176.059C149.764 176.059 149.737 176.056 149.686 176.051L149.628 176.046L149.568 176.051L149.488 176.059V176.035C149.189 176.011 148.666 175.979 148.047 175.975H147.968C146.948 175.974 145.68 176.055 144.695 176.381C144.504 176.445 144.289 176.503 144.058 176.559C143.33 176.774 142.741 176.933 142.499 176.975C142.404 176.993 142.257 177 142.073 177.001H142.042C141.928 177.001 141.8 176.999 141.662 176.995L141.586 176.992C139.808 177.245 137.968 177.459 137.24 177.841C136.031 178.474 135.869 177.87 135.322 179.252C134.775 180.633 134.104 181.209 134.852 182.62C135.6 184.031 136.748 184.117 136.748 184.117L136.748 184.131L136.77 184.128C136.879 184.114 136.992 184.085 137.109 184.033C138.068 183.615 138.719 182.917 138.719 182.917L139.1 184.139L140.033 183.528C140.033 183.528 140.049 183.599 139.941 184.421C139.832 185.242 139.523 185.505 139.523 185.505L140.791 185.01L140.869 187.519L141.874 185.474L142.029 187.659L142.663 185.614L143.235 186.574L144.241 185.985L144.983 188.232L146.67 186.389L147.366 187.675L148.294 186.667L148.923 189.172L149.993 186.522L151.034 189.172L151.639 186.667L152.53 187.675L153.199 186.389L154.82 188.232L155.533 185.985L156.499 186.574L157.049 185.614L157.658 187.659L157.807 185.474L158.773 187.519L158.847 185.01L160.066 185.505L160.063 185.502C160.03 185.47 159.762 185.19 159.665 184.421C159.561 183.599 159.576 183.528 159.576 183.528L160.473 184.139L160.839 182.917L160.846 182.925C160.92 183.004 161.531 183.641 162.395 184.033C162.493 184.078 162.691 184.104 162.691 184.12V184.117C162.691 184.117 163.826 184.031 164.574 182.62C165.323 181.209 164.636 180.633 164.089 179.252C163.542 177.87 163.369 178.474 162.16 177.841C161.455 177.471 159.692 177.259 157.964 177.016L157.796 176.992C157.643 176.997 157.499 177 157.372 177.001H157.34C157.142 177.001 156.984 176.993 156.884 176.975C156.654 176.935 156.113 176.79 155.436 176.591C155.143 176.527 154.871 176.457 154.642 176.381C153.68 176.062 152.427 175.978 151.397 175.975H151.317H151.237ZM108.474 187.528C108.311 187.347 108.236 187.133 108.25 186.884C108.264 186.637 108.361 186.432 108.542 186.268C108.723 186.105 108.934 186.031 109.177 186.047C109.42 186.062 109.623 186.161 109.788 186.344C109.959 186.534 110.039 186.745 110.027 186.979C110.015 187.212 109.913 187.414 109.723 187.585C109.539 187.751 109.325 187.828 109.082 187.817C108.839 187.805 108.636 187.709 108.474 187.528ZM192.412 186.749C192.252 186.933 192.048 187.033 191.8 187.049C191.553 187.066 191.337 186.994 191.153 186.835C190.969 186.675 190.87 186.474 190.856 186.231C190.841 185.988 190.914 185.774 191.076 185.589C191.244 185.396 191.444 185.291 191.677 185.274C191.91 185.258 192.123 185.334 192.316 185.501C192.503 185.664 192.606 185.867 192.624 186.109C192.642 186.352 192.571 186.565 192.412 186.749ZM106.483 185.194C106.33 185.006 106.268 184.787 106.295 184.54C106.322 184.293 106.43 184.094 106.62 183.941C106.809 183.788 107.025 183.725 107.266 183.754C107.508 183.782 107.706 183.893 107.86 184.083C108.021 184.283 108.089 184.498 108.064 184.731C108.039 184.963 107.927 185.159 107.728 185.32C107.535 185.476 107.317 185.541 107.075 185.517C106.833 185.491 106.636 185.384 106.483 185.194ZM194.353 184.387C194.203 184.579 194.006 184.69 193.759 184.72C193.513 184.75 193.293 184.69 193.101 184.541C192.909 184.392 192.799 184.196 192.772 183.955C192.744 183.713 192.805 183.495 192.956 183.301C193.113 183.099 193.307 182.984 193.539 182.954C193.771 182.925 193.988 182.989 194.189 183.147C194.386 183.299 194.5 183.496 194.531 183.737C194.561 183.978 194.502 184.195 194.353 184.387ZM104.627 182.762C104.484 182.565 104.434 182.344 104.474 182.098C104.515 181.853 104.634 181.66 104.831 181.517C105.029 181.375 105.247 181.325 105.487 181.366C105.726 181.408 105.918 181.528 106.062 181.728C106.211 181.935 106.268 182.154 106.23 182.385C106.193 182.615 106.07 182.805 105.863 182.955C105.661 183.1 105.441 183.154 105.2 183.116C104.96 183.077 104.769 182.96 104.627 182.762ZM196.165 181.919C196.027 182.119 195.835 182.241 195.59 182.284C195.345 182.328 195.124 182.28 194.924 182.141C194.723 182.003 194.603 181.813 194.562 181.573C194.522 181.334 194.571 181.113 194.712 180.911C194.857 180.701 195.045 180.575 195.275 180.534C195.504 180.492 195.724 180.544 195.934 180.689C196.139 180.831 196.263 181.021 196.307 181.26C196.351 181.5 196.304 181.719 196.165 181.919ZM102.905 180.232C102.774 180.027 102.735 179.804 102.789 179.561C102.843 179.319 102.973 179.131 103.177 179C103.382 178.869 103.603 178.83 103.84 178.885C104.077 178.94 104.262 179.071 104.395 179.278C104.533 179.493 104.577 179.715 104.527 179.943C104.477 180.171 104.345 180.354 104.129 180.492C103.92 180.626 103.697 180.667 103.459 180.616C103.221 180.565 103.037 180.437 102.905 180.232ZM197.844 179.351C197.717 179.559 197.532 179.691 197.29 179.747C197.048 179.804 196.824 179.768 196.615 179.641C196.409 179.514 196.278 179.332 196.225 179.095C196.171 178.857 196.208 178.634 196.337 178.424C196.471 178.207 196.652 178.071 196.879 178.016C197.106 177.962 197.329 178.002 197.546 178.136C197.758 178.267 197.892 178.45 197.95 178.686C198.006 178.923 197.972 179.144 197.844 179.351ZM101.326 177.614C101.206 177.403 101.18 177.177 101.247 176.939C101.314 176.699 101.454 176.519 101.666 176.4C101.877 176.28 102.1 176.253 102.333 176.321C102.567 176.388 102.745 176.529 102.866 176.742C102.992 176.965 103.024 177.189 102.961 177.414C102.899 177.639 102.757 177.815 102.534 177.941C102.318 178.063 102.093 178.092 101.858 178.028C101.624 177.964 101.446 177.826 101.326 177.614ZM185.35 140.408C185.325 140.407 185.162 140.378 184.289 140.185C183.098 139.92 182.344 139.347 181.464 138.56C180.585 137.772 179.909 135.818 178.63 134.223C177.35 132.628 177.333 131.936 177.333 131.936C177.333 131.936 176.812 131.627 178.444 132.421C180.077 133.215 182.222 137.165 182.222 137.165V136.523L181.801 134.758C181.801 134.758 180.896 131.449 180.058 130.302C179.219 129.156 176.791 129.062 173.696 128.03C171.004 127.133 171.677 126.24 171.898 126.022C172.004 126.092 172.492 126.258 174.207 126.657C177.202 127.352 178.673 127.111 178.673 127.111C178.673 127.111 174.275 125.628 171.077 123.049C167.879 120.47 163.919 121.353 163.919 121.353L166.759 122.713L165.684 123.585C165.684 123.585 168.22 124.004 169.517 124.543C170.815 125.083 171.162 127.306 171.162 127.306L170.281 127.561C170.281 127.561 170.431 127.611 172.075 128.463C173.719 129.315 174.632 131.507 174.632 131.507L173.049 131.994L173.962 132.299C174.876 132.603 176.575 135.277 176.575 135.277L174.937 135.587L176.276 136.5C177.616 137.413 178.042 139.423 178.042 139.423L176.709 139.114C175.376 138.806 175.668 139.18 175.668 139.18L176.215 139.559C176.763 139.94 177.282 141.118 177.282 141.118L175.911 140.452C175.911 140.452 175.972 140.58 176.763 143.381C177.555 146.181 177.372 150.565 176.033 153.062C174.693 155.559 173.158 156.664 173.158 156.664L172.197 155.741C172.197 155.741 172.197 156.045 172.497 158.945C172.79 161.778 171.53 162.467 171.472 162.496C171.465 162.465 171.371 162.276 170.736 161.265C169.883 159.908 170.126 158.907 170.126 158.907C170.126 158.907 169.274 161.404 169.428 164.104C169.581 166.804 170.613 168.102 171.548 171.532C172.483 174.963 171.344 175.652 171.344 175.652C171.344 175.652 170.979 176.808 172.136 174.799C172.849 173.56 172.914 172.578 172.859 172.005C172.922 172.311 173.019 172.782 173.171 173.521C173.597 175.591 172.822 177.642 172.822 177.642C172.822 177.642 173.475 177.235 174.235 174.598C174.995 171.962 174.267 171.694 173.646 169.836C173.026 167.978 173.646 167.675 173.646 167.675C173.646 167.675 173.658 167.492 174.719 169.361C175.781 171.228 177.16 171.821 177.16 171.821C177.16 171.821 175.74 169.483 175.749 168.312C175.757 167.14 177.338 165.488 176.589 163.879C175.84 162.269 175.059 161.612 175.059 161.612C175.059 161.612 177.042 162.795 177.811 163.535C178.465 164.163 179.246 167.499 179.412 168.493C179.374 167.428 179.389 163.608 178.739 162.267C177.979 160.704 177.042 159.837 177.042 159.837C177.042 159.837 180.178 161.73 181.451 163.061C182.553 164.213 183.322 167.253 183.469 168.093C183.446 167.481 183.426 165.667 183.038 163.879C182.554 161.647 182.043 160.783 181.332 159.837C180.623 158.889 178.995 157.44 178.995 157.44C178.995 157.44 181.865 158.12 183.789 159.038C185.712 159.955 187.369 163.151 187.369 163.151C187.369 163.151 186.57 160.517 186.007 159.359C185.444 158.2 184.578 157.44 184.578 157.44C184.578 157.44 182.711 155.821 181.001 152.99C179.291 150.159 179.799 149.324 179.799 149.324C179.799 149.324 181.117 151.389 182.22 152.051C183.323 152.713 186.808 153.551 188.529 154.213C190.249 154.874 190.646 155.509 190.646 155.509C190.646 155.509 190.337 154.654 189.279 153.551C188.22 152.448 187.646 152.36 186.19 151.389C184.735 150.419 183.896 149.184 182.967 147.955C182.038 146.726 181.515 145.88 181.515 145.88C181.515 145.88 182.705 146.228 184.867 146.758C187.029 147.288 188.526 150.408 188.526 150.408C188.526 150.408 187.866 148.654 186.19 146.14C184.514 143.626 183.72 143.714 182 142.424C180.279 141.134 179.814 139.857 179.814 139.857C179.814 139.857 180.543 140.317 182.925 140.626C185.242 140.926 185.345 140.435 185.35 140.408ZM199.372 176.707C199.257 176.921 199.079 177.063 198.841 177.133C198.603 177.203 198.376 177.18 198.162 177.064C197.948 176.948 197.808 176.772 197.742 176.539C197.675 176.305 197.7 176.08 197.818 175.864C197.94 175.639 198.113 175.493 198.337 175.427C198.56 175.361 198.785 175.388 199.009 175.51C199.228 175.629 199.372 175.804 199.442 176.037C199.512 176.27 199.489 176.493 199.372 176.707ZM99.8908 174.911C99.7826 174.693 99.7687 174.466 99.8487 174.231C99.929 173.996 100.078 173.824 100.296 173.716C100.514 173.608 100.738 173.594 100.967 173.674C101.197 173.754 101.366 173.904 101.476 174.124C101.589 174.353 101.609 174.579 101.535 174.8C101.46 175.021 101.308 175.189 101.079 175.303C100.856 175.413 100.63 175.43 100.399 175.353C100.168 175.276 99.9989 175.129 99.8908 174.911ZM136.512 122.654C136.304 122.513 135.714 122.155 134.901 122.03C133.88 121.871 132.719 122.638 132.719 122.638C132.719 122.638 133.94 121.472 136.563 120.598C138.186 120.058 139.042 120.186 139.46 120.363C138.659 119.849 136.58 118.672 134.431 118.741C131.689 118.83 131.202 119.935 131.202 119.935L133.148 120.51C133.148 120.51 132.706 120.421 129.611 121.085C126.515 121.748 124.083 124.888 124.083 124.888C124.083 124.888 124.304 124.888 125.468 124.82C126.632 124.753 127.267 125.905 127.267 125.905C127.267 125.905 124.304 126.392 121.827 127.542C119.351 128.691 118.82 130.062 118.82 130.062C118.82 130.062 119.66 129.841 121.385 129.443C122.932 129.086 123.233 129.901 123.279 130.073C123.243 130.043 123.081 130.051 122.402 130.431C121.429 130.978 120.589 132.539 119.238 134.779C118.187 136.521 117.05 137.165 116.595 137.367C116.75 137.306 117.02 137.201 117.493 137.017C118.599 136.586 120.235 136.784 120.235 136.784C120.235 136.784 118.334 137.845 115.778 139.857C113.223 141.869 113.735 143.329 113.735 143.329C113.735 143.329 114.221 142.976 116.344 142.268C118.466 141.56 119.065 142.424 119.065 142.424C119.065 142.424 118.378 142.666 115.503 145.009C113.947 146.279 113.195 146.756 112.832 146.928C113.127 146.872 113.661 146.775 114.619 146.606C117.096 146.168 118.997 146.606 118.997 146.606C118.997 146.606 116.476 147.132 114.486 148.729C112.496 150.328 111.612 152.793 111.921 152.433C112.231 152.074 114.442 151.024 116.211 150.936C117.98 150.847 118.245 152.262 118.245 152.262C118.245 152.262 117.493 152.129 115.371 153.898C113.248 155.668 113.381 159.736 113.115 161.195C112.85 162.655 111.125 163.451 111.125 163.451C111.125 163.451 111.568 163.494 112.773 162.983C113.978 162.471 113.823 161.726 114.221 160.62C114.619 159.514 115.813 157.879 117.372 157.144C118.932 156.41 119.88 157.144 119.88 157.144C119.88 157.144 119.528 157.348 118.732 157.826C117.936 158.303 117.184 161.46 116.874 163.406C116.565 165.352 114.47 166.484 114.47 166.484C114.47 166.484 115.725 166.591 116.919 165.573C118.113 164.556 118.422 163.097 119.13 162.301C119.837 161.505 120.898 161.77 120.898 161.77C120.898 161.77 119.705 163.097 119.351 164.91C119.062 166.39 118.154 168.194 117.831 168.806C117.948 168.687 118.108 168.527 118.331 168.312C119.568 167.115 120.855 164.866 121.96 164.361C123.065 163.857 123.527 164.361 123.527 164.361C123.527 164.361 122.889 164.467 122.269 165.617C121.65 166.767 121.473 168.801 121.07 170.67C120.665 172.539 119.306 173.756 119.306 173.756C119.306 173.756 120.855 172.693 122.041 171.803C123.227 170.913 123.287 169.067 124.348 168.049C125.409 167.032 126.245 167.43 126.245 167.43C126.245 167.43 125.46 167.947 124.455 170.795C123.451 173.643 123.828 174.92 123.828 174.92C123.828 174.92 124.94 173.436 126.201 171.532C127.463 169.629 130.653 167.649 130.672 164.282C130.692 160.914 130.191 160.751 130.191 160.751C130.191 160.751 129.021 161.863 127.685 163.199C126.35 164.534 125.296 163.879 125.296 163.879C125.296 163.879 126.127 163.718 127.24 161.715C128.353 159.712 127.314 160.072 127.314 160.072C127.314 160.072 125.831 159.489 124.718 156.893C123.605 154.296 124.644 152.433 124.644 152.433L122.981 152.731C122.981 152.731 124.329 152.078 124.688 150.169C124.758 149.793 124.807 149.535 124.841 149.36C124.741 149.457 124.2 149.972 123.022 150.852C121.708 151.835 120.571 151.71 120.571 151.71C120.571 151.71 123.11 149.871 124.203 148.335C125.19 146.945 124.595 144.617 124.472 144.184C124.399 144.263 124.282 144.382 124.095 144.561C123.291 145.335 121.677 145.475 121.677 145.475C121.677 145.475 123.716 144.114 124.696 141.581C125.676 139.049 125.247 137.797 125.247 137.797C125.247 137.797 124.124 138.559 122.777 139.559C121.521 140.492 121.577 141.016 121.59 141.084C121.573 141.002 121.405 140.079 122.613 138.56C123.879 136.967 124.247 137.415 125.703 134.927C127.159 132.438 126.126 133.372 126.126 133.372L123.962 134.061C124.225 133.895 124.866 133.337 126.421 131.547C128.826 128.779 128.958 128.72 128.965 128.72L125.903 128.552C126.162 128.53 126.834 128.392 128.572 127.771C131.223 126.822 132.008 125.165 132.008 125.165L129.45 125.601C129.45 125.601 130.862 124.247 133.618 123.247C135.668 122.503 136.315 122.571 136.512 122.654ZM200.759 173.974C200.655 174.193 200.486 174.345 200.252 174.428C200.017 174.511 199.79 174.501 199.57 174.396C199.351 174.292 199.201 174.125 199.122 173.895C199.042 173.665 199.055 173.439 199.16 173.217C199.27 172.986 199.434 172.831 199.654 172.752C199.874 172.674 200.1 172.69 200.331 172.799C200.555 172.905 200.709 173.073 200.792 173.301C200.874 173.529 200.864 173.754 200.759 173.974ZM98.6051 172.132C98.5091 171.909 98.5074 171.681 98.6004 171.451C98.6934 171.221 98.8516 171.057 99.0752 170.961C99.2989 170.866 99.5232 170.864 99.748 170.956C99.9726 171.049 100.134 171.208 100.231 171.433C100.332 171.669 100.339 171.895 100.252 172.112C100.166 172.329 100.005 172.488 99.77 172.589C99.5419 172.686 99.3147 172.691 99.0884 172.601C98.8622 172.512 98.7011 172.356 98.6051 172.132ZM201.991 171.177C201.899 171.402 201.738 171.563 201.509 171.658C201.28 171.754 201.052 171.756 200.827 171.664C200.602 171.572 200.443 171.414 200.351 171.188C200.259 170.963 200.26 170.737 200.353 170.509C200.449 170.272 200.605 170.109 200.82 170.018C201.036 169.928 201.262 169.93 201.499 170.027C201.728 170.121 201.891 170.28 201.986 170.503C202.081 170.727 202.083 170.952 201.991 171.177ZM141.632 171.532C141.87 171.532 142.063 171.34 142.063 171.101C142.063 170.863 141.87 170.67 141.632 170.67C141.394 170.67 141.201 170.863 141.201 171.101C141.201 171.34 141.394 171.532 141.632 171.532ZM157.751 170.67C157.513 170.67 157.32 170.863 157.32 171.101C157.32 171.34 157.513 171.532 157.751 171.532C157.989 171.532 158.182 171.34 158.182 171.101C158.182 170.863 157.989 170.67 157.751 170.67ZM160.485 169.361C160.089 169.361 159.768 169.681 159.768 170.077C159.768 170.474 160.089 170.795 160.485 170.795C160.881 170.795 161.203 170.474 161.203 170.077C161.203 169.681 160.881 169.361 160.485 169.361ZM138.898 170.795C139.294 170.795 139.615 170.474 139.615 170.077C139.615 169.681 139.294 169.361 138.898 169.361C138.502 169.361 138.181 169.681 138.181 170.077C138.181 170.474 138.502 170.795 138.898 170.795ZM97.473 169.283C97.3896 169.055 97.4003 168.828 97.5059 168.603C97.6112 168.378 97.7783 168.224 98.0068 168.14C98.2354 168.057 98.4593 168.067 98.6788 168.172C98.8982 168.277 99.0501 168.445 99.1345 168.676C99.2226 168.916 99.217 169.142 99.1189 169.354C99.0205 169.565 98.8513 169.716 98.6112 169.803C98.3779 169.889 98.1507 169.881 97.9298 169.779C97.7089 169.677 97.5565 169.512 97.473 169.283ZM203.069 168.308C202.99 168.538 202.838 168.707 202.615 168.815C202.391 168.923 202.164 168.937 201.934 168.858C201.704 168.779 201.537 168.629 201.433 168.409C201.329 168.189 201.316 167.964 201.397 167.731C201.48 167.489 201.627 167.317 201.837 167.215C202.047 167.113 202.272 167.104 202.515 167.187C202.749 167.268 202.92 167.418 203.028 167.636C203.135 167.854 203.148 168.078 203.069 168.308ZM140.753 166.705C140.353 166.705 140.029 167.03 140.029 167.43C140.029 167.83 140.353 168.154 140.753 168.154C141.153 168.154 141.477 167.83 141.477 167.43C141.477 167.03 141.153 166.705 140.753 166.705ZM159.354 167.43C159.354 167.03 159.03 166.705 158.63 166.705C158.231 166.705 157.906 167.03 157.906 167.43C157.906 167.83 158.231 168.154 158.63 168.154C159.03 168.154 159.354 167.83 159.354 167.43ZM96.5011 166.381C96.4302 166.148 96.4536 165.922 96.5713 165.703C96.689 165.484 96.8643 165.34 97.097 165.269C97.3296 165.198 97.5527 165.221 97.7661 165.338C97.9792 165.454 98.1218 165.63 98.1935 165.866C98.2681 166.111 98.2503 166.336 98.1405 166.542C98.0304 166.748 97.8533 166.888 97.6088 166.962C97.3711 167.035 97.1448 167.014 96.9297 166.901C96.7148 166.787 96.5718 166.614 96.5011 166.381ZM203.987 165.388C203.921 165.621 203.779 165.798 203.562 165.919C203.344 166.039 203.118 166.066 202.884 165.999C202.65 165.932 202.475 165.792 202.359 165.579C202.243 165.365 202.218 165.14 202.286 164.903C202.356 164.657 202.493 164.477 202.697 164.364C202.901 164.25 203.126 164.228 203.372 164.299C203.611 164.366 203.79 164.506 203.909 164.718C204.028 164.93 204.054 165.153 203.987 165.388ZM161.561 164.844C161.827 164.844 162.044 164.628 162.044 164.361C162.044 164.094 161.827 163.879 161.561 163.879C161.295 163.879 161.078 164.094 161.078 164.361C161.078 164.628 161.295 164.844 161.561 164.844ZM137.822 163.879C137.556 163.879 137.34 164.094 137.34 164.361C137.34 164.628 137.556 164.844 137.822 164.844C138.089 164.844 138.305 164.628 138.305 164.361C138.305 164.094 138.089 163.879 137.822 163.879ZM95.6904 163.431C95.6324 163.195 95.6682 162.971 95.7981 162.759C95.9273 162.547 96.1102 162.412 96.3468 162.354C96.583 162.296 96.8046 162.331 97.0111 162.459C97.2177 162.587 97.3503 162.771 97.4089 163.01C97.47 163.258 97.4396 163.482 97.3187 163.682C97.1975 163.881 97.013 164.012 96.7646 164.073C96.5233 164.132 96.2987 164.099 96.0902 163.974C95.8816 163.848 95.7486 163.668 95.6904 163.431ZM204.743 162.421C204.69 162.659 204.558 162.843 204.347 162.975C204.137 163.108 203.912 163.147 203.675 163.093C203.438 163.04 203.255 162.909 203.128 162.702C203 162.495 202.964 162.272 203.018 162.032C203.074 161.782 203.201 161.595 203.398 161.47C203.595 161.346 203.819 161.311 204.069 161.368C204.311 161.423 204.497 161.552 204.628 161.758C204.759 161.963 204.797 162.184 204.743 162.421ZM95.0436 160.441C94.9987 160.202 95.0466 159.98 95.1877 159.775C95.3288 159.57 95.5186 159.446 95.7578 159.401C95.9969 159.356 96.2164 159.404 96.4156 159.543C96.6147 159.683 96.7372 159.873 96.7824 160.114C96.8295 160.366 96.7871 160.588 96.6554 160.781C96.5236 160.973 96.3319 161.093 96.0806 161.141C95.8365 161.186 95.614 161.141 95.4126 161.005C95.2115 160.868 95.0884 160.68 95.0436 160.441ZM205.335 159.417C205.295 159.656 205.173 159.848 204.97 159.992C204.767 160.135 204.545 160.186 204.306 160.146C204.066 160.105 203.876 159.985 203.737 159.785C203.599 159.586 203.55 159.365 203.591 159.122C203.634 158.87 203.75 158.676 203.94 158.541C204.13 158.405 204.351 158.359 204.603 158.402C204.848 158.444 205.042 158.562 205.183 158.761C205.325 158.958 205.376 159.177 205.335 159.417ZM94.5606 157.416C94.529 157.175 94.5891 156.956 94.741 156.759C94.893 156.563 95.0894 156.449 95.3308 156.417C95.572 156.385 95.7884 156.445 95.9796 156.595C96.1711 156.745 96.2827 156.942 96.3146 157.185C96.3482 157.439 96.2937 157.658 96.1515 157.844C96.0094 158.029 95.8113 158.138 95.5578 158.172C95.3118 158.204 95.092 158.147 94.8984 157.999C94.7049 157.851 94.5922 157.657 94.5606 157.416ZM205.761 156.385C205.734 156.627 205.623 156.825 205.428 156.979C205.233 157.133 205.015 157.197 204.773 157.169C204.532 157.142 204.335 157.032 204.186 156.841C204.036 156.649 203.976 156.431 204.003 156.187C204.032 155.932 204.138 155.732 204.32 155.587C204.503 155.441 204.721 155.383 204.975 155.411C205.222 155.44 205.421 155.548 205.574 155.738C205.726 155.927 205.789 156.143 205.761 156.385ZM94.2442 154.373C94.2255 154.131 94.2976 153.915 94.4602 153.727C94.6224 153.539 94.8249 153.436 95.0677 153.417C95.3104 153.399 95.523 153.47 95.7059 153.63C95.8888 153.791 95.9895 153.993 96.0083 154.238C96.0277 154.493 95.9615 154.709 95.8096 154.887C95.6575 155.064 95.4539 155.163 95.199 155.182C94.9511 155.2 94.7349 155.131 94.5498 154.973C94.3647 154.816 94.2629 154.616 94.2442 154.373ZM206.021 153.337C206.008 153.58 205.907 153.784 205.721 153.949C205.535 154.113 205.32 154.188 205.077 154.174C204.834 154.16 204.633 154.062 204.473 153.878C204.314 153.695 204.241 153.48 204.255 153.235C204.27 152.979 204.364 152.774 204.539 152.619C204.714 152.463 204.929 152.393 205.184 152.408C205.432 152.423 205.637 152.52 205.799 152.702C205.961 152.882 206.035 153.094 206.021 153.337ZM94.0933 151.319C94.0876 151.075 94.1713 150.864 94.3435 150.685C94.5158 150.506 94.7237 150.414 94.967 150.408C95.2102 150.403 95.4187 150.485 95.5926 150.655C95.7667 150.825 95.8564 151.033 95.8619 151.279C95.8677 151.534 95.7899 151.747 95.6283 151.915C95.4669 152.084 95.2585 152.172 95.0026 152.177C94.7544 152.183 94.5424 152.102 94.3659 151.934C94.1894 151.767 94.0984 151.562 94.0933 151.319ZM206.116 150.283C206.112 150.527 206.021 150.735 205.842 150.907C205.663 151.08 205.452 151.163 205.208 151.16C204.964 151.156 204.759 151.065 204.592 150.889C204.425 150.712 204.343 150.501 204.347 150.256C204.351 149.999 204.437 149.79 204.605 149.628C204.773 149.465 204.985 149.386 205.24 149.39C205.489 149.395 205.698 149.483 205.868 149.658C206.037 149.832 206.12 150.041 206.116 150.283ZM202.507 97.1475L192.054 110.275C201.197 119.949 207.039 132.781 207.771 146.963L224.5 149.881C224.467 129.269 216.065 110.62 202.507 97.1475ZM97.5837 97.0583C83.9713 110.538 75.5316 129.224 75.4996 149.881L92.2284 146.963C92.9644 132.738 98.8385 119.872 108.033 110.183L97.5837 97.0583ZM94.1066 148.255C94.1141 148.011 94.209 147.805 94.3905 147.636C94.5723 147.466 94.7848 147.385 95.0282 147.393C95.2712 147.401 95.4752 147.494 95.6397 147.673C95.8045 147.852 95.8827 148.065 95.8751 148.31C95.867 148.566 95.7779 148.774 95.6076 148.933C95.4374 149.093 95.2246 149.169 94.9687 149.161C94.7208 149.153 94.5129 149.061 94.346 148.885C94.1787 148.708 94.099 148.498 94.1066 148.255ZM206.047 147.218C206.06 147.46 205.982 147.674 205.814 147.857C205.647 148.041 205.442 148.139 205.198 148.151C204.955 148.163 204.745 148.086 204.566 147.921C204.388 147.756 204.293 147.55 204.281 147.305C204.267 147.049 204.339 146.835 204.496 146.662C204.653 146.489 204.86 146.396 205.114 146.383C205.363 146.371 205.577 146.446 205.758 146.609C205.939 146.771 206.035 146.974 206.047 147.218ZM94.2846 145.202C94.3053 144.959 94.4111 144.759 94.6016 144.599C94.7922 144.44 95.0086 144.37 95.2512 144.391C95.4937 144.412 95.6921 144.516 95.8467 144.704C96.0016 144.891 96.0681 145.108 96.0473 145.353C96.0256 145.608 95.9254 145.81 95.7469 145.96C95.5681 146.111 95.3514 146.175 95.0967 146.153C94.849 146.132 94.6469 146.029 94.4895 145.843C94.332 145.658 94.2638 145.444 94.2846 145.202ZM169.269 139.857C169.269 139.857 169.349 142.509 167.903 143.152C166.458 143.794 164.257 144.276 164.257 144.276C164.257 144.276 162.316 143.955 161.737 145.32C161.158 146.685 162.204 145.241 163.729 144.919C165.253 144.597 169.991 146.279 169.269 139.857ZM135.519 144.919C137.043 145.241 138.089 146.685 137.51 145.32C136.931 143.955 134.989 144.276 134.989 144.276C134.989 144.276 132.789 143.794 131.344 143.152C129.898 142.509 129.978 139.857 129.978 139.857C129.256 146.279 133.994 144.597 135.519 144.919ZM205.814 144.168C205.839 144.41 205.773 144.627 205.615 144.819C205.458 145.012 205.258 145.121 205.016 145.146C204.774 145.171 204.559 145.107 204.372 144.951C204.185 144.796 204.079 144.596 204.054 144.351C204.027 144.097 204.087 143.879 204.234 143.698C204.382 143.516 204.582 143.413 204.837 143.386C205.084 143.36 205.302 143.424 205.491 143.576C205.681 143.729 205.788 143.926 205.814 144.168ZM94.6289 142.156C94.6631 141.915 94.7795 141.72 94.9787 141.571C95.1775 141.422 95.3976 141.365 95.6385 141.399C95.8795 141.433 96.0721 141.548 96.2162 141.744C96.3603 141.94 96.4153 142.159 96.381 142.403C96.3454 142.656 96.2343 142.853 96.0475 142.993C95.8611 143.134 95.6412 143.186 95.3879 143.15C95.142 143.115 94.9456 143.001 94.7987 142.808C94.6516 142.614 94.5952 142.397 94.6289 142.156ZM145.012 138.098C144.854 138.822 144.948 139.59 144.839 140.332C144.713 141.185 144.418 141.999 144.196 142.829C144.179 142.894 144.271 142.935 144.305 142.874C144.999 141.629 145.761 139.518 145.276 138.098C145.235 137.977 145.043 137.956 145.012 138.098ZM205.413 141.133C205.452 141.373 205.398 141.594 205.251 141.795C205.104 141.996 204.911 142.115 204.671 142.154C204.431 142.192 204.213 142.138 204.017 141.994C203.822 141.849 203.705 141.655 203.667 141.412C203.626 141.159 203.675 140.939 203.811 140.749C203.948 140.561 204.143 140.446 204.396 140.406C204.641 140.367 204.862 140.418 205.06 140.56C205.257 140.702 205.375 140.893 205.413 141.133ZM156.139 137.195C156.098 137.054 155.945 137.034 155.84 137.116C154.707 138.007 155.679 140.584 156.159 141.608C156.188 141.67 156.303 141.642 156.293 141.571C156.198 140.865 156.072 140.169 156.035 139.454C155.995 138.712 156.349 137.901 156.139 137.195ZM136.175 139.691C136.174 139.691 136.173 139.691 136.172 139.691C136.159 139.722 136.143 139.749 136.122 139.768C136.066 139.814 136.003 139.834 135.938 139.834H135.931C135.729 139.834 135.503 139.658 135.387 139.563C134.914 139.178 134.883 138.84 134.883 138.244L135.782 137.966C135.742 137.965 135.701 137.964 135.66 137.964H135.579C134.774 137.967 133.887 138.048 133.035 138.152C132.991 138.601 132.998 139.147 133.191 139.586C133.411 140.089 133.776 140.629 134.233 141.041C134.506 141.087 135.001 141.172 135.905 141.327C136.219 141.381 136.499 141.407 136.748 141.408H136.767C138.099 141.403 138.542 140.646 138.474 139.298C138.43 138.416 137.516 138.067 136.275 137.985L136.246 137.983C136.411 138.49 136.913 139.581 136.191 139.69L136.175 139.691ZM162.971 137.985C161.731 138.067 160.817 138.416 160.772 139.298C160.704 140.652 161.151 141.41 162.498 141.408H162.517C162.762 141.406 163.036 141.379 163.342 141.327C164.245 141.172 164.741 141.087 165.014 141.041C165.471 140.629 165.836 140.089 166.056 139.586C166.249 139.147 166.256 138.601 166.212 138.152C165.36 138.048 164.473 137.967 163.668 137.964H163.587C163.546 137.964 163.505 137.965 163.465 137.966L164.363 138.244C164.363 138.84 164.333 139.178 163.86 139.563C163.745 139.657 163.523 139.83 163.322 139.834H163.315C163.248 139.834 163.183 139.815 163.125 139.768C163.103 139.749 163.088 139.722 163.074 139.691L163.055 139.69C162.346 139.582 162.82 138.524 162.993 138.007L163.001 137.983L162.971 137.985ZM95.1385 139.139C95.1856 138.901 95.3122 138.713 95.5191 138.575C95.7262 138.438 95.9488 138.392 96.1878 138.439C96.4266 138.486 96.6125 138.612 96.7457 138.815C96.8787 139.019 96.9217 139.241 96.8741 139.482C96.8246 139.733 96.703 139.924 96.5087 140.054C96.3149 140.184 96.0924 140.224 95.8415 140.175C95.5981 140.126 95.4079 140.002 95.2718 139.8C95.1356 139.598 95.0911 139.378 95.1385 139.139ZM204.848 138.125C204.899 138.363 204.858 138.586 204.722 138.794C204.586 139.003 204.4 139.133 204.162 139.184C203.924 139.236 203.704 139.195 203.501 139.061C203.298 138.927 203.17 138.739 203.119 138.5C203.064 138.25 203.1 138.026 203.227 137.83C203.353 137.634 203.542 137.508 203.792 137.454C204.034 137.402 204.258 137.441 204.463 137.572C204.668 137.703 204.796 137.887 204.848 138.125ZM95.813 136.154C95.8728 135.918 96.0101 135.737 96.2241 135.611C96.4384 135.485 96.6635 135.452 96.8992 135.512C97.1349 135.573 97.3137 135.708 97.4355 135.918C97.5573 136.129 97.5878 136.353 97.5271 136.591C97.4639 136.839 97.3318 137.023 97.131 137.142C96.9302 137.261 96.7057 137.289 96.458 137.226C96.2176 137.164 96.0346 137.029 95.9097 136.82C95.7852 136.612 95.7527 136.39 95.813 136.154ZM204.118 135.154C204.183 135.389 204.153 135.614 204.03 135.83C203.906 136.045 203.727 136.185 203.492 136.25C203.257 136.314 203.036 136.285 202.825 136.163C202.615 136.04 202.478 135.86 202.412 135.623C202.344 135.377 202.369 135.152 202.484 134.949C202.599 134.746 202.78 134.611 203.028 134.543C203.267 134.477 203.492 134.504 203.704 134.623C203.916 134.743 204.054 134.92 204.118 135.154ZM158.685 122.03C158.685 122.03 158.327 122.105 157.08 122.713C155.832 123.321 153.773 123.408 153.047 123.756C152.322 124.105 151.713 124.627 151.713 124.627C151.713 124.627 151.887 123.321 153.105 122.48C154.324 121.639 155.658 120.943 156.18 120.276C156.703 119.608 156.615 119.26 156.615 119.26C156.615 119.26 156.209 119.899 155.194 120.13C154.383 120.316 153.725 120.264 153.313 120.367C153.726 120.098 154.423 119.515 154.673 118.73C154.993 117.727 154.589 116.377 154.406 115.855C154.488 116.162 154.533 116.751 153.987 117.395C153.192 118.332 152.99 118.39 152.99 118.39C152.99 118.39 153.309 117.578 152.874 116.824C152.439 116.07 151.945 115.605 151.742 115.083C151.539 114.561 151.452 115.025 151.307 115.838C151.176 116.575 151.33 116.643 151.36 116.649C151.307 116.64 150.558 116.509 150.2 115.838C149.828 115.141 149.799 115.257 149.799 115.257C149.799 115.257 149.741 115.402 149.799 116.215C149.857 117.027 150.098 117.395 150.098 117.395C150.098 117.395 149.218 117.752 148.697 117.027L148.175 116.302C148.175 116.302 147.941 116.371 148.145 117.395C148.349 118.419 148.958 119.347 148.958 119.347C148.958 119.347 147.507 119.58 146.608 118.564C145.709 117.549 142.779 118.274 142.779 118.274C142.779 118.274 145.883 118.796 146.753 121.146C147.623 123.495 147.478 123.292 147.478 123.292C147.478 123.292 147.304 122.857 146.289 122.219C145.434 121.681 144.663 121.864 144.441 121.883C144.814 122.014 146.81 123.162 147.623 125.787C148.523 128.687 148.465 129.152 148.465 129.152L147.101 127.962C147.101 127.962 147.623 128.426 148.841 130.863C150.06 133.3 150.263 134.779 150.263 134.779L150.662 132.44C150.662 132.44 151.569 127.063 153.744 125.555C155.919 124.047 157.854 123.494 158.685 122.03ZM96.6504 133.21C96.7233 132.978 96.8702 132.805 97.0912 132.691C97.3117 132.577 97.5383 132.556 97.7703 132.629C98.0024 132.702 98.1735 132.847 98.2839 133.064C98.3939 133.281 98.4121 133.507 98.338 133.741C98.2615 133.985 98.1195 134.161 97.9125 134.269C97.7054 134.377 97.4798 134.392 97.2358 134.315C96.999 134.241 96.824 134.096 96.7107 133.881C96.5974 133.666 96.5775 133.442 96.6504 133.21ZM138.89 133.8L140.964 133.461L142.066 133.8C142.066 133.8 142.082 133.749 142.105 133.664C142.199 133.315 142.402 132.382 142.066 131.876C141.646 131.247 141.813 131.51 141.813 131.51L141.552 132.44L140.475 132.037L139.642 131.681L139.432 132.201C139.432 132.201 139.098 132.037 138.21 132.174C137.323 132.311 135.528 133.232 135.528 133.232L137.98 133.05L138.89 133.8ZM157.72 133.8L158.821 133.461L160.895 133.8L161.805 133.05L164.257 133.232C164.257 133.232 162.462 132.311 161.575 132.174C160.688 132.037 160.354 132.201 160.354 132.201L160.143 131.681L159.311 132.037L158.233 132.44L157.972 131.51C157.972 131.51 158.139 131.247 157.72 131.876C157.383 132.382 157.587 133.315 157.68 133.664C157.703 133.749 157.72 133.8 157.72 133.8ZM203.226 132.228C203.304 132.459 203.286 132.685 203.175 132.907C203.063 133.129 202.892 133.279 202.661 133.356C202.431 133.433 202.207 133.417 201.991 133.306C201.774 133.195 201.627 133.023 201.549 132.79C201.468 132.547 201.479 132.322 201.583 132.112C201.687 131.904 201.86 131.758 202.103 131.677C202.338 131.598 202.565 131.613 202.783 131.72C203.001 131.828 203.149 131.997 203.226 132.228ZM97.6478 130.319C97.7338 130.092 97.8899 129.927 98.1162 129.825C98.3433 129.723 98.5705 129.715 98.7982 129.801C99.0259 129.887 99.1888 130.041 99.2867 130.263C99.3847 130.486 99.3903 130.712 99.3038 130.942C99.2138 131.182 99.0623 131.35 98.8496 131.446C98.637 131.543 98.4109 131.546 98.1716 131.456C97.9391 131.368 97.7725 131.214 97.6712 130.993C97.57 130.772 97.5623 130.547 97.6478 130.319ZM202.174 129.352C202.264 129.578 202.259 129.805 202.16 130.032C202.06 130.26 201.898 130.419 201.672 130.509C201.446 130.599 201.221 130.594 200.999 130.496C200.777 130.397 200.621 130.234 200.53 130.005C200.435 129.768 200.435 129.541 200.527 129.327C200.619 129.112 200.784 128.958 201.022 128.863C201.253 128.772 201.48 128.774 201.703 128.869C201.927 128.965 202.084 129.126 202.174 129.352ZM98.8045 127.484C98.9028 127.261 99.0677 127.105 99.2996 127.016C99.5314 126.926 99.7586 126.931 99.9814 127.029C100.204 127.127 100.358 127.29 100.444 127.518C100.53 127.745 100.523 127.971 100.424 128.196C100.321 128.43 100.16 128.59 99.9427 128.675C99.7249 128.759 99.499 128.75 99.265 128.647C99.0378 128.547 98.8796 128.383 98.7907 128.157C98.702 127.931 98.7063 127.706 98.8045 127.484ZM200.965 126.537C201.067 126.758 201.074 126.985 200.988 127.218C200.901 127.451 200.748 127.619 200.527 127.721C200.306 127.823 200.082 127.831 199.854 127.744C199.627 127.658 199.462 127.503 199.359 127.28C199.252 127.048 199.238 126.822 199.318 126.603C199.399 126.384 199.555 126.221 199.788 126.113C200.013 126.009 200.24 125.998 200.468 126.081C200.697 126.164 200.862 126.316 200.965 126.537ZM177.808 115.074L177.809 113.421C177.809 113.421 176.393 114.111 175.711 116.546C175.029 118.98 175.102 120.151 175.102 120.151C175.102 120.151 177.223 114.761 181.612 114.219C186.002 113.677 188.197 115.908 188.892 116.932C189.587 117.956 191.562 121.175 189.806 123.845C188.05 126.515 186.512 125.716 186.512 125.716C186.512 125.716 187.355 127.335 188.928 127.126C190.501 126.918 190.867 126.479 190.867 126.479C190.867 126.479 190.147 126.735 189.428 126.332C189.31 126.266 189.212 126.212 189.129 126.165C189.441 126.252 189.914 126.228 190.514 125.716C191.635 124.759 192.579 124.357 192.579 124.357C192.579 124.357 191.744 124.503 191.05 124.357L190.355 124.211C190.355 124.211 190.06 124.311 191.329 122.424C192.598 120.538 191.525 116.932 191.525 116.932L190.611 117.408C190.611 117.408 189.659 115.521 189.623 115.074C189.587 114.628 189.428 114.481 189.428 114.481L188.416 114.664C188.416 114.664 187.338 114.359 186.746 112.788C186.152 111.216 186.002 110.979 186.002 110.979C186.002 110.979 185.746 111.446 184.685 111.555C183.624 111.665 182.519 111.722 182.519 111.722L183.027 110.678C183.027 110.678 182.344 110.345 180.333 112.23C178.321 114.116 177.808 115.074 177.808 115.074ZM100.114 124.718C100.224 124.501 100.398 124.354 100.634 124.278C100.87 124.201 101.097 124.218 101.314 124.329C101.531 124.439 101.676 124.61 101.749 124.842C101.822 125.074 101.803 125.3 101.692 125.519C101.576 125.747 101.407 125.897 101.185 125.969C100.963 126.042 100.738 126.02 100.51 125.905C100.288 125.792 100.14 125.62 100.063 125.39C99.987 125.159 100.004 124.935 100.114 124.718ZM111.326 122.713L110.721 124.738L115.006 125.897C115.006 125.897 111.57 123.277 112.755 118.738C113.939 114.199 118.997 112.486 121.634 114.147C124.271 115.808 126.285 118.99 126.285 118.99C126.285 118.99 127.323 117.278 126.005 114.726C124.686 112.174 124.16 112.231 124.16 112.231L124.037 113.937C124.055 113.54 124.017 111.902 122.246 111.084C120.221 110.15 119.317 110.651 119.317 110.651L120.066 112.071C120.066 112.071 118.456 111.696 116.379 112.714C114.303 113.732 112.506 114.043 112.506 114.043L112.745 115.614C112.745 115.614 111.98 115.682 110.825 117.2C109.669 118.719 109.579 121.208 109.579 121.208L110.825 119.806C110.825 119.806 111.931 120.688 111.326 122.713ZM116.859 123.306C115.691 124.702 115.871 125.393 115.871 125.393C115.871 125.393 118.294 123.574 122.087 123.446C125.88 123.317 126.087 121.395 126.087 121.395C126.087 121.395 123.935 120.81 122.67 119.883C121.406 118.955 121.157 117.2 121.157 117.2V118.225C121.157 118.882 121.391 119.371 121.548 119.626C121.406 119.453 121.117 119.145 120.531 118.618C119.435 117.635 118.732 118.028 117.47 117.857C116.208 117.686 115.529 117.494 115.529 117.494C115.529 117.494 115.586 117.635 116.063 118.197C116.541 118.759 116.934 118.787 117.822 118.738C118.71 118.689 118.938 119.791 118.938 119.791C118.938 119.791 117.38 119.405 115.645 119.791C113.909 120.177 113.202 119.791 113.202 119.791C113.202 119.791 114.296 121.526 116.383 121.415C118.471 121.303 119.319 121.847 119.319 121.847C119.319 121.847 118.027 121.91 116.859 123.306ZM199.603 123.795C199.717 124.01 199.737 124.236 199.663 124.474C199.59 124.711 199.446 124.887 199.231 125.001C199.016 125.115 198.793 125.135 198.561 125.061C198.329 124.988 198.156 124.842 198.04 124.625C197.92 124.399 197.894 124.175 197.963 123.951C198.031 123.728 198.179 123.557 198.405 123.436C198.624 123.32 198.85 123.297 199.083 123.367C199.315 123.438 199.489 123.58 199.603 123.795ZM186.827 123.871C186.511 123.811 185.113 123.577 183.916 123.824C182.557 124.103 183.117 123.584 183.117 123.584C183.117 123.584 184.735 122.325 185.595 122.037C186.454 121.75 188.177 122.037 188.177 122.037C188.177 122.037 186.235 121.405 185.395 121.425C184.556 121.445 184.416 121.545 183.416 121.905C182.417 122.265 182.477 121.605 182.477 121.605C182.477 121.605 182.876 121.525 183.677 121.025C184.476 120.526 184.955 120.006 186.035 118.966C187.115 117.927 188.554 118.526 188.554 118.526C188.554 118.526 187.894 118.027 186.794 117.967C185.695 117.907 184.776 118.227 183.677 119.006C182.577 119.786 181.817 119.726 181.817 119.726C181.817 119.726 181.897 118.547 182.357 117.527C182.817 116.508 184.032 116.063 184.032 116.063C184.032 116.063 182.974 116.187 181.364 117.67C179.753 119.154 180.431 120.213 178.948 121.951C177.465 123.689 175.388 122.884 175.388 122.884C175.388 122.884 176.8 123.704 176.92 123.724C177.04 123.744 177.02 123.824 179.399 124.444C181.777 125.063 184.216 125.003 185.075 124.324C185.802 123.749 186.598 123.831 186.827 123.871ZM101.573 122.029C101.695 121.818 101.876 121.681 102.116 121.618C102.356 121.555 102.582 121.584 102.793 121.706C103.003 121.828 103.139 122.006 103.199 122.242C103.259 122.478 103.228 122.702 103.105 122.915C102.976 123.136 102.8 123.277 102.574 123.337C102.348 123.397 102.125 123.363 101.903 123.235C101.688 123.111 101.549 122.931 101.486 122.697C101.422 122.462 101.451 122.239 101.573 122.029ZM198.096 121.137C198.222 121.345 198.255 121.57 198.194 121.811C198.134 122.051 197.999 122.235 197.791 122.361C197.583 122.486 197.36 122.519 197.125 122.458C196.889 122.397 196.709 122.261 196.581 122.05C196.449 121.831 196.412 121.609 196.468 121.382C196.524 121.155 196.661 120.976 196.88 120.844C197.093 120.716 197.317 120.68 197.554 120.738C197.79 120.795 197.971 120.928 198.096 121.137ZM103.177 119.422C103.311 119.218 103.499 119.092 103.742 119.042C103.986 118.991 104.209 119.033 104.413 119.166C104.616 119.299 104.742 119.485 104.789 119.724C104.836 119.962 104.793 120.185 104.658 120.39C104.518 120.604 104.334 120.735 104.105 120.783C103.877 120.831 103.655 120.785 103.441 120.645C103.234 120.509 103.104 120.322 103.054 120.084C103.003 119.846 103.044 119.626 103.177 119.422ZM196.439 118.554C196.577 118.755 196.621 118.977 196.575 119.221C196.527 119.465 196.403 119.655 196.202 119.792C196 119.929 195.78 119.974 195.542 119.925C195.304 119.878 195.116 119.752 194.977 119.549C194.833 119.337 194.783 119.117 194.826 118.887C194.87 118.658 194.997 118.472 195.209 118.327C195.415 118.188 195.637 118.14 195.875 118.185C196.114 118.229 196.303 118.352 196.439 118.554ZM125.85 110.041L125.468 111.463C125.468 111.463 126.963 111.277 128.677 112.529C129.937 113.449 130.899 115.543 131.319 116.586C131.222 116.302 131.091 115.898 130.919 115.326C130.456 113.781 130.888 113.749 130.66 111.463C130.431 109.176 129.807 108.897 129.807 108.897C129.807 108.897 131.197 109.33 131.97 109.948C132.743 110.566 133.438 112.714 133.438 112.714C133.438 112.714 133.917 110.504 133.523 109.077C133.129 107.65 132.835 107.537 132.835 107.537C132.835 107.537 133.485 107.784 134.391 108.314C135.298 108.844 135.702 110.815 135.702 110.815C135.702 110.815 136.143 108.804 135.909 107.795C135.674 106.785 135.308 106.146 135.308 106.146L136.266 106.857C137.224 107.568 137.719 111.092 137.719 111.092C137.719 111.092 138.028 109.701 138.429 108.248C138.832 106.795 140.469 105.887 140.469 105.887L139.605 108.712C139.605 108.712 141.057 107.939 141.77 106.548C142.484 105.158 142.742 104.661 142.742 104.661C142.742 104.661 142.942 104.725 143.221 106.301C143.498 107.877 142.479 110.288 142.479 110.288C142.479 110.288 143.53 109.268 143.727 108.402C143.925 107.537 144.024 106.733 144.024 106.733C144.024 106.733 144.148 106.765 144.653 108.124C145.157 109.484 144.148 111.833 144.148 111.833C144.148 111.833 145.168 110.875 145.724 110.01C146.281 109.144 146.687 107.197 146.687 107.197C146.687 107.197 146.775 107.321 147.424 109.077C148.073 110.834 149.866 111.432 149.866 111.432C149.866 111.432 150.02 110.906 149.897 109.515C149.781 108.209 150.698 107.18 150.811 107.059C150.797 107.131 150.813 107.534 151.164 109.639C151.627 112.421 152.926 113.626 152.926 113.626C152.926 113.626 152.987 111.122 152.926 109.794C152.864 108.464 154.1 107.939 154.626 106.888C155.151 105.837 154.904 104.972 154.904 104.972C154.904 104.972 155.646 107.197 155.986 108.804C156.326 110.412 154.966 111.926 154.966 111.926C154.966 111.926 156.357 110.597 157.037 109.979C157.716 109.361 158.057 108.279 157.84 106.517C157.623 104.755 158.612 103.952 158.612 103.952C158.612 103.952 158.612 103.797 158.791 104.541C158.969 105.285 160.436 108.217 160.436 108.217C160.436 108.217 160.498 108.557 160.529 106.455C160.56 104.354 161.951 104.416 161.951 104.416L161.823 106.131C161.695 107.847 163.28 110.655 163.28 110.655C163.28 110.655 163.342 110.102 163.558 108.094C163.774 106.085 165.704 105.777 165.704 105.777C165.704 105.777 165.536 106.023 165.412 108.495C165.289 110.968 166.124 113.286 166.124 113.286C166.124 113.286 167.298 110.659 168.163 109.453C169.028 108.248 170.431 108.434 170.431 108.434C170.431 108.434 170.018 108.743 169.317 109.608C168.616 110.474 168.194 113.348 168.194 113.348C168.194 113.348 168.503 112.73 170.141 112.112C171.779 111.493 173.356 111.722 173.356 111.722C173.356 111.722 172.676 112.39 172.521 114.584C172.367 116.779 173.912 119.097 173.912 119.097C173.912 119.097 174.005 116.717 174.331 114.862C174.658 113.008 176.357 112.23 176.357 112.23C176.357 112.23 178.756 110.898 179.121 110.123C179.487 109.349 179.079 108.854 179.229 108.102C179.38 107.349 179.853 107.376 179.853 107.376C179.853 107.376 177.889 106.672 176.881 108.123C175.874 109.574 173.53 109.005 173.53 109.005C173.53 109.005 174.153 108.726 174.669 108.274C175.186 107.822 175.271 106.467 175.388 105.929C175.504 105.392 176.046 105.412 176.046 105.412C176.046 105.412 174.067 104.897 173.103 105.777C172.14 106.656 171.422 106.295 171.422 106.295C171.422 106.295 172.067 106.166 172.39 104.789C172.713 103.413 171.357 102.424 171.357 102.424C171.357 102.424 171.142 103.241 170.067 104.101C168.992 104.962 167.787 104.94 167.787 104.94C167.787 104.94 168.153 103.392 168.131 102.66C168.11 101.929 168.772 101.585 168.772 101.585L167.981 101.564C167.981 101.564 166.965 101.546 165.943 102.056C164.922 102.566 164.626 103.413 164.626 103.413L164.683 102.993C164.74 102.572 164.561 102.015 164.518 101.564C164.475 101.112 165.293 100.634 165.293 100.634C165.293 100.634 163.744 99.886 162.54 100.531C161.335 101.176 160.755 102.639 160.755 102.639C160.755 102.639 160.819 102.832 160.625 102.359C160.432 101.886 159.743 101.284 159.55 100.634C159.356 99.9847 159.98 99.6327 159.98 99.6327C159.98 99.6327 159.464 99.5419 158.518 99.9223C157.571 100.303 157.034 102.08 157.034 102.08C157.034 102.08 156.113 100.953 156.059 100.129C156.005 99.3043 156.571 99.2501 156.571 99.2501C156.571 99.2501 155.143 99.3098 154.038 100.313C152.934 101.316 151.963 102.624 151.963 102.624C151.963 102.624 152.26 101.465 151.31 100.129C150.359 98.7923 148.809 99.085 148.809 99.085C148.809 99.085 149.323 99.6059 149.323 100.603C149.323 101.6 146.898 103.109 146.898 103.109C146.898 103.109 147.544 101.196 146.413 100.129C145.281 99.0619 144.472 99.6059 144.472 99.6059C144.472 99.6059 144.931 100.064 145.119 101.269C145.308 102.474 144.338 102.785 144.338 102.785C144.338 102.785 144.527 101.222 143.822 100.488C143.117 99.7523 141.913 100.064 141.913 100.064C141.913 100.064 142.398 100.334 142.742 101.389C143.084 102.445 141.698 103.055 141.698 103.055C141.698 103.055 141.509 102.031 140.485 101.269C139.461 100.507 138.437 100.872 138.437 100.872C138.437 100.872 139.272 101.626 139.676 102.839C140.081 104.051 138.734 105.21 138.734 105.21C138.734 105.21 138.895 102.946 137.828 102.092C136.762 101.239 135.339 101.597 135.339 101.597C135.339 101.597 136.201 101.863 136.659 102.887C137.117 103.911 136.659 104.501 136.659 104.501C136.659 104.501 135.716 103.299 134.476 102.841C133.237 102.383 131.152 103.278 131.152 103.278H131.378C131.378 103.278 131.809 103.449 132.375 103.853C132.94 104.258 133.075 105.318 133.075 105.318C133.075 105.318 131.459 104.914 130.3 104.591C129.141 104.267 128.899 104.268 128.899 104.268C128.899 104.268 128.979 104.457 129.276 105.184C129.572 105.912 130.757 106.55 130.757 106.55C130.757 106.55 130.588 106.71 128.273 106.302C125.957 105.895 125.849 106.305 125.849 106.305L127.656 108.325C127.656 108.325 126.607 108.41 125.328 107.884C124.049 107.358 121.61 108.129 121.61 108.129C121.61 108.129 122.543 108.155 123.594 108.217C124.645 108.279 125.85 110.041 125.85 110.041ZM104.924 116.904C105.068 116.708 105.262 116.591 105.508 116.555C105.754 116.518 105.975 116.572 106.171 116.716C106.367 116.86 106.482 117.052 106.516 117.293C106.55 117.534 106.495 117.753 106.349 117.951C106.198 118.158 106.007 118.278 105.776 118.313C105.545 118.349 105.327 118.291 105.121 118.139C104.92 117.992 104.801 117.798 104.764 117.558C104.726 117.318 104.779 117.1 104.924 116.904ZM194.651 116.074C194.799 116.267 194.856 116.487 194.821 116.733C194.788 116.98 194.674 117.177 194.481 117.324C194.287 117.472 194.07 117.528 193.83 117.493C193.589 117.458 193.394 117.343 193.245 117.148C193.09 116.944 193.028 116.727 193.059 116.495C193.09 116.264 193.206 116.071 193.411 115.915C193.607 115.765 193.826 115.705 194.068 115.737C194.309 115.768 194.503 115.881 194.651 116.074ZM106.801 114.489C106.956 114.3 107.157 114.195 107.404 114.172C107.651 114.148 107.869 114.214 108.057 114.369C108.245 114.523 108.35 114.722 108.371 114.964C108.392 115.206 108.324 115.422 108.168 115.612C108.005 115.81 107.808 115.92 107.576 115.942C107.343 115.965 107.128 115.895 106.931 115.733C106.739 115.575 106.631 115.375 106.606 115.133C106.582 114.891 106.647 114.676 106.801 114.489ZM192.727 113.69C192.884 113.876 192.954 114.092 192.932 114.34C192.913 114.587 192.81 114.79 192.624 114.948C192.439 115.106 192.226 115.174 191.983 115.152C191.741 115.13 191.54 115.026 191.381 114.839C191.215 114.644 191.142 114.431 191.159 114.198C191.178 113.965 191.284 113.766 191.479 113.6C191.668 113.438 191.884 113.367 192.127 113.385C192.369 113.403 192.569 113.505 192.727 113.69ZM108.809 112.177C108.973 111.998 109.18 111.903 109.428 111.894C109.676 111.884 109.89 111.961 110.069 112.125C110.249 112.29 110.342 112.494 110.35 112.737C110.358 112.98 110.279 113.192 110.112 113.373C109.94 113.562 109.736 113.661 109.503 113.671C109.27 113.681 109.059 113.6 108.87 113.427C108.688 113.259 108.591 113.053 108.579 112.81C108.568 112.568 108.644 112.357 108.809 112.177ZM190.681 111.421C190.848 111.597 190.929 111.809 190.922 112.058C190.914 112.307 190.823 112.514 190.647 112.682C190.47 112.85 190.261 112.93 190.018 112.921C189.775 112.912 189.568 112.819 189.399 112.641C189.223 112.455 189.137 112.246 189.143 112.012C189.149 111.779 189.244 111.574 189.43 111.398C189.61 111.227 189.821 111.144 190.064 111.149C190.307 111.154 190.513 111.245 190.681 111.421ZM110.938 109.979C111.112 109.809 111.323 109.726 111.572 109.729C111.82 109.733 112.029 109.822 112.199 109.996C112.37 110.17 112.452 110.379 112.446 110.622C112.441 110.865 112.35 111.073 112.175 111.244C111.992 111.423 111.783 111.511 111.55 111.509C111.317 111.506 111.11 111.413 110.932 111.23C110.758 111.053 110.672 110.842 110.674 110.599C110.676 110.356 110.764 110.149 110.938 109.979ZM188.508 109.259C188.685 109.426 188.777 109.633 188.783 109.882C188.79 110.13 188.71 110.343 188.542 110.52C188.376 110.697 188.171 110.788 187.928 110.793C187.684 110.797 187.474 110.715 187.295 110.547C187.108 110.371 187.012 110.167 187.005 109.933C186.998 109.7 187.082 109.49 187.258 109.304C187.428 109.123 187.635 109.029 187.878 109.021C188.121 109.013 188.331 109.092 188.508 109.259ZM113.187 107.896C113.37 107.736 113.586 107.665 113.834 107.682C114.082 107.699 114.286 107.799 114.446 107.982C114.606 108.165 114.677 108.378 114.659 108.62C114.64 108.863 114.539 109.065 114.354 109.227C114.161 109.395 113.948 109.472 113.716 109.457C113.483 109.441 113.282 109.337 113.113 109.145C112.949 108.958 112.875 108.744 112.89 108.501C112.905 108.258 113.004 108.057 113.187 107.896ZM186.228 107.225C186.414 107.382 186.517 107.584 186.537 107.832C186.557 108.079 186.488 108.296 186.331 108.482C186.174 108.668 185.974 108.77 185.732 108.787C185.489 108.805 185.274 108.735 185.087 108.576C184.891 108.411 184.783 108.212 184.764 107.979C184.745 107.747 184.817 107.533 184.982 107.337C185.143 107.148 185.343 107.042 185.586 107.021C185.828 107 186.043 107.068 186.228 107.225ZM150.034 75.4997L152.952 92.224C166.982 92.9294 179.694 98.6323 189.344 107.589L202.485 97.1262C189.027 83.7666 170.497 75.5096 150.034 75.4997ZM115.54 105.944C115.732 105.794 115.951 105.734 116.197 105.765C116.444 105.796 116.643 105.907 116.793 106.098C116.943 106.29 117.002 106.506 116.97 106.747C116.938 106.988 116.826 107.185 116.633 107.336C116.431 107.494 116.215 107.559 115.983 107.531C115.751 107.503 115.556 107.388 115.398 107.187C115.245 106.992 115.183 106.773 115.211 106.532C115.239 106.291 115.349 106.095 115.54 105.944ZM150.034 75.4997H150C129.563 75.4997 111.048 83.7287 97.587 97.055L110.731 107.52C120.389 98.5876 133.097 92.9088 147.116 92.2206L150.034 75.4997ZM183.835 105.312C184.029 105.459 184.143 105.655 184.176 105.901C184.209 106.148 184.153 106.368 184.006 106.562C183.859 106.756 183.665 106.869 183.424 106.9C183.183 106.93 182.964 106.872 182.768 106.724C182.564 106.57 182.446 106.377 182.414 106.145C182.381 105.914 182.443 105.696 182.597 105.492C182.746 105.294 182.942 105.178 183.183 105.144C183.423 105.109 183.641 105.165 183.835 105.312ZM117.999 104.121C118.199 103.981 118.42 103.933 118.665 103.977C118.909 104.021 119.102 104.143 119.241 104.342C119.38 104.542 119.428 104.761 119.383 105C119.338 105.239 119.215 105.429 119.014 105.57C118.804 105.717 118.584 105.77 118.354 105.729C118.125 105.688 117.936 105.563 117.79 105.354C117.647 105.15 117.597 104.929 117.638 104.69C117.679 104.45 117.8 104.26 117.999 104.121ZM181.346 103.536C181.547 103.672 181.672 103.862 181.718 104.106C181.765 104.35 181.72 104.573 181.584 104.774C181.448 104.976 181.261 105.099 181.022 105.143C180.782 105.187 180.561 105.14 180.357 105.003C180.145 104.861 180.017 104.674 179.972 104.445C179.927 104.216 179.976 103.995 180.119 103.783C180.258 103.577 180.446 103.451 180.685 103.403C180.924 103.356 181.144 103.4 181.346 103.536ZM120.549 102.436C120.756 102.308 120.98 102.272 121.222 102.329C121.464 102.387 121.649 102.519 121.777 102.725C121.906 102.932 121.941 103.153 121.884 103.389C121.826 103.626 121.693 103.809 121.484 103.938C121.267 104.074 121.044 104.115 120.817 104.062C120.589 104.009 120.408 103.873 120.273 103.656C120.142 103.445 120.104 103.221 120.158 102.984C120.212 102.747 120.343 102.565 120.549 102.436ZM178.758 101.895C178.967 102.019 179.102 102.202 179.162 102.444C179.222 102.685 179.189 102.91 179.064 103.119C178.94 103.328 178.759 103.461 178.523 103.517C178.286 103.575 178.063 103.54 177.851 103.414C177.631 103.283 177.493 103.104 177.436 102.878C177.379 102.652 177.416 102.429 177.547 102.209C177.674 101.996 177.856 101.859 178.091 101.798C178.327 101.738 178.549 101.77 178.758 101.895ZM123.195 100.889C123.408 100.772 123.634 100.749 123.872 100.819C124.111 100.89 124.288 101.032 124.405 101.245C124.522 101.459 124.545 101.682 124.475 101.914C124.404 102.147 124.261 102.322 124.046 102.441C123.821 102.564 123.597 102.592 123.373 102.527C123.149 102.462 122.975 102.317 122.852 102.093C122.733 101.875 122.707 101.649 122.774 101.415C122.841 101.182 122.981 101.006 123.195 100.889ZM176.086 100.398C176.301 100.512 176.446 100.687 176.519 100.924C176.592 101.162 176.572 101.388 176.459 101.604C176.346 101.819 176.173 101.962 175.94 102.032C175.707 102.102 175.482 102.079 175.264 101.965C175.038 101.846 174.89 101.675 174.82 101.453C174.751 101.23 174.776 101.005 174.894 100.778C175.009 100.558 175.183 100.412 175.415 100.339C175.647 100.266 175.871 100.285 176.086 100.398ZM125.92 99.4902C126.14 99.3851 126.367 99.3745 126.601 99.4577C126.835 99.5408 127.004 99.6924 127.11 99.9119C127.215 100.131 127.226 100.355 127.142 100.584C127.059 100.812 126.906 100.98 126.685 101.086C126.454 101.196 126.228 101.213 126.008 101.135C125.788 101.058 125.623 100.903 125.512 100.673C125.405 100.449 125.391 100.222 125.471 99.9925C125.551 99.7628 125.701 99.5953 125.92 99.4902ZM173.341 99.0531C173.562 99.1544 173.717 99.3216 173.803 99.5543C173.888 99.7876 173.881 100.015 173.78 100.236C173.678 100.457 173.514 100.609 173.285 100.692C173.057 100.774 172.83 100.765 172.606 100.662C172.373 100.556 172.217 100.394 172.135 100.175C172.053 99.956 172.066 99.7303 172.172 99.4978C172.275 99.2721 172.44 99.1161 172.668 99.0303C172.896 98.9445 173.12 98.9521 173.341 99.0531ZM128.71 98.2463C128.935 98.1534 129.162 98.155 129.391 98.251C129.621 98.3473 129.782 98.5077 129.874 98.7324C129.968 98.9574 129.966 99.1816 129.871 99.4052C129.775 99.6286 129.613 99.7873 129.386 99.8813C129.15 99.9789 128.924 99.9831 128.708 99.8934C128.492 99.804 128.336 99.6412 128.238 99.4047C128.143 99.1752 128.142 98.948 128.234 98.7229C128.327 98.4983 128.485 98.3393 128.71 98.2463ZM170.52 97.8574C170.746 97.9463 170.909 98.1045 171.008 98.3325C171.106 98.5604 171.111 98.788 171.022 99.0144C170.933 99.241 170.777 99.402 170.553 99.4968C170.329 99.5917 170.103 99.5941 169.874 99.5048C169.636 99.4112 169.47 99.2577 169.377 99.0437C169.283 98.8297 169.283 98.6037 169.376 98.3654C169.467 98.1344 169.624 97.9696 169.846 97.8715C170.068 97.7732 170.293 97.7685 170.52 97.8574ZM131.573 97.1541C131.803 97.0735 132.029 97.0875 132.253 97.1961C132.476 97.3048 132.628 97.4739 132.708 97.7033C132.789 97.9333 132.775 98.1569 132.668 98.3751C132.56 98.5929 132.39 98.7425 132.158 98.8236C131.916 98.9084 131.69 98.8999 131.48 98.7987C131.27 98.6974 131.122 98.5261 131.038 98.2849C130.955 98.0503 130.967 97.8232 131.072 97.6039C131.176 97.3846 131.343 97.2344 131.573 97.1541ZM167.642 96.8207C167.873 96.8969 168.044 97.0459 168.155 97.2682C168.266 97.4905 168.284 97.7175 168.208 97.9482C168.131 98.1795 167.984 98.3484 167.765 98.4556C167.548 98.5627 167.321 98.5777 167.088 98.5011C166.845 98.421 166.672 98.2766 166.566 98.0682C166.461 97.8596 166.448 97.6338 166.528 97.3908C166.606 97.1551 166.753 96.9821 166.97 96.8719C167.187 96.7616 167.411 96.7446 167.642 96.8207ZM134.488 96.2221C134.722 96.1548 134.947 96.1811 135.164 96.302C135.382 96.4224 135.524 96.5998 135.591 96.8336C135.659 97.0672 135.633 97.29 135.514 97.5017C135.394 97.7133 135.216 97.8536 134.98 97.9218C134.734 97.9927 134.509 97.9722 134.305 97.8593C134.1 97.7465 133.962 97.5675 133.891 97.3218C133.822 97.0834 133.846 96.8576 133.962 96.6439C134.079 96.4306 134.254 96.2901 134.488 96.2221ZM164.709 95.943C164.944 96.0064 165.123 96.146 165.246 96.362C165.369 96.5775 165.399 96.8031 165.336 97.038C165.273 97.2729 165.135 97.4498 164.923 97.5688C164.711 97.688 164.486 97.7155 164.249 97.6514C164.002 97.5848 163.82 97.4503 163.703 97.2479C163.587 97.0454 163.562 96.8207 163.629 96.5737C163.694 96.3342 163.831 96.1531 164.041 96.0312C164.251 95.9091 164.474 95.8796 164.709 95.943ZM137.454 95.4515C137.691 95.3967 137.914 95.4357 138.124 95.5681C138.335 95.7007 138.467 95.8854 138.522 96.1226C138.577 96.3597 138.538 96.5805 138.407 96.7854C138.276 96.9901 138.091 97.1203 137.851 97.1756C137.602 97.233 137.378 97.1997 137.18 97.0759C136.982 96.9522 136.855 96.7657 136.797 96.5164C136.741 96.2745 136.777 96.0502 136.906 95.8437C137.034 95.6368 137.217 95.5062 137.454 95.4515ZM161.733 95.2284C161.971 95.2786 162.157 95.4082 162.293 95.6167C162.427 95.8256 162.469 96.0488 162.419 96.2871C162.369 96.5253 162.241 96.7093 162.035 96.8399C161.831 96.9704 161.608 97.0102 161.367 96.9593C161.117 96.9063 160.928 96.7822 160.801 96.5863C160.673 96.3907 160.636 96.1677 160.689 95.9174C160.74 95.6746 160.868 95.4864 161.071 95.3529C161.274 95.2195 161.495 95.1781 161.733 95.2284ZM140.454 94.8458C140.693 94.8039 140.914 94.8551 141.117 94.9989C141.32 95.1427 141.442 95.3345 141.483 95.5744C141.525 95.8142 141.475 96.0326 141.332 96.2299C141.19 96.427 140.998 96.5467 140.756 96.5889C140.504 96.6325 140.282 96.5872 140.092 96.4527C139.9 96.3181 139.783 96.125 139.739 95.8728C139.697 95.6283 139.745 95.4064 139.884 95.2071C140.024 95.0077 140.214 94.8872 140.454 94.8458ZM158.72 94.6777C158.96 94.7149 159.154 94.8341 159.3 95.035C159.446 95.2361 159.5 95.4566 159.463 95.6974C159.426 95.9378 159.308 96.1288 159.11 96.2703C158.913 96.4117 158.692 96.4636 158.449 96.4263C158.197 96.3872 158.001 96.2733 157.863 96.0848C157.725 95.8965 157.676 95.6761 157.715 95.4234C157.753 95.1781 157.87 94.9829 158.066 94.8385C158.26 94.6942 158.479 94.6406 158.72 94.6777ZM143.48 94.4051C143.723 94.3768 143.94 94.4397 144.135 94.5943C144.33 94.7492 144.441 94.9473 144.469 95.1887C144.498 95.4305 144.435 95.6459 144.283 95.8352C144.13 96.0244 143.932 96.1333 143.688 96.1623C143.433 96.1922 143.215 96.1346 143.031 95.99C142.848 95.845 142.742 95.6459 142.712 95.3918C142.683 95.1453 142.743 94.9263 142.893 94.7349C143.043 94.5434 143.239 94.4334 143.48 94.4051ZM155.686 94.2934C155.928 94.3174 156.128 94.4257 156.284 94.6183C156.441 94.8113 156.507 95.0287 156.483 95.2707C156.46 95.513 156.353 95.71 156.163 95.862C155.973 96.0142 155.756 96.0783 155.511 96.0538C155.257 96.0288 155.056 95.9256 154.908 95.7452C154.759 95.5645 154.698 95.347 154.723 95.0924C154.748 94.8455 154.854 94.6444 155.041 94.4895C155.229 94.3347 155.444 94.2693 155.686 94.2934ZM146.53 94.13C146.772 94.1146 146.987 94.1897 147.173 94.3545C147.359 94.5195 147.459 94.7237 147.474 94.9665C147.489 95.2091 147.416 95.4208 147.252 95.6017C147.09 95.7823 146.886 95.8802 146.64 95.8957C146.386 95.9118 146.17 95.8426 145.995 95.6879C145.82 95.5337 145.724 95.3288 145.708 95.0735C145.693 94.8256 145.765 94.6102 145.926 94.4273C146.085 94.2445 146.287 94.1451 146.53 94.13ZM152.627 94.0741C152.87 94.0849 153.075 94.1822 153.242 94.3663C153.409 94.5504 153.487 94.7638 153.476 95.0069C153.466 95.2501 153.369 95.4528 153.188 95.6149C153.007 95.7768 152.794 95.8527 152.548 95.8418C152.293 95.8304 152.086 95.7385 151.928 95.5662C151.771 95.3939 151.697 95.18 151.709 94.9245C151.72 94.6763 151.815 94.47 151.994 94.3052C152.173 94.1405 152.384 94.0635 152.627 94.0741ZM149.608 94.0181C149.851 94.0181 150.06 94.1066 150.235 94.2828C150.41 94.459 150.498 94.6689 150.498 94.912C150.498 95.1555 150.411 95.3623 150.237 95.5323C150.063 95.7022 149.853 95.7873 149.608 95.7873C149.352 95.7873 149.141 95.7048 148.977 95.5397C148.811 95.3746 148.729 95.164 148.729 94.9085C148.729 94.66 148.814 94.45 148.985 94.2771C149.157 94.1048 149.364 94.0181 149.608 94.0181Z" fill="black"/>
</svg>
