<svg width="300" height="300" viewBox="0 0 300 300" fill="none" xmlns="http://www.w3.org/2000/svg">
<circle cx="150" cy="150" r="150" fill="white"/>
<g clip-path="url(#clip0)">
<path d="M60.6716 152.877C56.5581 169.219 39.8473 179.161 23.3454 175.087C6.8521 171.013 -3.18901 154.463 0.926368 138.125C5.0379 121.782 21.7477 111.838 38.2439 115.912C54.7439 119.986 64.7841 136.538 60.6706 152.877H60.6716Z" fill="#F7931A"/>
<path d="M44.3773 141.155C44.9904 137.096 41.8702 134.915 37.6037 133.459L38.9877 127.962L35.6085 127.128L34.2611 132.48C33.3611 132.261 32.4589 132.051 31.5548 131.849L32.9118 126.461L29.5336 125.627L28.1497 131.123C27.4144 130.957 26.6925 130.793 25.9919 130.621L25.9957 130.604L21.3356 129.451L20.4367 133.025C20.4367 133.025 22.9438 133.595 22.8909 133.63C24.2595 133.968 24.5068 134.865 24.4654 135.576L22.889 141.839C22.9833 141.863 23.1055 141.898 23.2403 141.951L22.8832 141.863L20.6734 150.636C20.506 151.048 20.0815 151.666 19.1239 151.431C19.1586 151.48 16.6687 150.824 16.6687 150.824L14.9912 154.656L19.3886 155.742C20.2067 155.944 21.0084 156.157 21.7976 156.357L20.3991 161.918L23.7744 162.752L25.1584 157.249C26.0804 157.498 26.9755 157.726 27.8513 157.942L26.4712 163.418L29.8493 164.252L31.2487 158.702C37.0108 159.782 41.3437 159.346 43.1675 154.186C44.6372 150.03 43.0944 147.633 40.0627 146.069C42.2705 145.564 43.9336 144.126 44.3773 141.155ZM36.6557 151.875C35.6114 156.031 28.5462 153.786 26.2556 153.221L28.1112 145.855C30.4018 146.422 37.7471 147.543 36.6557 151.875ZM37.7009 141.096C36.7481 144.875 30.8676 142.954 28.96 142.483L30.6424 135.802C32.5499 136.273 38.6932 137.152 37.7009 141.095V141.096Z" fill="white"/>
<path d="M90.2566 133.453C92.7541 133.453 94.9119 133.897 96.7241 134.767C98.547 135.646 100.05 136.829 101.256 138.318C102.446 139.815 103.331 141.564 103.903 143.568C104.471 145.579 104.756 147.739 104.756 150.051C104.756 153.606 104.098 156.961 102.771 160.126C101.443 163.295 99.6432 166.045 97.3526 168.389C95.0639 170.731 92.3614 172.576 89.245 173.94C86.1335 175.305 82.7505 175.988 79.1183 175.988C78.6486 175.988 77.8228 175.974 76.6564 175.95C75.4899 175.927 74.1492 175.807 72.6478 175.607C71.034 175.379 69.4332 175.068 67.852 174.675C66.1972 174.279 64.5896 173.711 63.0562 172.979L76.5418 116.861L88.6204 115.008L83.7919 134.921C84.796 134.472 85.8382 134.111 86.9063 133.842C88.0026 133.578 89.1274 133.448 90.2556 133.453H90.2566ZM80.125 166.498C81.944 166.498 83.6571 166.055 85.2682 165.186C86.8876 164.309 88.3088 163.114 89.4443 161.673C90.6308 160.17 91.5645 158.488 92.2093 156.691C92.8855 154.833 93.2288 152.872 93.2238 150.898C93.2238 148.427 92.807 146.504 91.9764 145.109C91.1458 143.722 89.6088 143.025 87.376 143.025C86.6445 143.025 85.7033 143.163 84.5349 143.41C83.3626 143.672 82.3136 144.216 81.3733 145.035L76.231 166.183C76.5409 166.237 76.8152 166.289 77.049 166.337C77.2781 166.39 77.5303 166.427 77.7834 166.453C78.05 166.482 78.3551 166.497 78.7237 166.497L80.124 166.498H80.125ZM117.282 174.914H105.745L115.488 134.314H127.103L117.282 174.914ZM122.896 129.367C121.322 129.38 119.787 128.879 118.53 127.942C117.224 126.996 116.576 125.541 116.576 123.579C116.576 122.5 116.798 121.488 117.238 120.533C117.663 119.608 118.259 118.77 118.995 118.061C119.733 117.364 120.59 116.801 121.526 116.4C122.501 115.988 123.55 115.778 124.61 115.784C126.219 115.784 127.67 116.259 128.972 117.21C130.267 118.166 130.919 119.622 130.919 121.573C130.925 122.626 130.698 123.668 130.254 124.625C129.834 125.551 129.239 126.389 128.503 127.096C127.767 127.795 126.909 128.356 125.972 128.753C125.007 129.17 123.985 129.367 122.896 129.367V129.367ZM137.214 124.199L149.297 122.345L146.33 134.312H159.271L156.934 143.727H144.071L140.645 157.929C140.329 159.112 140.15 160.217 140.1 161.246C140.042 162.278 140.175 163.164 140.487 163.911C140.797 164.659 141.353 165.235 142.162 165.642C142.967 166.057 144.119 166.266 145.63 166.266C146.875 166.266 148.088 166.149 149.259 165.916C150.461 165.68 151.645 165.358 152.801 164.953L153.663 173.755C152.007 174.349 150.315 174.838 148.597 175.218C146.775 175.634 144.618 175.833 142.125 175.833C138.541 175.833 135.763 175.306 133.783 174.258C131.806 173.202 130.408 171.757 129.572 169.929C128.747 168.108 128.379 166.008 128.482 163.642C128.588 161.27 128.949 158.777 129.572 156.153L137.214 124.199V124.199ZM158.764 158.703C158.764 155.205 159.335 151.908 160.477 148.82C161.617 145.73 163.26 143.028 165.391 140.71C167.515 138.403 170.103 136.574 173.15 135.232C176.18 133.898 179.576 133.225 183.316 133.225C185.658 133.225 187.75 133.444 189.591 133.883C191.439 134.327 193.109 134.899 194.621 135.618L190.644 144.577C189.583 144.155 188.504 143.782 187.409 143.458C186.292 143.118 184.931 142.954 183.318 142.954C179.467 142.954 176.424 144.27 174.158 146.889C171.9 149.511 170.763 153.04 170.763 157.468C170.763 160.092 171.336 162.213 172.483 163.836C173.625 165.459 175.734 166.268 178.795 166.268C180.305 166.268 181.764 166.111 183.161 165.806C184.568 165.498 185.81 165.109 186.905 164.649L187.767 173.834C186.188 174.433 184.575 174.937 182.934 175.343C181.164 175.772 179.059 175.993 176.617 175.993C173.395 175.993 170.665 175.527 168.434 174.607C166.202 173.673 164.357 172.433 162.902 170.863C161.441 169.288 160.393 167.449 159.745 165.339C159.096 163.23 158.763 161.012 158.763 158.703H158.764ZM210.014 175.99C207.26 175.99 204.867 175.575 202.839 174.752C200.816 173.931 199.141 172.776 197.815 171.279C196.487 169.79 195.494 168.026 194.814 165.993C194.133 163.961 193.806 161.711 193.806 159.245C193.806 156.153 194.307 153.061 195.321 149.976C196.331 146.888 197.827 144.11 199.806 141.643C201.772 139.171 204.198 137.151 207.05 135.575C209.902 134.01 213.181 133.223 216.866 133.223C219.57 133.223 221.948 133.639 224.006 134.462C226.053 135.283 227.739 136.446 229.072 137.935C230.39 139.431 231.393 141.188 232.065 143.225C232.744 145.252 233.079 147.508 233.079 149.976C233.079 153.058 232.585 156.152 231.604 159.244C230.621 162.323 229.163 165.106 227.238 167.578C225.317 170.047 222.916 172.066 220.03 173.634C217.149 175.204 213.807 175.99 210.014 175.99V175.99ZM215.779 142.955C214.068 142.955 212.556 143.446 211.262 144.417C209.963 145.4 208.872 146.636 207.992 148.125C207.103 149.621 206.445 151.253 205.999 153.027C205.557 154.804 205.34 156.487 205.34 158.081C205.34 160.658 205.761 162.666 206.584 164.109C207.42 165.544 208.923 166.268 211.106 166.268C212.822 166.268 214.327 165.779 215.628 164.798C216.92 163.823 218.013 162.587 218.899 161.093C219.782 159.606 220.447 157.969 220.893 156.191C221.329 154.419 221.551 152.729 221.551 151.136C221.551 148.566 221.134 146.555 220.3 145.113C219.471 143.677 217.96 142.954 215.779 142.954V142.955ZM245.652 174.914H234.106L243.849 134.314H255.47L245.652 174.914V174.914ZM251.257 129.367C249.684 129.381 248.152 128.879 246.896 127.942C245.595 126.996 244.942 125.541 244.942 123.579C244.942 122.5 245.168 121.488 245.606 120.533C246.029 119.607 246.624 118.768 247.362 118.061C248.101 117.364 248.959 116.801 249.896 116.4C250.867 115.988 251.913 115.778 252.969 115.784C254.583 115.784 256.039 116.259 257.338 117.21C258.636 118.166 259.29 119.622 259.29 121.573C259.29 122.656 259.058 123.672 258.622 124.625C258.186 125.578 257.599 126.398 256.874 127.096C256.136 127.793 255.279 128.354 254.343 128.753C253.375 129.17 252.353 129.367 251.257 129.367V129.367ZM263.784 136.16C264.66 135.907 265.638 135.602 266.7 135.27C267.882 134.907 269.081 134.6 270.293 134.351C271.611 134.065 273.098 133.832 274.733 133.652C276.367 133.468 278.231 133.378 280.3 133.378C286.385 133.378 290.579 135.133 292.895 138.632C295.209 142.131 295.609 146.918 294.108 152.989L288.801 174.911H277.188L282.332 153.449C282.645 152.11 282.89 150.814 283.073 149.548C283.258 148.294 283.246 147.187 283.033 146.231C282.844 145.315 282.335 144.493 281.595 143.912C280.834 143.322 279.683 143.026 278.124 143.026C276.58 143.032 275.041 143.189 273.528 143.495L265.966 174.908H254.349L263.784 136.16V136.16Z" fill="#4D4D4D"/>
</g>
<defs>
<clipPath id="clip0">
<rect width="295" height="61" fill="white" transform="translate(0 115)"/>
</clipPath>
</defs>
</svg>
