<svg width="300" height="300" viewBox="0 0 300 300" fill="none" xmlns="http://www.w3.org/2000/svg">
<circle cx="150" cy="150" r="150" fill="white"/>
<path fill-rule="evenodd" clip-rule="evenodd" d="M205.821 75H95V170.018C95 200.383 119.808 225 150.41 225C181.013 225 205.821 200.383 205.821 170.018V75ZM204.207 126.672C204.16 126.635 204.111 126.6 204.065 126.564C204.01 126.569 203.956 126.575 203.902 126.582C203.895 126.516 203.89 126.451 203.886 126.386C203.649 126.337 203.469 126.134 203.211 126.163C202.134 125.19 200.736 124.709 199.509 123.97C198.979 123.399 198.485 122.753 197.757 122.428C197.066 121.909 196.296 120.886 195.367 121.138C195.307 121.262 195.238 121.387 195.1 121.438C194.95 121.332 194.79 121.243 194.627 121.163C194.572 121.216 194.519 121.269 194.465 121.323C194.346 121.285 194.226 121.255 194.105 121.231C194.028 120.916 193.708 120.87 193.436 120.823L193.474 120.957C193.445 120.959 193.389 120.961 193.361 120.963C193.374 120.932 193.4 120.869 193.413 120.839C193.308 120.831 193.205 120.824 193.102 120.815C193.055 120.577 192.815 120.66 192.668 120.741C192.238 120.066 191.857 119.441 191.41 118.776C191.377 118.785 191.311 118.802 191.278 118.811C191.031 118.229 190.229 118.114 190.216 117.425C189.889 116.8 188.855 117.105 188.484 116.508C188.519 116.034 188.487 115.517 188.635 115.068C188.752 114.489 188.408 113.908 188.019 113.503C188.003 113.247 187.994 112.953 187.739 112.812C187.427 112.074 187.042 111.368 186.698 110.623C186.62 110.592 186.546 110.561 186.471 110.53C186.498 110.498 186.552 110.432 186.578 110.4C186.54 110.31 186.503 110.22 186.464 110.13C186.458 109.473 186.032 108.943 185.687 108.417C185.234 106.873 184.042 105.81 182.709 104.993C182.646 104.741 182.384 104.656 182.2 104.509C182.164 104.326 182.055 104.174 181.931 104.038C180.823 102.955 179.726 101.61 178.153 101.098C178.144 101.129 178.126 101.19 178.117 101.221C177.944 100.852 177.402 100.876 177.046 100.777L177.06 100.721C176.67 100.647 176.327 100.869 175.95 100.853C175.795 101.159 175.633 101.46 175.376 101.697C175.283 101.689 175.191 101.68 175.099 101.671C174.726 102.243 174.168 102.679 173.903 103.318C173.754 103.979 173.054 104.438 173.351 105.182C172.922 106.03 173.557 107.268 172.857 107.935C172.851 107.962 172.838 108.016 172.832 108.043C172.751 108.057 172.671 108.07 172.59 108.084V107.952C172.489 107.93 172.39 107.904 172.29 107.877C171.715 107.931 171.639 108.439 171.679 108.918C171.275 108.953 171.219 109.668 170.799 109.304C170.489 108.922 170.267 109.356 170.013 109.542C169.857 109.504 169.697 109.492 169.538 109.517C169.298 110.037 169.891 110.511 169.613 111.04C169.391 111.484 169.442 112.12 168.971 112.396C168.588 112.923 169.205 113.841 168.492 114.156C167.808 114.606 167.972 115.56 167.878 116.265C167.487 116.496 167.261 116.926 166.824 117.072C166.202 118.174 166.087 119.518 165.189 120.455C164.695 120.803 163.951 120.77 163.61 121.334C163.544 121.987 162.666 122.086 162.407 122.653C161.611 123.287 160.566 123.584 159.812 124.259C158.893 124.331 158.332 125.151 158.3 126.009C157.478 126.642 156.723 127.396 156.421 128.417C156.427 128.468 156.438 128.571 156.443 128.623C155.82 129.431 155.92 130.566 155.784 131.447C154.805 131.483 155.633 132.692 154.891 133.065C154.702 133.827 153.738 133.844 153.41 134.495C152.371 134.969 151.531 135.735 150.41 135.801V124.644H144.651V124.643H131.582V132.914H131.604V143.327H204.207V170.018H163.86V221.717C159.561 222.814 155.054 223.399 150.41 223.399C145.767 223.399 141.26 222.814 136.961 221.717V170.018H96.6139V160.967C103.989 159.577 109.574 153.139 109.574 145.417C109.574 144.71 109.527 144.011 109.436 143.327H115.465V135.316H115.443V124.643H96.6139V108.631H115.443V89.9544H131.582V108.631H144.651V108.63H150.41V89.9544H204.207V89.9466V126.672ZM153.942 211.361L153.988 212.589L154.942 212.554L154.967 213.224L154.013 213.262L154.129 216.411C154.136 216.614 154.185 216.763 154.273 216.865C154.362 216.961 154.509 217.009 154.714 217.001C154.814 216.996 154.952 216.972 155.127 216.929L155.153 217.628C154.926 217.698 154.703 217.738 154.486 217.746C154.095 217.759 153.796 217.652 153.589 217.425C153.382 217.198 153.271 216.87 153.255 216.438L153.138 213.291L152.208 213.326L152.183 212.656L153.114 212.621L153.069 211.393L153.942 211.361ZM149.641 217.719L148.766 217.7L148.878 212.624L149.752 212.642L149.641 217.719ZM158.37 212.885C158.693 212.367 159.163 212.069 159.779 211.991C160.851 211.852 161.47 212.383 161.636 213.582L162.071 216.907L161.204 217.02L160.768 213.689C160.718 213.326 160.599 213.069 160.412 212.917C160.225 212.762 159.959 212.709 159.612 212.754C159.33 212.789 159.093 212.896 158.9 213.072C158.707 213.248 158.567 213.467 158.479 213.723L158.948 217.31L158.081 217.423L157.147 210.275L158.014 210.163L158.37 212.885ZM144.362 215.741L146.224 212.194L147.075 212.394L144.441 216.99L143.751 216.827L143.439 212.8L141.364 216.264L140.674 216.101L140.415 210.822L141.261 211.022L141.354 214.948L143.4 211.527L144.085 211.687L144.362 215.741ZM172.698 212.733C172.576 213.24 172.221 213.641 171.634 213.937C171.148 214.182 170.706 214.228 170.308 214.078C169.91 213.926 169.569 213.574 169.285 213.027L167.777 210.083L168.557 209.69L170.054 212.613C170.405 213.299 170.862 213.499 171.424 213.216C172.02 212.917 172.303 212.496 172.274 211.956L170.588 208.665L171.368 208.273L173.686 212.797L172.944 213.171L172.698 212.733ZM129.75 209.746C130.069 209.036 130.495 208.537 131.029 208.254C131.563 207.972 132.105 207.95 132.655 208.193C133.203 208.436 133.553 208.812 133.706 209.325L134.789 206.907L135.588 207.259L132.64 213.843L131.906 213.52L132.089 213.005C131.596 213.254 131.064 213.251 130.493 213C129.952 212.762 129.608 212.346 129.464 211.756C129.32 211.166 129.406 210.515 129.724 209.808L129.75 209.746ZM130.51 210.19C130.274 210.715 130.199 211.174 130.285 211.569C130.371 211.962 130.607 212.245 130.993 212.415C131.5 212.64 131.971 212.576 132.407 212.226L133.361 210.096C133.317 209.554 133.048 209.173 132.552 208.954C132.161 208.783 131.788 208.796 131.435 209.002C131.082 209.205 130.773 209.6 130.51 210.19ZM148.836 211.276C148.839 211.137 148.885 211.017 148.974 210.923C149.063 210.827 149.192 210.782 149.362 210.785C149.532 210.79 149.661 210.841 149.747 210.939C149.833 211.038 149.874 211.158 149.871 211.3C149.868 211.439 149.822 211.556 149.731 211.647C149.641 211.74 149.511 211.783 149.34 211.78C149.17 211.778 149.043 211.727 148.958 211.631C148.874 211.535 148.833 211.417 148.836 211.276ZM177.849 208.092C177.7 207.91 177.516 207.825 177.295 207.835C177.074 207.846 176.762 207.953 176.359 208.158C175.955 208.361 175.611 208.495 175.325 208.553C175.04 208.615 174.791 208.615 174.579 208.551C174.368 208.487 174.182 208.359 174.023 208.164C173.759 207.841 173.673 207.459 173.766 207.013C173.859 206.568 174.119 206.173 174.548 205.828C174.998 205.465 175.458 205.286 175.926 205.292C176.396 205.297 176.777 205.479 177.071 205.839L176.388 206.389C176.237 206.205 176.028 206.109 175.761 206.101C175.494 206.095 175.24 206.189 175 206.381C174.753 206.581 174.604 206.789 174.551 207.008C174.499 207.227 174.544 207.424 174.685 207.595C174.818 207.758 174.983 207.83 175.18 207.809C175.377 207.785 175.676 207.675 176.077 207.478C176.478 207.28 176.826 207.149 177.122 207.083C177.417 207.019 177.676 207.019 177.898 207.085C178.12 207.149 178.317 207.288 178.49 207.499C178.778 207.851 178.867 208.246 178.757 208.69C178.647 209.13 178.365 209.533 177.912 209.896C177.594 210.155 177.267 210.326 176.931 210.411C176.595 210.494 176.276 210.494 175.973 210.403C175.671 210.315 175.425 210.155 175.234 209.92L175.913 209.373C176.11 209.589 176.348 209.696 176.626 209.69C176.905 209.688 177.183 209.573 177.462 209.346C177.719 209.141 177.883 208.922 177.954 208.695C178.025 208.465 177.99 208.265 177.849 208.092ZM123.411 206.325C123.658 205.89 123.966 205.551 124.334 205.3C124.703 205.052 125.094 204.918 125.506 204.902C125.92 204.886 126.322 204.988 126.714 205.206C127.321 205.548 127.693 206.031 127.83 206.658C127.967 207.286 127.838 207.945 127.444 208.636L127.414 208.687C127.169 209.119 126.866 209.458 126.505 209.706C126.144 209.955 125.755 210.088 125.338 210.104C124.921 210.123 124.512 210.019 124.111 209.794C123.508 209.456 123.137 208.972 123 208.345C122.863 207.718 122.99 207.064 123.381 206.375L123.411 206.325ZM124.125 206.843C123.846 207.334 123.737 207.79 123.796 208.217C123.856 208.641 124.078 208.962 124.463 209.178C124.85 209.394 125.243 209.415 125.642 209.242C126.041 209.071 126.395 208.714 126.704 208.172C126.98 207.686 127.088 207.23 127.028 206.797C126.967 206.367 126.745 206.044 126.361 205.828C125.985 205.617 125.597 205.596 125.197 205.762C124.798 205.93 124.44 206.29 124.125 206.843ZM120.449 205.823C120.051 205.908 119.642 205.874 119.223 205.711C118.804 205.551 118.391 205.284 117.983 204.91C117.572 204.531 117.295 204.101 117.154 203.616C117.014 203.133 117.021 202.631 117.175 202.118C117.33 201.603 117.622 201.112 118.052 200.642L118.46 200.205C119.164 199.449 119.887 199.025 120.629 198.934C121.372 198.846 122.065 199.094 122.708 199.687C123.236 200.17 123.536 200.693 123.609 201.256C123.681 201.819 123.525 202.38 123.139 202.935L122.472 202.324C122.967 201.544 122.879 200.845 122.208 200.229C121.761 199.82 121.278 199.665 120.757 199.764C120.237 199.866 119.7 200.21 119.147 200.8L118.765 201.208C118.241 201.771 117.953 202.34 117.903 202.908C117.853 203.48 118.049 203.968 118.491 204.371C118.741 204.601 118.985 204.774 119.224 204.891C119.463 205.009 119.704 205.057 119.949 205.041L120.996 203.917L119.825 202.842L120.33 202.302L122.163 203.984L120.449 205.823ZM183.718 160.148C183.718 159.665 183.546 159.288 183.202 159.019C182.857 158.749 182.252 158.469 181.386 158.181C180.52 157.892 179.812 157.615 179.262 157.345C177.474 156.472 176.579 155.274 176.579 153.75C176.579 152.992 176.802 152.322 177.248 151.743C177.693 151.161 178.324 150.71 179.139 150.387C179.954 150.064 180.871 149.901 181.889 149.901C182.881 149.901 183.77 150.077 184.558 150.43C185.344 150.779 185.956 151.281 186.392 151.93C186.828 152.578 187.046 153.32 187.046 154.156H183.728C183.728 153.595 183.556 153.163 183.211 152.856C182.867 152.549 182.401 152.394 181.813 152.394C181.219 152.394 180.749 152.525 180.405 152.786C180.06 153.045 179.888 153.376 179.888 153.779C179.888 154.129 180.078 154.447 180.457 154.732C180.836 155.018 181.503 155.314 182.457 155.618C183.412 155.923 184.195 156.248 184.809 156.601C186.3 157.455 187.046 158.629 187.046 160.129C187.046 161.327 186.591 162.267 185.681 162.95C184.771 163.636 183.522 163.978 181.936 163.978C180.817 163.978 179.804 163.778 178.897 163.38C177.99 162.98 177.308 162.435 176.849 161.741C176.391 161.05 176.162 160.252 176.162 159.347H179.499C179.499 160.081 179.691 160.623 180.073 160.97C180.455 161.319 181.076 161.493 181.936 161.493C182.486 161.493 182.921 161.375 183.24 161.141C183.559 160.906 183.718 160.575 183.718 160.148ZM144.215 158.944H142.414V163.788H139.086V150.091H144.519C146.156 150.091 147.435 150.451 148.358 151.172C149.281 151.892 149.743 152.909 149.743 154.225C149.743 155.178 149.548 155.968 149.16 156.593C148.771 157.22 148.163 157.727 147.334 158.117L150.217 163.647V163.788H146.652L144.215 158.944ZM167.304 157.975H162.071V161.247H168.252V163.788H158.743V150.091H168.271V152.64H162.071V155.528H167.304V157.975ZM130.693 152.64H126.55V163.788H123.222V152.64H119.154V150.091H130.693V152.64ZM95.0003 131.255C102.268 131.944 107.96 138.026 107.96 145.417C107.96 152.808 102.268 158.891 95.0003 159.579V131.255ZM142.414 156.403H144.519C145.151 156.403 145.626 156.238 145.946 155.909C146.265 155.578 146.424 155.117 146.424 154.527C146.424 153.937 146.263 153.472 145.941 153.136C145.619 152.8 145.144 152.632 144.519 152.632H142.414V156.403ZM196.857 84.8888C196.751 85.0647 196.595 85.2064 196.39 85.314C196.185 85.4215 195.961 85.4752 195.717 85.4752C195.341 85.4752 195.041 85.3041 194.816 84.9619C194.592 84.62 194.471 84.1439 194.456 83.534L194.454 83.1646C194.454 82.7442 194.504 82.3772 194.604 82.0633C194.703 81.7497 194.846 81.5082 195.032 81.3392C195.218 81.17 195.433 81.0857 195.677 81.0857C196.034 81.0857 196.312 81.2071 196.51 81.4505C196.707 81.694 196.822 82.0572 196.855 82.54H196.189C196.166 82.3014 196.114 82.1314 196.036 82.0297C195.957 81.928 195.845 81.8773 195.701 81.8773C195.527 81.8773 195.394 81.9867 195.299 82.2056C195.204 82.4247 195.156 82.7375 195.155 83.144V83.4021C195.155 83.8281 195.204 84.1484 195.302 84.3625C195.4 84.5765 195.554 84.6835 195.764 84.6835C195.944 84.6835 196.078 84.6238 196.166 84.5047V83.842H195.685V83.1352H196.857V84.8888ZM182.85 84.2819C182.85 84.1313 182.814 84.0139 182.742 83.9298C182.671 83.8457 182.545 83.7587 182.365 83.6688C182.185 83.5791 182.038 83.4921 181.924 83.408C181.552 83.1363 181.366 82.7629 181.366 82.2878C181.366 82.0513 181.413 81.8426 181.505 81.6617C181.598 81.481 181.729 81.3403 181.898 81.2394C182.068 81.1388 182.258 81.0886 182.47 81.0886C182.676 81.0886 182.861 81.1433 183.024 81.2528C183.188 81.3622 183.315 81.5181 183.405 81.7204C183.496 81.9227 183.541 82.1538 183.541 82.4138H182.852C182.852 82.2398 182.816 82.105 182.745 82.0092C182.673 81.9133 182.576 81.8656 182.454 81.8656C182.33 81.8656 182.233 81.9061 182.161 81.9873C182.09 82.0684 182.054 82.1714 182.054 82.2966C182.054 82.4061 182.093 82.5053 182.172 82.5942C182.251 82.6831 182.39 82.7749 182.588 82.8699C182.786 82.9647 182.949 83.0669 183.077 83.1763C183.386 83.4422 183.541 83.8086 183.541 84.276C183.541 84.6494 183.447 84.9424 183.258 85.1557C183.068 85.3687 182.809 85.4752 182.48 85.4752C182.247 85.4752 182.037 85.4133 181.848 85.2889C181.66 85.1648 181.518 84.9948 181.423 84.7788C181.327 84.5626 181.28 84.3139 181.28 84.0326H181.973C181.973 84.2613 182.013 84.4297 182.092 84.5383C182.172 84.6467 182.301 84.7012 182.48 84.7012C182.594 84.7012 182.684 84.6643 182.751 84.5912C182.817 84.5178 182.85 84.4148 182.85 84.2819ZM168.512 84.8888C168.405 85.0647 168.25 85.2064 168.045 85.314C167.84 85.4215 167.615 85.4752 167.371 85.4752C166.995 85.4752 166.695 85.3041 166.471 84.9619C166.246 84.62 166.126 84.1439 166.11 83.534L166.108 83.1646C166.108 82.7442 166.158 82.3772 166.258 82.0633C166.358 81.7497 166.5 81.5082 166.686 81.3392C166.872 81.17 167.087 81.0857 167.332 81.0857C167.689 81.0857 167.966 81.2071 168.164 81.4505C168.362 81.694 168.477 82.0572 168.51 82.54H167.844C167.82 82.3014 167.769 82.1314 167.69 82.0297C167.611 81.928 167.5 81.8773 167.355 81.8773C167.182 81.8773 167.048 81.9867 166.953 82.2056C166.859 82.4247 166.811 82.7375 166.81 83.144V83.4021C166.81 83.8281 166.858 84.1484 166.956 84.3625C167.054 84.5765 167.208 84.6835 167.418 84.6835C167.598 84.6835 167.732 84.6238 167.82 84.5047V83.842H167.339V83.1352H168.512V84.8888ZM157.385 83.9709C157.375 84.268 157.321 84.5306 157.223 84.7583C157.125 84.9859 156.986 85.1624 156.808 85.2875C156.63 85.4127 156.427 85.4752 156.198 85.4752C155.822 85.4752 155.525 85.2923 155.308 84.927C155.091 84.5613 154.983 84.0451 154.983 83.3787V83.1675C154.983 82.749 155.032 82.3831 155.13 82.0692C155.228 81.7556 155.369 81.5133 155.552 81.3422C155.736 81.1711 155.949 81.0857 156.191 81.0857C156.539 81.0857 156.818 81.2218 157.03 81.4946C157.241 81.7674 157.361 82.1432 157.391 82.622H156.701C156.696 82.362 156.652 82.1754 156.569 82.062C156.486 81.9486 156.36 81.892 156.191 81.892C156.019 81.892 155.893 81.9878 155.812 82.1792C155.732 82.3708 155.69 82.6767 155.686 83.0971V83.3992C155.686 83.8545 155.725 84.1802 155.802 84.3755C155.878 84.5712 156.011 84.6689 156.198 84.6689C156.357 84.6689 156.479 84.6131 156.563 84.5018C156.647 84.3902 156.692 84.2133 156.697 83.9709H157.385ZM113.985 84.2819C113.985 84.1313 113.95 84.0139 113.878 83.9298C113.806 83.8457 113.681 83.7587 113.501 83.6688C113.321 83.5791 113.174 83.4921 113.06 83.408C112.688 83.1363 112.502 82.7629 112.502 82.2878C112.502 82.0513 112.548 81.8426 112.641 81.6617C112.733 81.481 112.864 81.3403 113.034 81.2394C113.203 81.1388 113.394 81.0886 113.605 81.0886C113.811 81.0886 113.996 81.1433 114.16 81.2528C114.323 81.3622 114.45 81.5181 114.541 81.7204C114.632 81.9227 114.677 82.1538 114.677 82.4138H113.987C113.987 82.2398 113.952 82.105 113.88 82.0092C113.808 81.9133 113.712 81.8656 113.589 81.8656C113.466 81.8656 113.369 81.9061 113.297 81.9873C113.225 82.0684 113.189 82.1714 113.189 82.2966C113.189 82.4061 113.229 82.5053 113.308 82.5942C113.387 82.6831 113.525 82.7749 113.723 82.8699C113.922 82.9647 114.085 83.0669 114.212 83.1763C114.522 83.4422 114.677 83.8086 114.677 84.276C114.677 84.6494 114.582 84.9424 114.393 85.1557C114.204 85.3687 113.945 85.4752 113.615 85.4752C113.383 85.4752 113.172 85.4133 112.984 85.2889C112.795 85.1648 112.653 84.9948 112.558 84.7788C112.463 84.5626 112.415 84.3139 112.415 84.0326H113.109C113.109 84.2613 113.149 84.4297 113.228 84.5383C113.308 84.6467 113.436 84.7012 113.615 84.7012C113.729 84.7012 113.82 84.6643 113.886 84.5912C113.952 84.5178 113.985 84.4148 113.985 84.2819ZM188.813 83.3698C188.813 83.7862 188.761 84.1548 188.658 84.4753C188.554 84.7959 188.406 85.0428 188.215 85.2158C188.024 85.3887 187.807 85.4752 187.562 85.4752C187.318 85.4752 187.101 85.3916 186.912 85.2246C186.723 85.0575 186.576 84.8183 186.47 84.5077C186.364 84.1967 186.309 83.8399 186.304 83.4374V83.1969C186.304 82.7784 186.355 82.4095 186.458 82.0898C186.561 81.7703 186.709 81.5234 186.901 81.3494C187.094 81.1754 187.313 81.0886 187.558 81.0886C187.801 81.0886 188.018 81.1746 188.208 81.3464C188.399 81.5186 188.547 81.7634 188.653 82.081C188.759 82.3989 188.812 82.7629 188.813 83.1734V83.3698ZM121.121 83.9063H120.747V85.4165H120.055V81.1471H121.184C121.524 81.1471 121.79 81.2594 121.982 81.4839C122.174 81.7086 122.27 82.026 122.27 82.4359C122.27 82.7327 122.229 82.9788 122.148 83.1742C122.068 83.3693 121.941 83.5276 121.769 83.6488L122.368 85.3724V85.4165H121.627L121.121 83.9063ZM186.148 81.9419H185.287V85.4165H184.595V81.9419H183.75V81.1471H186.148V81.9419ZM112.069 85.4165H111.381L110.365 82.76V85.4165H109.673V81.1471H110.365L111.379 83.8038V81.1471H112.069V85.4165ZM199.038 83.6044H197.951V84.6248H199.235V85.4165H197.259V81.1471H199.239V81.9419H197.951V82.8419H199.038V83.6044ZM177.757 85.4165V81.1471H178.681C178.935 81.1471 179.163 81.2327 179.365 81.4038C179.567 81.5746 179.725 81.8162 179.839 82.1279C179.952 82.4397 180.01 82.7893 180.011 83.1763V83.3728C180.011 83.7638 179.956 84.1142 179.844 84.4238C179.734 84.7337 179.577 84.9763 179.376 85.1512C179.174 85.3263 178.949 85.4146 178.701 85.4165H177.757ZM142.229 85.4165V81.1471H143.259C143.628 81.1471 143.909 81.2477 144.101 81.4492C144.294 81.6505 144.39 81.9427 144.39 82.326C144.39 82.5467 144.356 82.7354 144.287 82.8918C144.219 83.0482 144.119 83.1635 143.986 83.238C144.136 83.2964 144.251 83.4059 144.331 83.5663C144.411 83.7267 144.451 83.9221 144.451 84.1527C144.451 84.5712 144.362 84.8853 144.184 85.0954C144.006 85.3057 143.742 85.4127 143.393 85.4165H142.229ZM148.797 83.6044H147.709V84.6248H148.994V85.4165H147.018V81.1471H148.998V81.9419H147.709V82.8419H148.797V83.6044ZM104.001 81.9419H103.14V85.4165H102.449V81.9419H101.604V81.1471H104.001V81.9419ZM124.466 83.6044H123.379V84.6248H124.663V85.4165H122.687V81.1471H124.667V81.9419H123.379V82.8419H124.466V83.6044ZM190.236 83.9063H189.861V85.4165H189.17V81.1471H190.299C190.639 81.1471 190.905 81.2594 191.097 81.4839C191.289 81.7086 191.384 82.026 191.384 82.4359C191.384 82.7327 191.344 82.9788 191.263 83.1742C191.182 83.3693 191.056 83.5276 190.884 83.6488L191.483 85.3724V85.4165H190.742L190.236 83.9063ZM129.973 81.9419H129.112V85.4165H128.42V81.9419H127.575V81.1471H129.973V81.9419ZM162.211 84.619H161.264L161.098 85.4165H160.359L161.411 81.1471H162.061L163.121 85.4165H162.379L162.211 84.619ZM105.359 83.9063H104.984V85.4165H104.293V81.1471H105.421C105.762 81.1471 106.027 81.2594 106.219 81.4839C106.411 81.7086 106.507 82.026 106.507 82.4359C106.507 82.7327 106.467 82.9788 106.386 83.1742C106.305 83.3693 106.179 83.5276 106.007 83.6488L106.606 85.3724V85.4165H105.865L105.359 83.9063ZM177.32 85.4165H176.632L175.616 82.76V85.4165H174.924V81.1471H175.616L176.63 83.8038V81.1471H177.32V85.4165ZM108.554 84.619H107.606L107.441 85.4165H106.702L107.754 81.1471H108.404L109.464 85.4165H108.721L108.554 84.619ZM136.732 84.6248H137.936V85.4165H136.041V81.1471H136.732V84.6248ZM165.726 85.4165H165.038L164.022 82.76V85.4165H163.33V81.1471H164.022L165.036 83.8038V81.1471H165.726V85.4165ZM138.964 85.4165H138.275V81.1471H138.964V85.4165ZM118.936 84.619H117.989L117.823 85.4165H117.084L118.137 81.1471H118.787L119.846 85.4165H119.104L118.936 84.619ZM127.341 85.4165H126.653L125.637 82.76V85.4165H124.945V81.1471H125.637L126.651 83.8038V81.1471H127.341V85.4165ZM141.11 84.619H140.162L139.997 85.4165H139.258L140.31 81.1471H140.96L142.02 85.4165H141.277L141.11 84.619ZM153.608 82.5665L154.077 81.1471H154.867L154.065 83.2641L154.888 85.4165H154.091L153.608 83.9709L153.125 85.4165H152.329L153.151 83.2641L152.351 81.1471H153.139L153.608 82.5665ZM145.523 84.6248H146.726V85.4165H144.831V81.1471H145.523V84.6248ZM170.693 83.6044H169.605V84.6248H170.889V85.4165H168.913V81.1471H170.893V81.9419H169.605V82.8419H170.693V83.6044ZM173.805 84.619H172.858L172.692 85.4165H171.953L173.005 81.1471H173.655L174.715 85.4165H173.973L173.805 84.619ZM193.431 84.619H192.484L192.318 85.4165H191.579L192.631 81.1471H193.281L194.342 85.4165H193.599L193.431 84.619ZM152.059 83.6044H150.972V84.6248H152.256V85.4165H150.281V81.1471H152.26V81.9419H150.972V82.8419H152.059V83.6044ZM135.562 83.6044H134.474V84.6248H135.759V85.4165H133.783V81.1471H135.763V81.9419H134.474V82.8419H135.562V83.6044ZM132.217 83.9063H131.842V85.4165H131.151V81.1471H132.28C132.62 81.1471 132.886 81.2594 133.077 81.4839C133.269 81.7086 133.365 82.026 133.365 82.4359C133.365 82.7327 133.325 82.9788 133.244 83.1742C133.163 83.3693 133.037 83.5276 132.865 83.6488L133.464 85.3724V85.4165H132.723L132.217 83.9063ZM115.723 83.968V85.4165H115.032V81.1471H116.176C116.395 81.1471 116.59 81.2071 116.758 81.3275C116.927 81.4476 117.058 81.6187 117.15 81.8407C117.243 82.0625 117.289 82.3142 117.289 82.5956C117.289 83.0122 117.189 83.345 116.989 83.594C116.789 83.8433 116.514 83.968 116.164 83.968H115.723ZM160.109 85.4165H159.422V83.6338H158.403V85.4165H157.711V81.1471H158.403V82.8419H159.422V81.1471H160.109V85.4165ZM188.11 83.191C188.11 82.7666 188.062 82.4447 187.967 82.2248C187.872 82.0049 187.736 81.8949 187.558 81.8949C187.212 81.8949 187.028 82.2819 187.009 83.056L187.007 83.3698C187.007 83.7881 187.053 84.1097 187.147 84.3344C187.24 84.5594 187.378 84.6718 187.562 84.6718C187.737 84.6718 187.872 84.5613 187.966 84.3403C188.061 84.1196 188.109 83.802 188.11 83.3875V83.191ZM142.92 83.6015V84.6248H143.373C143.498 84.6248 143.594 84.5824 143.661 84.4972C143.728 84.4124 143.761 84.2925 143.761 84.138C143.761 83.7822 143.643 83.6034 143.405 83.6015H142.92ZM178.449 81.9419V84.6248H178.689C178.887 84.6248 179.04 84.5197 179.146 84.3096C179.252 84.0996 179.306 83.7873 179.306 83.3728V83.1881C179.306 82.7754 179.252 82.4648 179.146 82.2555C179.04 82.0463 178.885 81.9419 178.681 81.9419H178.449ZM107.772 83.8244H108.388L108.079 82.3436L107.772 83.8244ZM140.328 83.8244H140.944L140.635 82.3436L140.328 83.8244ZM173.023 83.8244H173.64L173.33 82.3436L173.023 83.8244ZM192.649 83.8244H193.266L192.957 82.3436L192.649 83.8244ZM118.154 83.8244H118.771L118.461 82.3436L118.154 83.8244ZM161.429 83.8244H162.046L161.736 82.3436L161.429 83.8244ZM115.723 83.1734H116.176C116.31 83.1734 116.412 83.1235 116.483 83.0239C116.553 82.9241 116.588 82.7834 116.588 82.6014C116.588 82.402 116.552 82.2427 116.48 82.1237C116.407 82.0044 116.309 81.9438 116.184 81.9419H115.723V83.1734ZM104.984 83.1147H105.421C105.553 83.1147 105.652 83.0632 105.718 82.9604C105.784 82.8574 105.817 82.7138 105.817 82.5296C105.817 82.3455 105.784 82.2011 105.717 82.0962C105.65 81.9913 105.551 81.939 105.421 81.939H104.984V83.1147ZM131.842 83.1147H132.28C132.411 83.1147 132.51 83.0632 132.576 82.9604C132.643 82.8574 132.676 82.7138 132.676 82.5296C132.676 82.3455 132.642 82.2011 132.575 82.0962C132.508 81.9913 132.41 81.939 132.28 81.939H131.842V83.1147ZM120.747 83.1147H121.184C121.315 83.1147 121.414 83.0632 121.481 82.9604C121.547 82.8574 121.58 82.7138 121.58 82.5296C121.58 82.3455 121.547 82.2011 121.48 82.0962C121.413 81.9913 121.314 81.939 121.184 81.939H120.747V83.1147ZM189.861 83.1147H190.299C190.43 83.1147 190.529 83.0632 190.595 82.9604C190.662 82.8574 190.695 82.7138 190.695 82.5296C190.695 82.3455 190.661 82.2011 190.594 82.0962C190.527 81.9913 190.429 81.939 190.299 81.939H189.861V83.1147ZM142.92 82.927H143.281C143.432 82.9252 143.539 82.8838 143.604 82.8035C143.668 82.7231 143.7 82.6046 143.7 82.4477C143.7 82.2673 143.665 82.1373 143.596 82.058C143.526 81.9785 143.414 81.939 143.259 81.939H142.92V82.927Z" fill="black"/>
</svg>
