<svg width="300" height="300" viewBox="0 0 300 300" fill="none" xmlns="http://www.w3.org/2000/svg">
<circle cx="150" cy="150" r="150" fill="white"/>
<path d="M71.3292 186.949C71.3292 187.374 70.9748 187.719 70.5514 187.719H55.5655C55.9397 191.434 58.7262 194.822 62.6449 194.822C65.3231 194.822 67.312 193.795 68.8086 191.651C69.0252 191.355 69.3502 191.167 69.7637 191.345C69.9902 191.444 70.1477 191.651 70.1871 191.888C70.2265 192.135 70.1575 192.273 70.0886 192.412C68.5822 195.049 65.5791 196.343 62.6351 196.343C57.5938 196.343 54 191.819 54 186.979C54 182.138 57.5938 177.614 62.6351 177.614C67.6763 177.604 71.3194 182.119 71.3292 186.949V186.949ZM69.7243 186.218C69.3994 182.504 66.5637 179.116 62.6449 179.116C58.7262 179.116 55.9397 182.504 55.5655 186.218H69.7243ZM89.5151 177.98C89.9483 177.98 90.2634 178.355 90.2634 178.73C90.2634 179.165 89.9385 179.481 89.5151 179.481H85.4978V195.296C85.4978 195.671 85.1729 196.047 84.7495 196.047C84.3163 196.047 84.0012 195.671 84.0012 195.296V179.481H80.1415C79.7083 179.481 79.3932 179.155 79.3932 178.73C79.3932 178.355 79.7182 177.98 80.1415 177.98H84.0012V172.191C84.0012 171.826 84.2474 171.49 84.6018 171.431C85.104 171.352 85.4978 171.697 85.4978 172.171V177.98H89.5151ZM114.022 185.625V195.207C114.022 195.642 113.648 195.958 113.274 195.958C112.841 195.958 112.526 195.632 112.526 195.207V185.625C112.526 182.395 110.704 179.165 107.11 179.165C102.502 179.165 100.513 183.205 100.779 187.344C100.779 187.453 100.828 187.937 100.828 187.986V195.177C100.828 195.543 100.582 195.879 100.228 195.938C99.7255 196.017 99.3317 195.671 99.3317 195.197V163.726C99.3317 163.35 99.6566 162.975 100.08 162.975C100.513 162.975 100.828 163.35 100.828 163.726V181.536C102.118 179.224 104.422 177.664 107.1 177.664C111.502 177.664 114.022 181.536 114.022 185.625V185.625ZM140.892 186.949C140.892 187.374 140.538 187.719 140.114 187.719H125.119C125.493 191.434 128.279 194.822 132.198 194.822C134.876 194.822 136.865 193.795 138.362 191.651C138.578 191.355 138.903 191.167 139.317 191.345C139.543 191.444 139.701 191.651 139.74 191.888C139.78 192.135 139.711 192.273 139.642 192.412C138.135 195.049 135.132 196.343 132.188 196.343C127.147 196.343 123.553 191.819 123.553 186.979C123.553 182.138 127.147 177.614 132.188 177.614C137.239 177.604 140.882 182.119 140.892 186.949V186.949ZM139.278 186.218C138.953 182.504 136.117 179.116 132.198 179.116C128.279 179.116 125.493 182.504 125.119 186.218H139.278ZM159.285 178.681C159.285 179.165 159.019 179.432 158.586 179.491C154.185 180.133 152.206 183.739 152.206 187.937V195.128C152.206 195.494 151.959 195.829 151.605 195.889C151.103 195.968 150.709 195.622 150.709 195.148V178.76C150.709 178.395 150.955 178.059 151.31 177.999C151.812 177.92 152.206 178.266 152.206 178.74V182.079C153.436 179.985 155.908 177.99 158.478 177.99C158.852 177.98 159.285 178.256 159.285 178.681V178.681ZM183.9 186.949C183.9 187.374 183.546 187.719 183.122 187.719H168.137C168.511 191.434 171.297 194.822 175.216 194.822C177.894 194.822 179.883 193.795 181.38 191.651C181.596 191.355 181.921 191.167 182.335 191.345C182.561 191.444 182.719 191.651 182.758 191.888C182.798 192.135 182.729 192.273 182.66 192.412C181.153 195.049 178.15 196.343 175.206 196.343C170.165 196.343 166.571 191.819 166.571 186.979C166.571 182.138 170.165 177.614 175.206 177.614C180.247 177.604 183.89 182.119 183.9 186.949V186.949ZM182.295 186.218C181.97 182.504 179.135 179.116 175.216 179.116C171.297 179.116 168.511 182.504 168.137 186.218H182.295V186.218ZM208.092 178.869V195.296C208.092 195.731 207.718 196.047 207.344 196.047C206.911 196.047 206.596 195.721 206.596 195.296V192.175C205.365 194.654 203.159 196.422 200.373 196.422C195.922 196.422 193.451 192.55 193.451 188.46V178.829C193.451 178.454 193.776 178.078 194.199 178.078C194.633 178.078 194.948 178.454 194.948 178.829V188.46C194.948 191.69 196.769 194.921 200.363 194.921C205.404 194.921 206.586 190.189 206.586 184.964V178.829C206.586 178.395 207.019 177.95 207.551 178.108C207.876 178.217 208.092 178.533 208.092 178.869V178.869ZM246 185.566V195.197C246 195.632 245.626 195.948 245.252 195.948C244.818 195.948 244.503 195.622 244.503 195.197V185.566C244.503 182.336 242.682 179.165 239.088 179.165C234.578 179.165 232.865 184.005 232.865 187.769V195.197C232.865 195.632 232.491 195.948 232.117 195.948C231.684 195.948 231.369 195.622 231.369 195.197V185.566C231.369 182.336 229.547 179.165 225.953 179.165C221.394 179.165 219.514 182.771 219.681 187.561C219.681 187.67 219.73 187.887 219.681 187.937V195.177C219.681 195.543 219.435 195.879 219.071 195.938C218.569 196.017 218.175 195.671 218.175 195.197V178.76C218.175 178.395 218.421 178.059 218.775 177.999C219.278 177.92 219.671 178.266 219.671 178.74V181.486C220.961 179.175 223.265 177.664 225.943 177.664C228.996 177.664 231.359 179.6 232.324 182.454C233.554 179.659 235.967 177.664 239.078 177.664C243.479 177.664 246 181.477 246 185.566" fill="black"/>
<g clip-path="url(#clip0)">
<path d="M150.153 80L149.598 81.8903V136.743L150.153 137.298L175.549 122.248L150.153 80Z" fill="#343434"/>
<path d="M150.155 80L124.759 122.248L150.155 137.298V110.674V80Z" fill="#8C8C8C"/>
<path d="M150.153 142.119L149.84 142.501V162.041L150.153 162.956L175.564 127.076L150.153 142.119Z" fill="#3C3C3B"/>
<path d="M150.153 162.956V142.119L124.757 127.076L150.153 162.956Z" fill="#8C8C8C"/>
<path d="M150.153 137.298L175.548 122.248L150.153 110.675V137.298Z" fill="#141414"/>
<path d="M124.757 122.248L150.153 137.298V110.674L124.757 122.248Z" fill="#393939"/>
</g>
<defs>
<clipPath id="clip0">
<rect width="50.8141" height="82.9749" fill="white" transform="translate(124.753 80)"/>
</clipPath>
</defs>
</svg>
