<svg width="300" height="300" viewBox="0 0 300 300" fill="none" xmlns="http://www.w3.org/2000/svg">
<circle cx="150" cy="150" r="150" fill="white"/>
<path d="M113.721 143.765C113.721 134.894 111.177 130.339 106.087 130.09C104.061 129.995 102.084 130.315 100.16 131.058C98.6252 131.604 97.5919 132.145 97.0482 132.691V153.866C100.304 155.898 103.195 156.842 105.716 156.693C111.05 156.342 113.721 152.037 113.721 143.765ZM120 144.133C120 148.64 118.936 152.381 116.797 155.356C114.414 158.723 111.11 160.457 106.887 160.552C103.703 160.652 100.423 159.661 97.0476 157.583V176.828L91.5874 174.892V132.174C92.4834 131.082 93.6369 130.144 95.0343 129.347C98.2844 127.465 102.233 126.497 106.881 126.45L106.958 126.527C111.206 126.474 114.479 128.207 116.779 131.723C118.924 134.947 120 139.08 120 144.133V144.133ZM153.37 156.764C153.37 162.809 152.76 166.995 151.542 169.323C150.317 171.65 147.987 173.509 144.546 174.893C141.757 175.985 138.739 176.579 135.502 176.68L134.599 173.26C137.891 172.815 140.209 172.369 141.553 171.924C144.2 171.033 146.016 169.668 147.013 167.839C147.814 166.349 148.208 163.504 148.208 159.294V157.881C144.474 159.568 140.561 160.405 136.47 160.405C133.781 160.405 131.41 159.568 129.366 157.881C127.072 156.046 125.926 153.719 125.926 150.898V128.309L131.386 126.45V149.186C131.386 151.615 132.174 153.486 133.751 154.798C135.328 156.11 137.371 156.74 139.874 156.692C142.377 156.638 145.059 155.676 147.909 153.794V127.269H153.369V156.764H153.37ZM174.684 160.255C174.086 160.305 173.486 160.331 172.886 160.332C169.798 160.332 167.389 159.602 165.67 158.135C163.955 156.669 163.095 154.644 163.095 152.061V130.683H159.355V127.269H163.095V118.202L168.549 116.272V127.269H174.684V130.683H168.549V151.912C168.549 153.949 169.098 155.392 170.197 156.236C171.141 156.93 172.641 157.328 174.683 157.429V160.255H174.684ZM207.744 159.81H202.284V138.86C202.284 136.729 201.782 134.894 200.785 133.362C199.632 131.628 198.031 130.761 195.975 130.761C193.472 130.761 190.342 132.073 186.585 134.697V159.81H181.125V109.734L186.585 108.024V130.832C190.073 128.308 193.885 127.043 198.025 127.043C200.916 127.043 203.258 128.011 205.05 129.941C206.848 131.871 207.744 134.276 207.744 137.15V159.81H207.744V159.81ZM236.765 142.91C236.765 139.502 236.114 136.687 234.817 134.46C233.276 131.747 230.88 130.315 227.643 130.167C221.656 130.511 218.669 134.775 218.669 142.946C218.669 146.693 219.291 149.822 220.545 152.334C222.146 155.535 224.548 157.115 227.75 157.061C233.76 157.013 236.765 152.298 236.765 142.91V142.91ZM242.745 142.946C242.745 147.797 241.496 151.835 239.005 155.059C236.262 158.67 232.476 160.481 227.643 160.481C222.852 160.481 219.118 158.669 216.424 155.059C213.98 151.835 212.761 147.797 212.761 142.946C212.761 138.386 214.081 134.549 216.722 131.426C219.512 128.112 223.179 126.45 227.714 126.45C232.248 126.45 235.94 128.112 238.784 131.426C241.425 134.549 242.745 138.386 242.745 142.946V142.946ZM274.047 159.81H268.587V137.673C268.587 135.244 267.853 133.35 266.383 131.984C264.914 130.624 262.954 129.965 260.511 130.018C257.919 130.066 255.451 130.909 253.109 132.542V159.81H247.649V131.871C250.791 129.598 253.683 128.112 256.323 127.418C258.814 126.771 261.012 126.45 262.906 126.45C264.202 126.45 265.422 126.574 266.568 126.824C268.713 127.317 270.458 128.231 271.801 129.573C273.301 131.058 274.047 132.839 274.047 134.923V159.81V159.81Z" fill="#646464"/>
<path d="M37.6595 109.935C34.85 109.947 32.1674 110.186 29.8071 110.601C22.8533 111.823 21.5907 114.378 21.5907 119.092V125.318H38.0235V127.393H15.4233C10.6476 127.393 6.46528 130.246 5.15737 135.675C3.64844 141.897 3.58164 145.779 5.15737 152.276C6.32554 157.112 9.11541 160.557 13.891 160.557H19.5413V153.095C19.5413 147.703 24.2341 142.947 29.8071 142.947H46.2209C50.79 142.947 54.4373 139.208 54.4373 134.647V119.092C54.4373 114.665 50.6803 111.339 46.2209 110.601C43.3973 110.134 40.4689 109.921 37.6595 109.935V109.935ZM28.7726 114.941C30.4703 114.941 31.856 116.342 31.856 118.063C31.856 119.779 30.4697 121.167 28.7726 121.167C27.0694 121.167 25.6891 119.78 25.6891 118.063C25.6891 116.342 27.0694 114.941 28.7726 114.941Z" fill="url(#paint0_linear)"/>
<path d="M56.4868 127.392V134.646C56.4868 140.269 51.6904 145.002 46.221 145.002H29.8072C25.3111 145.002 21.5908 148.827 21.5908 153.303V168.857C21.5908 173.284 25.463 175.888 29.8072 177.157C35.0088 178.678 39.9971 178.953 46.221 177.157C50.358 175.967 54.4373 173.57 54.4373 168.857V162.632H38.0236V160.557H62.6537C67.43 160.557 69.2092 157.245 70.8701 152.275C72.5862 147.159 72.5132 142.238 70.8701 135.674C69.6897 130.948 67.4355 127.392 62.6537 127.392H56.4868V127.392ZM47.2549 166.782C48.9581 166.782 50.3383 168.169 50.3383 169.885C50.3383 171.607 48.9581 173.007 47.2549 173.007C45.5572 173.007 44.1715 171.607 44.1715 169.885C44.1715 168.17 45.5578 166.782 47.2549 166.782Z" fill="url(#paint1_linear)"/>
<path d="M284.68 122.43H285.638V116.462H287.905V115.751H282.412V116.462H284.68V122.43H284.68ZM288.754 122.43H289.572V116.98L291.347 122.43H292.257L294.107 116.998V122.43H295V115.751H293.819L291.797 121.474L290.074 115.751H288.754V122.43" fill="#646464"/>
<path opacity="0.444" d="M60.2315 187.731C60.2315 190.076 50.372 191.976 38.2092 191.976C26.047 191.976 16.1875 190.076 16.1875 187.731C16.1875 185.387 26.047 183.486 38.2092 183.486C50.372 183.486 60.2315 185.387 60.2315 187.731Z" fill="url(#paint2_radial)"/>
<defs>
<linearGradient id="paint0_linear" x1="2.37976" y1="111.879" x2="40.0819" y2="144.196" gradientUnits="userSpaceOnUse">
<stop stop-color="#5A9FD4"/>
<stop offset="1" stop-color="#306998"/>
</linearGradient>
<linearGradient id="paint1_linear" x1="54.4925" y1="163.979" x2="41.0051" y2="144.967" gradientUnits="userSpaceOnUse">
<stop stop-color="#FFD43B"/>
<stop offset="1" stop-color="#FFE873"/>
</linearGradient>
<radialGradient id="paint2_radial" cx="0" cy="0" r="1" gradientUnits="userSpaceOnUse" gradientTransform="translate(38.2022 187.634) rotate(-90) scale(4.24378 18.7699)">
<stop stop-color="#B8B8B8" stop-opacity="0.498"/>
<stop offset="1" stop-color="#7F7F7F" stop-opacity="0"/>
</radialGradient>
</defs>
</svg>
