<svg width="300" height="300" viewBox="0 0 300 300" fill="none" xmlns="http://www.w3.org/2000/svg">
<circle cx="150" cy="150" r="150" fill="white"/>
<path d="M134.774 98.9422V104.009L146.891 102.769H151.355V110.988L143.844 113.291L133.64 115.736L135.164 120.696L144.942 116.94L151.39 114.956V128.419H146.926L134.809 127.179V132.246H171.798V127.179L159.681 128.419H155.146V114.956L161.559 116.905L171.372 120.66L172.896 115.7L162.728 113.256L155.181 110.953V102.733H159.645L171.762 103.973V98.9067L134.774 98.9422ZM123.72 163.636V196.94H128.149V181.174H147.351V176.781H128.149V168.065H149.761V163.636H123.72ZM179.946 184.292C179.946 184.646 179.84 193.043 171.372 193.043C163.507 193.043 162.834 186.347 162.799 184.292V163.636H158.37V184.292C158.37 190.315 161.771 197.365 171.372 197.365C180.974 197.365 184.375 190.315 184.375 184.292V163.636H179.946V184.292ZM222.426 174.159C222.426 168.915 218.777 163.636 210.628 163.636H196.35V196.94H200.779V184.681H209.317L216.793 196.94H222.143L214.348 184.221C216.439 183.725 222.426 181.67 222.426 174.159ZM200.814 180.253V168.03H210.664C213.427 168.03 218.033 168.844 218.033 174.159C218.033 179.19 214.03 180.253 210.664 180.253H200.814ZM105.474 163.636V190.102H104.517L88.8927 163.636H83.1532V196.94H87.5818V171.325H88.5384L103.454 196.94H109.902V163.636H105.474ZM47.334 163.636V167.746H57.1834V192.83H47.334V196.94H71.4614V192.83H61.6121V167.746H71.4614V163.636H47.334ZM247.794 163.601H242.479L230.363 196.94H235.004L238.653 186.843H251.549L255.199 196.94H259.875L247.794 163.601ZM240.247 182.52L244.605 170.474H245.668L250.026 182.52H240.247Z" fill="#FF6B4A"/>
</svg>
