<svg width="300" height="300" viewBox="0 0 300 300" fill="none" xmlns="http://www.w3.org/2000/svg">
<circle cx="150" cy="150" r="150" fill="white"/>
<path fill-rule="evenodd" clip-rule="evenodd" d="M102.365 184.436V175.838C102.365 174.709 103.074 173.801 104.248 173.801H104.573C105.746 173.801 106.452 174.71 106.452 175.838V193.94C106.452 198.354 104.263 201.866 100.45 204.104C98.7026 205.135 96.7084 205.677 94.6778 205.672H93.8673C89.4365 205.672 85.9165 203.49 83.6674 199.692C82.6309 197.952 82.0871 195.964 82.0938 193.94V193.133C82.0938 188.717 84.2833 185.207 88.0939 182.966C89.8406 181.932 91.8359 181.39 93.8673 181.397H94.6778C97.6763 181.397 100.22 182.555 102.365 184.436V184.436ZM86.1797 193.536C86.1797 196.724 87.7306 199.122 90.5345 200.651C91.6683 201.269 92.8991 201.601 94.1927 201.601C97.3335 201.601 99.6633 200.124 101.27 197.472C102.017 196.238 102.365 194.888 102.365 193.453C102.365 190.689 101.052 188.532 98.8169 186.93C97.4617 185.959 95.9361 185.472 94.2723 185.472C90.8488 185.472 88.385 187.195 86.9064 190.257C86.4075 191.292 86.1797 192.391 86.1797 193.536V193.536ZM120.628 181.397H121.194C125.929 181.397 129.529 183.685 131.811 187.804C132.724 189.451 133.212 191.249 133.212 193.133V193.94C133.212 198.354 131.028 201.871 127.208 204.104C125.44 205.138 123.487 205.672 121.437 205.672H120.628C116.197 205.672 112.676 203.49 110.428 199.692C109.391 197.952 108.847 195.964 108.853 193.94V193.133C108.853 188.717 111.051 185.218 114.852 182.967C116.62 181.92 118.574 181.397 120.628 181.397ZM112.939 193.536C112.939 196.631 114.463 198.908 117.087 200.509C118.319 201.26 119.675 201.601 121.115 201.601C124.184 201.601 126.452 200.05 128.031 197.469C128.784 196.238 129.125 194.886 129.125 193.453C129.125 190.575 127.734 188.376 125.356 186.783C124.052 185.909 122.602 185.472 121.032 185.472C117.609 185.472 115.145 187.195 113.667 190.257C113.167 191.292 112.939 192.391 112.939 193.536V193.536ZM150.199 185.797C149.582 185.509 148.427 185.413 147.761 185.388C144.347 185.26 141.877 187.176 140.428 190.177C139.927 191.212 139.699 192.308 139.699 193.453C139.699 196.941 141.537 199.383 144.661 200.871C145.802 201.415 147.275 201.518 148.522 201.518C149.619 201.518 151.17 200.848 152.143 200.387L152.312 200.308H153.067L153.151 200.324C154.08 200.517 154.781 201.104 154.781 202.1V202.504C154.781 204.983 150.235 205.55 148.5 205.671C142.377 206.093 137.798 202.743 136.053 196.923C135.749 195.913 135.613 194.909 135.613 193.856V193.051C135.613 188.635 137.812 185.137 141.612 182.888C143.38 181.842 145.334 181.317 147.387 181.317H148.197C150.375 181.317 152.381 181.933 154.179 183.157L154.327 183.259L154.42 183.412C154.614 183.733 154.781 184.104 154.781 184.485V184.888C154.781 185.928 154.001 186.487 153.059 186.668L152.981 186.681H152.739C152.13 186.681 150.743 186.052 150.199 185.797V185.797ZM163.453 188.554C165.041 186.97 166.633 185.39 168.244 183.832C168.693 183.397 170.393 181.558 171.062 181.558H171.794L171.877 181.576C172.81 181.768 173.508 182.356 173.508 183.355V183.757C173.508 184.438 172.707 185.23 172.266 185.696C171.327 186.688 170.339 187.647 169.378 188.618L164.441 193.612C166.567 195.735 168.691 197.859 170.799 199.999C171.384 200.589 171.964 201.184 172.54 201.783C172.743 201.996 173.042 202.261 173.212 202.556C173.395 202.832 173.508 203.144 173.508 203.476V203.897L173.484 203.994C173.255 204.923 172.663 205.672 171.63 205.672H171.305C170.628 205.672 169.865 204.91 169.402 204.475C168.447 203.578 167.526 202.635 166.591 201.719L163.453 198.651V203.556C163.453 204.685 162.744 205.593 161.571 205.593H161.25C160.076 205.593 159.367 204.685 159.367 203.556V175.917C159.367 174.787 160.076 173.884 161.25 173.884H161.571C162.744 173.884 163.453 174.787 163.453 175.917V188.554V188.554ZM214.383 181.558H214.789C216.014 181.558 216.832 182.381 216.832 183.596C216.832 185.281 215.215 185.713 213.816 185.713C211.981 185.713 210.228 186.82 208.963 188.062C207.386 189.611 206.696 191.596 206.696 193.778V203.635C206.696 204.765 205.987 205.672 204.813 205.672H204.49C203.316 205.672 202.608 204.766 202.608 203.635V193.212C202.608 189.209 204.564 185.942 207.824 183.65C209.77 182.281 212 181.559 214.383 181.559V181.558ZM185.34 201.094C186.827 201.611 188.522 201.537 190.048 201.272C190.828 200.942 192.824 200.074 193.558 200.201L193.672 200.221L193.778 200.272C194.226 200.489 194.654 200.795 194.883 201.25C195.417 202.315 195.161 203.386 194.11 203.991L193.76 204.192C189.884 206.421 185.762 206.112 181.898 204.03C180.051 203.035 178.637 201.558 177.595 199.757L177.351 199.336C174.863 195.042 175.198 190.525 178.005 186.441C178.974 185.03 180.24 183.939 181.72 183.086L182.28 182.764C185.93 180.664 189.843 180.808 193.592 182.651C195.608 183.642 197.241 185.119 198.366 187.062L198.569 187.412C199.386 188.824 198.327 190.053 197.234 190.894C195.965 191.869 194.684 193.043 193.468 194.089C190.757 196.422 188.049 198.759 185.34 201.094V201.094ZM181.83 198.638C184.863 196.047 187.896 193.454 190.92 190.852C191.954 189.964 193.087 189.042 194.112 188.108C193.29 187.075 191.915 186.331 190.748 185.887C188.39 184.992 186.066 185.292 183.905 186.536C181.076 188.164 179.871 190.756 179.976 193.982C180.018 195.252 180.361 196.477 181.038 197.558C181.276 197.939 181.542 198.296 181.83 198.638ZM159.778 117.042H171.836V129.325H177.933C180.749 129.325 183.644 128.825 186.311 127.925C187.621 127.482 189.091 126.866 190.384 126.091C188.682 123.877 187.813 121.081 187.557 118.325C187.209 114.575 187.969 109.696 190.515 106.761L191.782 105.301L193.293 106.511C197.095 109.555 200.294 113.809 200.857 118.659C205.436 117.317 210.813 117.634 214.848 119.955L216.504 120.907L215.633 122.603C212.22 129.241 205.083 131.297 198.106 130.933C187.666 156.844 164.937 169.111 137.379 169.111C123.141 169.111 110.078 163.807 102.64 151.22L102.518 151.015L101.434 148.817C98.9198 143.277 98.0845 137.207 98.6508 131.142L98.8212 129.325H109.133V117.042H121.191V105.026H145.308V93.0106H159.778V117.042Z" fill="#364548"/>
<path fill-rule="evenodd" clip-rule="evenodd" d="M198.844 121.586C199.652 115.325 194.95 110.407 192.033 108.071C188.673 111.943 188.151 122.09 193.423 126.362C190.48 128.967 184.28 131.327 177.932 131.327H100.652C100.035 137.931 101.198 144.012 103.856 149.217L104.735 150.82C105.291 151.761 105.9 152.67 106.557 153.544C109.734 153.747 112.663 153.817 115.343 153.759H115.344C120.611 153.643 124.908 153.023 128.165 151.898C128.395 151.827 128.645 151.848 128.86 151.956C129.075 152.064 129.24 152.252 129.318 152.479C129.397 152.706 129.385 152.955 129.283 153.172C129.181 153.39 128.998 153.56 128.773 153.646C128.34 153.796 127.888 153.936 127.422 154.069H127.421C124.856 154.799 122.106 155.29 118.558 155.508C118.769 155.512 118.339 155.539 118.338 155.539C118.217 155.547 118.065 155.565 117.944 155.571C116.547 155.649 115.04 155.666 113.499 155.666C111.814 155.666 110.154 155.634 108.299 155.539L108.251 155.571C114.69 162.783 124.758 167.108 137.378 167.108C164.087 167.108 186.742 155.31 196.774 128.823C203.891 129.551 210.731 127.742 213.843 121.689C208.887 118.84 202.513 119.748 198.844 121.586" fill="#22A0C8"/>
<path fill-rule="evenodd" clip-rule="evenodd" d="M198.843 121.586C199.652 115.325 194.95 110.407 192.033 108.071C188.673 111.943 188.151 122.09 193.423 126.362C190.48 128.967 184.28 131.327 177.932 131.327H105.228C104.913 141.441 108.679 149.117 115.343 153.759H115.344C120.611 153.643 124.908 153.023 128.165 151.898C128.395 151.827 128.644 151.848 128.86 151.956C129.075 152.064 129.239 152.252 129.318 152.479C129.397 152.706 129.385 152.955 129.283 153.172C129.181 153.39 128.998 153.56 128.773 153.646C128.34 153.796 127.888 153.936 127.422 154.069H127.421C124.856 154.799 121.87 155.353 118.322 155.571C118.321 155.571 118.236 155.489 118.235 155.489C127.325 160.136 140.504 160.119 155.615 154.335C172.559 147.848 188.326 135.491 199.327 121.357C199.161 121.432 199 121.508 198.843 121.586" fill="#37B1D9"/>
<path fill-rule="evenodd" clip-rule="evenodd" d="M100.797 139.351C101.277 142.888 102.316 146.2 103.855 149.217L104.735 150.82C105.291 151.761 105.899 152.67 106.557 153.544C109.734 153.747 112.664 153.817 115.344 153.759C120.611 153.643 124.908 153.023 128.165 151.898C128.395 151.827 128.644 151.848 128.86 151.956C129.075 152.064 129.239 152.252 129.318 152.479C129.397 152.706 129.384 152.955 129.283 153.172C129.181 153.39 128.998 153.56 128.773 153.646C128.34 153.796 127.888 153.936 127.422 154.069H127.42C124.856 154.799 121.885 155.321 118.337 155.54C118.216 155.547 118.003 155.549 117.88 155.556C116.485 155.633 114.993 155.681 113.452 155.681C111.767 155.681 110.043 155.649 108.189 155.555C114.628 162.767 124.758 167.108 137.378 167.108C160.244 167.108 180.137 158.459 191.684 139.351H100.797Z" fill="#1B81A5"/>
<path fill-rule="evenodd" clip-rule="evenodd" d="M105.924 139.351C107.291 145.562 110.576 150.438 115.344 153.759C120.611 153.643 124.908 153.023 128.165 151.898C128.395 151.827 128.644 151.848 128.86 151.956C129.075 152.064 129.239 152.252 129.318 152.479C129.397 152.706 129.385 152.955 129.283 153.172C129.181 153.39 128.998 153.56 128.773 153.646C128.34 153.796 127.888 153.936 127.422 154.069H127.42C124.856 154.799 121.823 155.321 118.274 155.54C127.364 160.185 140.505 160.118 155.615 154.335C164.756 150.835 173.554 145.626 181.447 139.351H105.924Z" fill="#1D91B4"/>
<path fill-rule="evenodd" clip-rule="evenodd" d="M111.141 119.045H121.592V129.459H111.141V119.045ZM112.011 119.913H112.836V128.591H112.011V119.913ZM113.562 119.913H114.42V128.591H113.562V119.913H113.562ZM115.145 119.913H116.003V128.591H115.145V119.913ZM116.729 119.913H117.586V128.591H116.729V119.913ZM118.313 119.913H119.17V128.591H118.313V119.913ZM119.896 119.913H120.721V128.591H119.896V119.913ZM123.199 107.029H133.65V117.442H123.198V107.029H123.199ZM124.07 107.897H124.894V116.575H124.07V107.897ZM125.62 107.897H126.478V116.575H125.621V107.897H125.62ZM127.204 107.897H128.061V116.575H127.204V107.897ZM128.787 107.897H129.645V116.575H128.787V107.897ZM130.371 107.897H131.229V116.575H130.371V107.897ZM131.954 107.897H132.78V116.575H131.954V107.897Z" fill="#23A3C2"/>
<path fill-rule="evenodd" clip-rule="evenodd" d="M123.199 119.045H133.65V129.459H123.198V119.045H123.199ZM124.07 119.913H124.894V128.591H124.07V119.913ZM125.62 119.913H126.478V128.591H125.621V119.913H125.62ZM127.203 119.913H128.061V128.591H127.203V119.913ZM128.787 119.913H129.644V128.591H128.787V119.913ZM130.371 119.913H131.229V128.591H130.371V119.913ZM131.954 119.913H132.78V128.591H131.954V119.913Z" fill="#34BBDE"/>
<path fill-rule="evenodd" clip-rule="evenodd" d="M135.258 119.045H145.709V129.459H135.258V119.045ZM136.128 119.913H136.953V128.591H136.128V119.913ZM137.679 119.913H138.536V128.591H137.679V119.913ZM139.262 119.913H140.12V128.591H139.262V119.913ZM140.846 119.913H141.704V128.591H140.846V119.913ZM142.429 119.913H143.288V128.591H142.429V119.913ZM144.013 119.913H144.838V128.591H144.013V119.913V119.913Z" fill="#23A3C2"/>
<path fill-rule="evenodd" clip-rule="evenodd" d="M135.258 107.029H145.709V117.442H135.258V107.029ZM136.128 107.897H136.953V116.575H136.128V107.897ZM137.679 107.897H138.536V116.575H137.679V107.897ZM139.262 107.897H140.12V116.575H139.262V107.897ZM140.846 107.897H141.704V116.575H140.846V107.897ZM142.429 107.897H143.288V116.575H142.429V107.897ZM144.013 107.897H144.838V116.575H144.013V107.897V107.897ZM147.316 119.045H157.767V129.459H147.316V119.045ZM148.187 119.913H149.011V128.591H148.187V119.913ZM149.738 119.913H150.595V128.591H149.738V119.913ZM151.321 119.913H152.178V128.591H151.321V119.913ZM152.904 119.913H153.762V128.591H152.904V119.913ZM154.488 119.913H155.346V128.591H154.488V119.913ZM156.072 119.913H156.896V128.591H156.072V119.913Z" fill="#34BBDE"/>
<path fill-rule="evenodd" clip-rule="evenodd" d="M147.316 107.029H157.767V117.442H147.316V107.029ZM148.188 107.897H149.012V116.575H148.188V107.897ZM149.738 107.897H150.595V116.575H149.738V107.897ZM151.321 107.897H152.179V116.575H151.321V107.897ZM152.905 107.897H153.763V116.575H152.905V107.897ZM154.488 107.897H155.346V116.575H154.488V107.897ZM156.072 107.897H156.897V116.575H156.072V107.897Z" fill="#23A3C2"/>
<path fill-rule="evenodd" clip-rule="evenodd" d="M147.316 95.0126H157.767V105.428H147.316V95.0126ZM148.188 95.8802H149.012V104.559H148.188V95.8796V95.8802ZM149.738 95.8802H150.595V104.559H149.738V95.8796V95.8802ZM151.321 95.8802H152.179V104.559H151.321V95.8796V95.8802ZM152.905 95.8802H153.763V104.559H152.905V95.8796V95.8802ZM154.488 95.8802H155.346V104.559H154.488V95.8796V95.8802ZM156.072 95.8802H156.897V104.559H156.072V95.8796V95.8802Z" fill="#34BBDE"/>
<path fill-rule="evenodd" clip-rule="evenodd" d="M159.374 119.045H169.825V129.459H159.374V119.045ZM160.244 119.913H161.069V128.591H160.245V119.913H160.244ZM161.795 119.913H162.653V128.591H161.795V119.913H161.795ZM163.379 119.913H164.237V128.591H163.379V119.913ZM164.962 119.913H165.82V128.591H164.962V119.913ZM166.546 119.913H167.403V128.591H166.546V119.913ZM168.129 119.913H168.954V128.591H168.129V119.913Z" fill="#23A3C2"/>
<path fill-rule="evenodd" clip-rule="evenodd" d="M132.996 146.343C133.378 146.338 133.757 146.408 134.112 146.551C134.466 146.693 134.789 146.904 135.06 147.171C135.332 147.438 135.548 147.757 135.695 148.108C135.843 148.459 135.918 148.836 135.918 149.217C135.918 149.597 135.842 149.974 135.695 150.325C135.548 150.676 135.332 150.995 135.06 151.262C134.788 151.529 134.465 151.74 134.111 151.882C133.756 152.024 133.377 152.094 132.995 152.089C132.237 152.079 131.514 151.771 130.982 151.234C130.45 150.696 130.151 149.971 130.151 149.215C130.152 148.46 130.45 147.735 130.983 147.198C131.515 146.66 132.238 146.353 132.996 146.343Z" fill="#D3ECEC"/>
<path fill-rule="evenodd" clip-rule="evenodd" d="M132.996 147.158C133.26 147.158 133.511 147.207 133.743 147.297C133.583 147.39 133.458 147.532 133.388 147.703C133.317 147.873 133.305 148.062 133.353 148.241C133.4 148.419 133.506 148.576 133.653 148.689C133.799 148.801 133.979 148.863 134.164 148.863C134.483 148.863 134.76 148.687 134.904 148.426C135.073 148.834 135.107 149.285 135 149.714C134.893 150.142 134.65 150.524 134.308 150.805C133.965 151.085 133.542 151.248 133.099 151.27C132.657 151.292 132.219 151.171 131.851 150.926C131.482 150.681 131.203 150.325 131.053 149.909C130.904 149.494 130.893 149.041 131.021 148.619C131.149 148.196 131.411 147.826 131.766 147.563C132.122 147.3 132.553 147.158 132.996 147.158V147.158ZM82 140.389H216.118C213.198 139.651 206.879 138.654 207.921 134.84C202.61 140.963 189.805 139.136 186.573 136.117C182.974 141.318 162.023 139.341 160.562 135.289C156.05 140.565 142.069 140.565 137.557 135.289C136.095 139.341 115.144 141.318 111.545 136.116C108.313 139.136 95.5084 140.963 90.1981 134.841C91.2401 138.654 84.921 139.651 82 140.39" fill="#364548"/>
<path fill-rule="evenodd" clip-rule="evenodd" d="M140.66 167.046C133.519 163.67 129.601 159.08 127.42 154.07C124.768 154.824 121.58 155.306 117.875 155.513C116.48 155.591 115.012 155.631 113.472 155.631C111.696 155.631 109.824 155.578 107.859 155.475C114.407 161.996 122.463 167.016 137.378 167.108C138.479 167.108 139.572 167.087 140.66 167.046" fill="#BDD9D7"/>
<path fill-rule="evenodd" clip-rule="evenodd" d="M130.073 158.693C129.085 157.357 128.127 155.677 127.422 154.069C124.77 154.824 121.581 155.306 117.876 155.514C120.421 156.89 124.06 158.165 130.073 158.693" fill="#D3ECEC"/>
</svg>
