<svg width="300" height="300" viewBox="0 0 300 300" fill="none" xmlns="http://www.w3.org/2000/svg">
<circle cx="150" cy="150" r="150" fill="white"/>
<path d="M49.9349 127.504C49.9349 126.658 49.2778 126 48.4329 126H4.50192C3.65709 126 3 126.658 3 127.504V171.496C3 172.342 3.65709 173 4.50192 173H48.4329C49.2778 173 49.9349 172.342 49.9349 171.496V127.504V127.504ZM42.8008 155.516L37.2625 153.542C36.7931 154.858 36.136 155.986 35.1973 157.114L39.7031 160.874C38.3889 162.472 36.7931 163.788 35.0096 164.822L32.0996 159.746C30.9732 160.404 29.659 160.874 28.251 161.156L29.2835 166.984C28.251 167.172 27.2184 167.266 26.1858 167.266C25.1533 167.266 24.1207 167.172 23.182 166.984L24.2146 161.156C22.8065 160.874 21.5862 160.404 20.3659 159.746L17.4559 164.822C15.6724 163.788 14.0766 162.472 12.7624 160.874L17.2682 157.114C16.4234 156.08 15.6724 154.858 15.2031 153.542L9.66476 155.516C9.00767 153.542 8.53831 151.568 8.53831 149.5H14.2644C14.2644 148.09 14.6398 146.774 15.1092 145.458L9.75862 143.484C10.4157 141.51 11.4483 139.724 12.7624 138.22L17.2682 141.98C18.113 140.946 19.2395 140.006 20.3659 139.348L17.4559 134.272C19.2395 133.238 21.2107 132.486 23.182 132.204L24.2146 138.032C24.8717 137.938 25.5287 137.844 26.2797 137.844C26.9368 137.844 27.6877 137.938 28.251 138.032L29.2835 132.11C31.3487 132.486 33.2261 133.144 35.0096 134.178L32.0996 139.254C33.3199 139.912 34.3525 140.852 35.1973 141.886L39.7031 138.126C41.0172 139.724 42.0498 141.51 42.8008 143.39L37.2625 145.458C37.7318 146.68 38.0134 147.996 38.0134 149.5H43.9272C43.9272 151.568 43.5517 153.636 42.8008 155.516Z" fill="#471F66"/>
<path d="M68.4271 138.126C73.1206 138.126 76.1244 140.288 76.1244 143.86C76.1244 146.398 74.6225 148.372 72.0881 148.936C75.1858 149.5 76.9693 151.662 76.9693 154.764C76.9693 158.712 73.7777 161.062 68.6149 161.062H58.5708V138.126H68.4271V138.126ZM62.4195 147.62H68.3333C70.7739 147.62 72.2758 146.492 72.2758 144.518C72.2758 142.544 70.7739 141.51 68.3333 141.51H62.4195V147.62ZM62.4195 157.584H68.3333C71.3371 157.584 73.1206 156.362 73.1206 154.294C73.1206 152.226 71.3371 151.098 68.3333 151.098H62.4195V157.584Z" fill="#471F66"/>
<path d="M94.6171 157.49V160.968H80.9121V138.126H84.7608V157.49H94.6171V157.49Z" fill="#471F66"/>
<path d="M119.962 149.594C119.962 156.174 114.705 161.156 107.852 161.156C101 161.156 95.7432 156.08 95.7432 149.594C95.7432 143.014 101 138.032 107.852 138.032C114.705 138.032 119.962 143.014 119.962 149.594ZM99.6857 149.594C99.6857 154.106 103.44 157.772 107.946 157.772C112.452 157.772 116.113 154.2 116.113 149.594C116.113 145.082 112.452 141.51 107.946 141.51C103.44 141.51 99.6857 144.988 99.6857 149.594Z" fill="#471F66"/>
<path d="M143.242 141.51L140.989 144.33C139.299 142.544 136.952 141.416 134.606 141.416C130.006 141.416 126.439 144.988 126.439 149.406C126.439 153.824 130.006 157.49 134.606 157.49C136.859 157.49 139.205 156.456 140.989 154.764L143.242 157.302C140.895 159.558 137.609 161.062 134.418 161.062C127.753 161.062 122.59 155.986 122.59 149.406C122.59 142.92 127.847 137.938 134.606 137.938C137.797 138.032 141.083 139.348 143.242 141.51Z" fill="#471F66"/>
<path d="M153.661 150.91L149.813 155.234V161.062H145.964V138.126H149.813V149.97L160.701 138.126H165.207L156.383 147.902L165.77 160.968H161.171L153.661 150.91Z" fill="#471F66"/>
<path d="M187.454 141.51L185.201 144.33C183.512 142.544 181.165 141.416 178.818 141.416C174.218 141.416 170.651 144.988 170.651 149.406C170.651 153.824 174.218 157.49 178.818 157.49C181.071 157.49 183.418 156.456 185.201 154.764L187.454 157.302C185.107 159.558 181.822 161.062 178.63 161.062C171.966 161.062 166.803 155.986 166.803 149.406C166.803 142.92 172.059 137.938 178.818 137.938C182.01 138.032 185.295 139.348 187.454 141.51Z" fill="#0B8ED8"/>
<path d="M200.783 160.968H196.935V153.448L188.393 138.032H192.241L198.812 149.218L205.195 138.032H209.138L200.783 153.26V160.968Z" fill="#0B8ED8"/>
<path d="M220.683 138.126C226.41 138.126 229.695 140.946 229.695 145.928C229.695 151.098 226.41 154.106 220.683 154.106H215.427V160.968H211.578V138.126H220.683ZM215.427 150.628H220.496C224.063 150.628 226.034 149.124 226.034 146.022C226.034 143.014 224.063 141.604 220.496 141.604H215.427V150.628Z" fill="#0B8ED8"/>
<path d="M248.751 160.968V151.474H236.735V160.968H232.887V138.126H236.735V148.09H248.845V138.126H252.693V160.968H248.751Z" fill="#0B8ED8"/>
<path d="M261.236 141.604V147.808H272.406V151.286H261.236V157.584H274.096V161.062H257.387V138.126H273.72V141.604H261.236V141.604Z" fill="#0B8ED8"/>
<path d="M288.364 154.106C288.082 154.106 287.707 154.106 287.331 154.106H281.887V160.968H278.038V138.126H287.331C293.151 138.126 296.53 140.946 296.53 145.928C296.53 149.594 294.841 152.132 291.837 153.354L297 160.968H292.588L288.364 154.106ZM287.331 150.628C290.898 150.628 292.869 149.124 292.869 146.022C292.869 143.014 290.804 141.604 287.331 141.604H281.887V150.628C281.887 150.628 287.331 150.628 287.331 150.628Z" fill="#0B8ED8"/>
</svg>
