<svg width="300" height="300" viewBox="0 0 300 300" fill="none" xmlns="http://www.w3.org/2000/svg">
<circle cx="150" cy="150" r="150" fill="white"/>
<g clip-path="url(#clip0)">
<path d="M182.732 101.103C179.378 99.7954 175.913 98.5991 172.448 97.7272C167.574 96.5309 162.709 95.7705 157.723 95.3346C155.346 95.1217 153.07 95.0101 150.683 95.0101H150.472C147.984 95.0101 145.818 95.1217 143.431 95.3346C138.456 95.7604 133.591 96.5207 128.717 97.7272C125.252 98.5991 121.787 99.7954 118.433 101.103C118.322 101.215 118.222 101.215 118.222 101.215C118.222 101.215 118.655 126.499 118.977 139.03C119.088 142.731 119.732 146.33 120.921 149.817C122.331 153.741 124.275 157.553 126.551 161.04C128.928 164.639 131.859 167.904 135.213 170.631C136.512 171.716 137.922 172.699 139.322 173.682C141.598 175.102 143.975 176.298 146.362 177.281C147.118 177.606 147.873 177.93 148.528 178.153C149.172 178.366 149.827 178.589 150.582 178.802C151.227 178.589 151.992 178.478 152.637 178.153C153.282 177.94 153.936 177.606 154.803 177.281C157.29 176.298 159.566 175.102 161.843 173.682C163.253 172.81 164.653 171.726 165.952 170.631C169.306 167.904 172.227 164.639 174.614 161.04C176.89 157.553 178.834 153.741 180.244 149.817C181.432 146.33 182.087 142.731 182.188 139.03C182.51 126.499 182.943 101.215 182.943 101.215C182.842 101.103 182.842 101.103 182.732 101.103Z" fill="url(#paint0_linear)"/>
<path d="M149.716 165.389H131.315C132.725 166.91 134.125 168.329 135.757 169.637C137.056 170.722 138.355 171.705 139.765 172.577C141.931 173.885 144.207 175.081 146.584 176.065C147.339 176.389 147.994 176.714 148.639 176.937C149.072 177.048 149.505 177.261 149.827 177.373L149.716 165.389ZM149.716 151.551C146.906 151.338 144.308 150.243 142.243 148.388C142.132 148.276 142.031 148.175 141.81 148.063H121.465C121.576 148.499 121.787 148.935 121.898 149.371C122.653 151.551 123.63 153.73 124.708 155.687H149.716V151.551ZM181.221 130.301H163.253V138.26H181.009C181.11 135.968 181.11 133.251 181.221 130.301ZM181.543 113.745H150.905V121.369H181.432C181.432 118.754 181.432 116.138 181.543 113.745Z" fill="#B12B28"/>
<path d="M181.221 146.542C180.788 148.175 180.244 149.706 180.244 149.706C178.834 153.629 176.89 157.441 174.614 160.929C172.237 164.528 169.306 167.792 165.952 170.519C164.653 171.604 163.243 172.587 161.843 173.571C159.566 174.99 157.189 176.186 154.802 177.17C154.047 177.494 153.292 177.819 152.637 178.042C151.992 178.255 151.338 178.478 150.582 178.691C149.938 178.478 149.172 178.366 148.528 178.042C147.883 177.829 147.228 177.494 146.362 177.17C143.875 176.186 141.598 174.99 139.322 173.571C137.912 172.699 136.512 171.614 135.213 170.519C132.403 168.228 129.905 165.612 127.74 162.672L127.85 162.784C130.016 165.835 132.614 168.563 135.424 170.844C136.724 171.928 138.134 172.912 139.644 173.895C141.81 175.315 144.086 176.511 146.463 177.494C147.218 177.819 147.974 178.143 148.628 178.366C149.283 178.589 149.928 178.802 150.683 179.015C151.328 178.802 152.093 178.579 152.738 178.366C153.382 178.153 154.037 177.819 154.903 177.494C157.391 176.511 159.667 175.315 161.943 173.895C163.353 173.023 164.753 171.939 166.053 170.844C169.407 168.116 172.327 164.852 174.714 161.253C176.991 157.765 178.935 153.953 180.345 150.03C180.566 148.935 180.888 147.739 181.221 146.542ZM181.755 102.624C181.644 102.624 181.644 102.512 181.543 102.512H181.432C178.189 101.205 174.825 100.12 171.471 99.2479C166.818 98.1631 162.054 97.2912 157.29 96.9567C154.913 96.7438 152.849 96.6322 150.472 96.6322H150.26C147.883 96.6322 145.818 96.7438 143.441 96.9567C138.678 97.3926 133.914 98.153 129.26 99.2479C125.906 100.12 122.653 101.205 119.41 102.512C116.167 103.82 119.299 102.512 119.299 102.624V102.188L119.511 102.076C122.754 100.769 126.007 99.6838 129.361 98.812C134.014 97.7272 138.778 96.8553 143.542 96.5207C145.919 96.3078 147.984 96.1963 150.361 96.1963H150.572C152.949 96.1963 155.014 96.3078 157.391 96.5207C162.155 96.9567 166.919 97.717 171.572 98.812C174.926 99.6838 178.28 100.769 181.533 102.076H181.644C181.755 102.076 181.755 102.188 181.855 102.188L181.755 102.624ZM149.716 105.675C147.662 105.675 145.708 105.787 143.542 106C138.778 106.436 134.014 107.196 129.361 108.291C126.007 109.163 122.653 110.248 119.4 111.556V111.12C122.643 109.812 125.896 108.727 129.361 107.855C134.014 106.77 138.778 105.899 143.542 105.564C145.597 105.351 147.551 105.351 149.716 105.24V105.675Z" fill="#613E18"/>
<path d="M172.67 153.082V153.294C172.67 153.406 172.67 153.406 172.56 153.507C171.804 153.72 171.15 154.055 170.616 154.491L170.505 154.602V154.491C170.505 154.379 170.616 154.278 170.717 154.166C171.15 153.73 171.804 153.406 172.67 153.082C172.67 153.183 172.67 153.183 172.67 153.082ZM169.095 151.013C168.551 151.226 168.017 151.662 167.584 152.098C167.262 152.423 167.04 152.747 166.94 153.183V153.294C167.05 152.97 167.262 152.646 167.584 152.311C168.017 151.875 168.561 151.439 169.095 151.226L169.206 151.115L169.095 151.013ZM165.308 150.243C164.553 150.679 163.797 151.439 163.364 152.311C163.153 152.747 163.042 153.183 163.042 153.73V153.842C163.042 153.406 163.153 152.97 163.364 152.534C163.797 151.662 164.442 151.013 165.207 150.577C165.318 150.365 165.318 150.253 165.318 150.03C165.409 150.141 165.409 150.141 165.308 150.243ZM160.433 151.226C160.111 151.439 159.889 151.774 159.678 152.098C159.245 152.858 159.033 153.73 159.134 154.602C159.134 153.842 159.345 153.082 159.678 152.423C159.889 152.098 160.111 151.774 160.322 151.551C160.433 151.439 160.433 151.338 160.433 151.226ZM152.527 157.765C152.527 157.765 152.638 157.765 152.527 157.765C152.205 157.441 151.983 157.005 151.983 156.681C151.872 157.117 152.094 157.552 152.416 157.877C152.426 157.877 152.527 157.877 152.527 157.765ZM168.984 141.859C168.44 142.071 168.007 142.406 167.685 142.842C167.363 143.166 167.04 143.714 166.93 144.15V144.261C167.141 143.825 167.363 143.389 167.685 143.065C168.007 142.629 168.44 142.305 168.984 142.082C169.095 141.97 169.095 141.869 169.095 141.646C169.095 141.747 169.095 141.859 168.984 141.859ZM173.859 142.619C173.214 142.73 172.67 142.943 172.127 143.379C171.694 143.704 171.371 144.14 171.049 144.576C171.049 144.576 170.938 144.687 171.049 144.789C171.26 144.353 171.593 144.028 172.026 143.805C172.57 143.369 173.104 143.156 173.758 143.045C173.869 143.045 173.869 142.933 173.869 142.933V142.619C173.97 142.619 173.97 142.619 173.859 142.619ZM177.535 145.123C177.535 145.123 177.535 145.235 177.535 145.123C176.78 145.235 176.125 145.447 175.591 145.883C175.481 145.995 175.269 146.096 175.158 146.208L175.047 146.319L175.158 146.431C175.269 146.319 175.37 146.218 175.481 146.218C176.024 145.782 176.669 145.458 177.424 145.458C177.535 145.447 177.535 145.235 177.535 145.123ZM155.78 151.338C155.78 151.439 155.78 151.439 155.78 151.338C155.78 151.774 155.458 152.098 155.135 152.21C154.702 152.423 154.158 152.321 153.836 151.997C153.625 152.321 153.192 152.433 152.759 152.321C152.436 152.21 152.114 152.108 152.003 151.774C151.892 151.662 151.892 151.449 151.892 151.449C151.57 151.449 151.137 151.561 150.815 151.561V151.885C151.137 151.885 151.57 151.885 151.892 151.774C151.892 151.885 152.003 151.987 152.003 152.098C152.215 152.311 152.436 152.534 152.759 152.646C153.192 152.757 153.625 152.534 153.836 152.321C154.158 152.646 154.702 152.757 155.135 152.534C155.458 152.423 155.679 152.098 155.78 151.774V151.338ZM156.757 160.817C156.324 161.141 155.679 161.141 155.246 160.817C155.035 160.705 154.924 160.493 154.702 160.269L154.592 160.158C154.269 160.482 153.836 160.594 153.403 160.594C152.97 160.594 152.426 160.269 152.215 159.945C152.003 159.621 151.892 159.296 151.892 158.962C151.892 159.398 152.003 159.834 152.215 160.269C152.426 160.705 152.859 160.918 153.292 161.03C153.725 161.03 154.158 160.918 154.592 160.594C154.592 160.594 154.702 160.594 154.702 160.705C154.813 160.918 155.025 161.141 155.246 161.253C155.679 161.577 156.324 161.577 156.757 161.253C157.19 160.928 157.512 160.381 157.512 159.834C157.402 160.158 157.19 160.594 156.757 160.817ZM168.007 163.108C167.685 163.22 167.363 163.433 167.03 163.656C166.597 163.98 166.164 164.528 165.953 165.075C166.164 164.639 166.496 164.203 166.93 163.879C167.252 163.666 167.574 163.554 167.907 163.331C168.118 163.433 168.118 163.21 168.007 163.108C168.118 163.108 168.118 163.108 168.007 163.108ZM165.519 161.577C165.519 161.689 165.409 161.689 165.519 161.577C164.442 161.902 163.576 162.561 163.032 163.534V163.645H163.143C163.686 162.774 164.442 162.125 165.419 161.79C165.409 161.902 165.519 161.8 165.519 161.577ZM160.977 161.253C160.544 161.689 160.111 162.125 159.899 162.672C159.688 163.108 159.577 163.544 159.688 164.092V164.203C159.688 163.767 159.799 163.443 159.899 163.118C160.222 162.571 160.544 162.135 160.977 161.699C160.977 161.466 161.088 161.364 160.977 161.253ZM157.079 162.885C156.646 163.433 156.435 164.081 156.535 164.842C156.535 164.294 156.646 163.645 157.079 163.21C157.19 162.997 157.19 162.885 157.079 162.885C157.079 162.774 157.079 162.774 157.079 162.885ZM155.125 166.697C155.236 166.586 155.236 166.586 155.125 166.484C155.015 166.16 154.803 165.937 154.803 165.612C154.692 165.399 154.692 165.065 154.692 164.74C154.692 165.065 154.692 165.389 154.803 165.825C154.914 166.15 154.914 166.484 155.125 166.697ZM157.079 170.509C156.757 170.833 156.324 170.833 156.002 170.722C155.679 170.61 155.357 170.398 155.135 170.073H155.025C154.813 170.621 154.38 170.945 153.836 171.158C153.514 171.158 153.081 171.046 152.859 170.833C152.638 170.621 152.426 170.286 152.426 169.962C152.426 170.833 152.537 170.945 152.859 171.158C153.182 171.371 153.504 171.482 153.937 171.482C154.481 171.269 154.914 170.935 155.125 170.398C155.125 170.398 155.236 170.286 155.236 170.398C155.448 170.722 155.78 170.945 156.102 171.046C156.535 171.158 156.969 171.046 157.18 170.833C157.502 170.509 157.613 170.073 157.613 169.637C157.512 169.972 157.291 170.296 157.079 170.509ZM152.859 168.877C152.97 168.877 152.97 168.765 152.97 168.765V168.654C152.537 168.441 152.104 168.005 152.104 167.569C152.094 168.005 152.426 168.552 152.859 168.877ZM121.244 117.669C121.244 117.669 121.355 117.557 121.244 117.557C121.133 117.345 121.133 117.233 121.133 117.01C121.143 117.121 121.244 117.334 121.244 117.669ZM122.221 134.884C122.332 134.772 122.332 134.772 122.332 134.671C122.221 134.458 122.12 134.346 122.009 134.123C122.009 134.012 121.898 133.91 121.898 133.687C121.898 133.9 121.898 134.235 122.009 134.448C121.999 134.66 122.11 134.772 122.221 134.884ZM126.763 136.303C126.763 136.739 126.552 137.063 126.119 137.175C125.796 137.388 125.363 137.499 124.93 137.388C124.608 137.276 124.386 137.063 124.175 136.84C124.064 136.729 123.963 136.84 123.963 136.952C123.752 137.063 123.419 137.276 123.208 137.388C122.664 137.601 122.019 137.499 121.697 136.952C121.486 136.739 121.486 136.404 121.375 136.191C121.375 136.627 121.486 136.952 121.586 137.276C121.909 137.824 122.563 137.925 123.097 137.712C123.419 137.601 123.641 137.499 123.852 137.276C123.963 137.165 123.963 137.063 124.064 137.165C124.275 137.378 124.608 137.601 124.819 137.712C125.252 137.824 125.685 137.712 126.008 137.499C126.662 137.388 126.874 136.84 126.763 136.303ZM125.575 127.797C125.575 128.233 125.363 128.557 124.93 128.78C124.285 129.216 123.52 128.993 123.198 128.344C122.875 127.696 122.986 128.233 122.986 128.344C122.664 128.557 122.12 128.78 121.687 128.669C121.254 128.669 120.821 128.344 120.71 127.908C120.599 127.797 120.599 127.696 120.599 127.473C120.599 127.685 120.599 127.908 120.71 128.121C120.821 128.557 121.254 128.882 121.687 128.882C122.12 128.882 122.664 128.77 122.986 128.446H123.198C123.52 129.095 124.386 129.318 125.041 128.993C125.363 128.892 125.575 128.669 125.575 127.797ZM121.465 126.165C121.576 126.165 121.576 126.165 121.465 126.165C121.576 126.053 121.576 126.053 121.576 125.952C121.365 125.739 121.254 125.516 121.254 125.191C121.244 125.506 121.355 125.84 121.465 126.165ZM127.962 128.344C127.529 128.78 127.206 129.429 126.985 130.088C126.874 130.524 126.874 131.072 126.985 131.508C126.985 131.183 126.985 130.747 127.096 130.423C127.206 129.774 127.529 129.226 127.962 128.679V128.344C127.962 128.344 128.062 128.233 127.962 128.344ZM132.071 126.925C130.772 127.685 130.127 129.105 130.339 130.524C130.228 129.216 130.883 127.908 132.071 127.26C132.182 127.249 132.071 127.037 132.071 126.925ZM134.126 129.429L134.236 129.541H134.347C134.78 128.344 135.646 127.361 136.623 126.601V126.165C136.623 126.165 136.623 126.276 136.513 126.276C135.536 127.037 134.67 128.121 134.126 129.429ZM128.284 120.173C127.962 120.386 127.639 120.721 127.418 121.045C126.985 121.694 126.773 122.566 126.874 123.438V123.549C126.874 122.789 126.985 122.13 127.418 121.481C127.629 121.156 127.851 120.832 128.173 120.721L128.284 120.173ZM132.615 119.078C132.182 119.291 131.749 119.727 131.426 120.062C130.993 120.609 130.782 121.258 130.56 121.917C130.56 122.028 130.56 122.13 130.671 122.13C130.782 121.582 131.104 121.045 131.426 120.497C131.749 120.062 132.071 119.737 132.504 119.413C132.615 119.413 132.615 119.301 132.615 119.2V118.987C132.726 118.977 132.726 118.977 132.615 119.078ZM137.701 118.977C137.057 118.977 136.402 119.19 135.858 119.626C135.213 119.95 134.78 120.609 134.67 121.258C134.67 121.369 134.67 121.471 134.78 121.471C134.992 120.822 135.425 120.386 135.969 119.95C136.513 119.626 137.046 119.301 137.701 119.301C137.812 119.301 137.812 119.19 137.812 119.088V118.875L137.701 118.977ZM139.867 121.369L140.078 121.258C140.723 120.822 141.377 120.609 142.133 120.497C142.244 120.497 142.244 120.497 142.244 120.285V120.072H142.133C141.267 120.285 140.4 120.619 139.645 121.156C139.534 121.268 139.433 121.369 139.645 121.369H139.867ZM129.362 110.694C128.717 111.13 128.062 111.677 127.629 112.326C127.196 112.975 126.985 113.847 127.085 114.617H127.196C127.196 113.969 127.408 113.31 127.841 112.661C128.385 112.012 128.919 111.464 129.573 111.028V110.481C129.472 110.582 129.472 110.694 129.362 110.694ZM134.992 109.386C134.347 109.822 133.803 110.258 133.259 110.805C132.716 111.353 132.393 112.113 132.393 112.874C132.393 112.874 132.393 112.985 132.504 112.985H132.615C132.726 112.336 133.048 111.789 133.481 111.241C134.025 110.694 134.559 110.258 135.103 109.934V109.721L134.992 109.386ZM140.844 109.052C139.977 109.264 139.222 109.812 138.467 110.359C138.034 110.907 137.711 111.444 137.6 112.215H137.711C137.822 111.667 138.144 111.13 138.577 110.795C139.222 110.146 140.088 109.71 140.954 109.487C141.065 109.487 141.065 109.376 141.065 109.275V108.95C140.944 108.95 140.944 109.052 140.844 109.052ZM145.708 111.343C145.064 111.343 144.298 111.454 143.654 111.556C143.221 111.667 142.787 111.992 142.465 112.316V112.428L142.677 112.539C142.888 112.326 143.221 112.103 143.543 111.992C144.187 111.88 144.953 111.779 145.597 111.779L145.708 111.667V111.343C145.819 111.343 145.819 111.343 145.708 111.343ZM125.685 119.19C125.575 119.737 125.363 119.737 124.93 120.062C124.608 120.274 124.064 120.386 123.631 120.274C123.309 120.163 123.087 120.062 122.986 119.839H122.875C122.664 120.051 122.332 120.163 122.009 120.274C121.465 120.487 120.821 120.274 120.498 119.839C120.498 119.839 120.498 119.727 120.388 119.727V119.403V119.514C120.388 119.839 120.388 120.163 120.599 120.497C120.921 120.933 121.576 121.146 122.11 121.045C122.432 120.933 122.654 120.721 122.976 120.609H123.087C123.52 121.258 124.386 121.369 125.031 120.933H125.142C125.353 120.822 125.575 120.609 125.685 120.285V119.19C125.685 119.19 125.685 119.078 125.685 119.19ZM145.386 116.027C145.386 116.138 145.275 116.138 145.174 116.239C145.064 116.239 145.064 116.239 144.963 116.128C143.553 114.932 141.821 114.273 139.987 114.171C134.901 114.283 129.916 115.591 125.484 117.872C125.484 117.872 125.373 117.983 125.484 117.983L125.696 118.196C130.238 115.905 135.113 114.597 140.199 114.496C142.042 114.607 143.774 115.256 145.174 116.452C145.174 116.564 145.285 116.564 145.386 116.564C145.487 116.564 145.497 116.351 145.497 116.351C145.497 116.027 145.608 115.804 145.608 115.479C145.497 115.702 145.386 115.925 145.386 116.027ZM137.913 123.985C137.369 123.772 136.835 123.661 136.291 123.661C132.504 123.772 128.717 124.857 125.353 126.712C125.353 126.712 125.242 126.824 125.242 126.925C125.242 127.026 125.353 127.138 125.353 127.249L125.464 127.138C128.818 125.181 132.504 124.198 136.402 124.086C136.946 124.086 137.379 124.198 137.913 124.411H138.023L137.913 123.985C138.023 123.985 138.023 123.985 137.913 123.985ZM138.023 131.609C138.023 131.72 137.913 131.72 137.913 131.72C135.969 131.609 133.904 131.832 132.071 132.369C130.016 133.018 128.173 133.789 126.33 134.873C126.219 134.985 126.219 134.985 126.33 135.086L126.441 135.198C128.284 134.113 130.117 133.343 132.182 132.694C134.126 132.146 136.08 131.822 138.023 131.933H138.134L138.023 131.609ZM158.157 149.047C157.402 149.594 156.535 150.131 155.558 150.466L155.669 150.679C156.535 150.354 157.291 149.807 158.046 149.259H158.157C159.456 148.935 164.653 147.08 167.796 146.968C169.74 146.968 171.694 147.404 173.426 148.388C174.292 148.935 175.158 149.584 175.803 150.344C175.803 150.344 175.803 150.456 175.914 150.456C175.914 150.456 176.024 150.456 176.024 150.344C176.236 149.797 176.347 149.259 176.347 148.6C176.347 149.036 176.236 149.584 176.024 150.02L175.914 150.131C175.803 150.131 175.803 150.02 175.803 150.02C175.158 149.259 174.292 148.6 173.426 148.063C171.694 147.08 169.75 146.644 167.796 146.644C164.653 146.644 159.456 148.6 158.157 148.935C158.268 149.047 158.157 149.047 158.157 149.047ZM171.694 158.414C171.583 158.526 171.482 158.526 171.26 158.526C170.827 157.978 170.394 157.542 169.85 157.106C169.206 156.559 168.44 156.235 167.685 156.022C166.496 155.809 165.197 155.697 164.009 155.91C161.632 156.234 159.356 156.995 157.19 158.303L157.079 158.414L157.19 158.526C159.245 157.329 161.632 156.569 164.009 156.235C165.197 156.022 166.496 156.022 167.685 156.346C168.44 156.559 169.196 156.893 169.85 157.431C170.394 157.867 170.827 158.303 171.26 158.85C171.371 158.85 171.583 158.85 171.694 158.739C171.804 158.414 171.905 158.191 171.905 157.867C171.905 158.09 171.804 158.313 171.694 158.414ZM166.607 167.569H166.396C166.073 167.245 165.64 166.92 165.207 166.586C164.13 166.038 162.83 165.825 161.632 166.038C159.899 166.363 158.167 167.022 156.757 168.218C156.646 168.329 156.646 168.431 156.646 168.431L156.757 168.542C158.167 167.457 159.789 166.687 161.632 166.363C162.82 166.251 164.12 166.363 165.207 166.91C165.64 167.123 166.073 167.457 166.396 167.893H166.607C166.93 167.569 167.04 167.245 167.04 166.809C167.04 167.021 166.819 167.356 166.607 167.569Z" fill="#432918"/>
<path d="M161.622 145.559L161.944 145.448L163.676 145.012C163.787 145.012 163.787 144.9 163.787 144.9C163.999 144.028 164.331 143.268 164.865 142.507C165.842 141.2 167.675 140.875 169.085 141.636C169.196 141.747 169.196 141.848 169.085 141.848L168.974 141.96C168.43 142.173 167.997 142.507 167.675 142.943C167.353 143.268 167.03 143.815 166.92 144.251V144.363C167.03 144.363 167.897 144.363 168.219 144.474C168.33 144.474 168.33 144.474 168.33 144.363C168.652 143.491 169.085 142.619 169.84 141.97C170.596 141.321 171.573 141.21 172.55 141.534C173.094 141.646 173.627 142.082 173.849 142.619C173.849 142.619 173.849 142.73 173.738 142.73C173.094 142.842 172.55 143.166 172.006 143.491C171.573 143.815 171.25 144.251 170.928 144.687C170.928 144.687 170.817 144.799 171.039 144.9L172.338 145.224H172.55C173.094 144.464 173.849 143.917 174.715 143.805C176.014 143.592 177.203 144.13 177.424 145.001C177.424 145.113 177.535 145.326 177.424 145.214C176.669 145.214 176.014 145.539 175.481 145.975L175.158 146.299L175.048 146.411C175.37 146.735 176.347 147.394 176.347 148.367C176.347 149.016 176.347 149.564 176.024 150.223L175.914 150.334C175.803 150.334 175.803 150.223 175.803 150.223C175.158 149.462 174.292 148.803 173.426 148.266C171.694 147.283 169.75 146.847 167.796 146.847C164.653 146.847 159.456 148.803 158.157 149.138H158.046C158.157 149.158 158.923 148.398 161.622 145.559ZM169.85 151.987C169.206 152.311 168.662 152.747 168.229 153.406C168.229 153.406 168.118 153.619 168.118 153.517C167.796 153.517 167.252 153.406 166.93 153.406C166.819 153.406 166.819 153.294 166.819 153.294C166.93 152.859 167.141 152.534 167.463 152.21C167.897 151.774 168.44 151.338 168.974 151.125C168.974 151.125 169.085 151.125 169.085 151.013C168.652 150.577 168.108 150.253 167.463 150.253C166.708 150.253 165.842 150.466 165.298 151.125C164.653 151.774 164.22 152.757 164.11 153.741C164.11 153.852 163.999 153.852 163.999 153.852C163.676 153.852 163.354 153.964 163.022 153.964V153.852C163.022 153.305 163.133 152.869 163.344 152.433C163.777 151.561 164.422 150.912 165.288 150.365C165.399 150.253 165.399 150.152 165.399 150.04C164.422 149.604 163.344 149.716 162.367 150.365C161.823 150.689 161.289 151.236 160.957 151.784C160.635 152.656 160.413 153.528 160.312 154.511C160.312 154.623 160.202 154.623 160.202 154.623C159.769 154.734 159.446 154.835 159.013 154.947C159.013 154.947 158.902 154.947 158.902 154.835C158.792 153.964 159.013 153.092 159.446 152.331C159.658 152.007 159.879 151.682 160.202 151.459C160.312 151.459 160.312 151.348 160.202 151.247L160.091 151.135C159.335 151.024 158.58 151.135 157.815 151.571C156.948 152.007 156.405 152.879 156.304 153.862C156.193 154.511 156.304 155.282 156.415 155.93C156.415 155.93 156.415 156.042 156.304 156.042C156.092 156.153 155.327 156.589 155.115 156.691H155.005C154.894 156.143 154.572 155.707 154.028 155.494C153.484 155.282 152.95 155.282 152.517 155.606C152.195 155.819 151.973 156.042 151.761 156.366C151.55 156.914 151.651 157.563 152.195 157.999C152.195 157.999 152.305 158.11 152.195 158.11C151.872 158.323 151.872 158.323 151.651 158.658C151.439 159.205 151.439 159.742 151.862 160.178C152.406 160.939 153.373 161.162 154.138 160.614C154.249 160.614 154.249 160.503 154.35 160.503C154.35 160.503 154.461 160.503 154.461 160.614C154.572 160.827 154.783 161.05 155.005 161.162C155.548 161.486 156.082 161.486 156.626 161.162C157.17 160.837 157.382 160.29 157.382 159.742C157.382 159.418 157.271 159.093 156.948 158.87C156.948 158.87 156.948 158.759 157.059 158.759C159.114 157.563 161.501 156.802 163.878 156.468C165.066 156.255 166.366 156.255 167.554 156.579C168.309 156.792 169.065 157.127 169.72 157.664C170.263 158.1 170.696 158.536 171.13 159.083C171.24 159.083 171.452 159.083 171.563 158.972C171.774 158.424 171.885 157.776 171.563 157.117C171.24 156.356 170.807 155.596 170.263 155.048V154.937C170.263 154.825 170.263 154.825 170.475 154.612C171.019 154.065 171.663 153.741 172.419 153.528C172.53 153.528 172.53 153.416 172.53 153.315C172.127 152.098 170.938 151.662 169.85 151.987ZM182.954 101.215C182.954 101.215 182.521 126.499 182.198 139.03C182.088 142.73 181.443 146.33 180.255 149.817C178.845 153.741 176.901 157.552 174.624 161.04C172.248 164.639 169.317 167.904 165.963 170.631C164.663 171.716 163.253 172.699 161.853 173.682C159.577 175.102 157.2 176.298 154.813 177.281C154.058 177.606 153.302 177.93 152.648 178.153C152.003 178.366 151.349 178.589 150.593 178.802C149.949 178.589 149.183 178.478 148.539 178.153C147.894 177.94 147.239 177.606 146.373 177.281C143.885 176.298 141.609 175.102 139.333 173.682C137.923 172.81 136.523 171.726 135.224 170.631C131.87 167.904 128.949 164.639 126.562 161.04C124.286 157.552 122.342 153.741 120.932 149.817C119.743 146.33 119.089 142.73 118.988 139.03C118.666 126.499 118.232 101.215 118.232 101.215C118.232 101.215 118.343 101.215 118.444 101.103C121.798 99.7954 125.263 98.599 128.727 97.7272C133.592 96.5207 138.457 95.7604 143.442 95.3244C145.819 95.1115 148.095 95 150.482 95H150.694C153.182 95 155.347 95.1115 157.734 95.3244C162.71 95.7604 167.584 96.5207 172.459 97.717C175.924 98.5889 179.388 99.7852 182.742 101.093C182.843 101.103 182.954 101.215 182.954 101.215ZM121.244 147.191H140.944C139.101 145.235 138.134 142.619 138.024 139.892V139.567H120.055C120.166 142.072 120.599 144.687 121.244 147.191ZM149.717 165.389H131.316C132.726 166.91 134.126 168.329 135.757 169.637C137.057 170.722 138.356 171.705 139.766 172.577C141.931 173.885 144.208 175.081 146.585 176.065C147.34 176.389 147.995 176.714 148.639 176.937C149.072 177.048 149.505 177.261 149.828 177.373L149.717 165.389ZM149.717 156.782H125.252C125.897 157.978 126.552 159.175 127.307 160.27C128.284 161.689 129.251 163.098 130.45 164.406H149.717V156.782ZM149.717 151.551C146.907 151.338 144.308 150.243 142.244 148.388C142.133 148.276 142.032 148.175 141.811 148.063H121.465C121.576 148.499 121.788 148.935 121.899 149.371C122.654 151.551 123.631 153.73 124.709 155.687H149.717V151.551ZM149.717 105.351C147.662 105.351 145.708 105.463 143.543 105.675C138.779 106.111 134.015 106.872 129.362 107.967C126.008 108.839 122.654 109.923 119.401 111.231C119.512 119.291 119.723 131.173 119.945 138.584H137.913V131.832H137.812C135.868 131.72 133.803 131.943 131.97 132.592C129.916 133.241 128.073 134.012 126.229 135.096C126.119 135.208 126.119 135.208 126.229 135.309C126.441 135.634 126.663 135.958 126.773 136.293C126.884 136.729 126.663 137.276 126.229 137.489C125.907 137.702 125.474 137.813 125.041 137.702C124.719 137.59 124.497 137.378 124.286 137.154C124.175 137.043 124.175 137.154 124.074 137.266C123.863 137.378 123.53 137.59 123.319 137.702C122.775 137.915 122.13 137.813 121.808 137.266C121.486 136.719 121.486 136.07 121.808 135.634C122.019 135.421 122.241 135.309 122.453 135.198C122.453 135.198 122.563 135.086 122.453 135.086C122.342 134.873 122.241 134.762 122.13 134.539C121.919 133.991 122.13 133.454 122.563 133.018C122.996 132.694 123.54 132.694 124.074 132.907C124.396 133.018 124.618 133.454 124.829 133.778C124.829 133.89 124.94 133.89 124.94 133.89L125.373 133.566C125.484 133.566 125.373 133.353 125.373 133.353C124.829 131.933 124.618 130.849 125.162 129.865C125.484 129.216 126.139 128.78 126.783 128.557C127.216 128.446 127.65 128.446 128.083 128.669V128.78C127.65 129.216 127.327 129.865 127.106 130.524C126.995 131.072 126.995 131.72 127.216 132.268C127.216 132.379 127.327 132.379 127.428 132.379C127.639 132.268 128.294 132.055 128.506 132.055C128.616 132.055 128.506 131.943 128.506 131.842C128.294 130.97 128.294 129.987 128.616 129.115C129.16 127.919 130.46 127.158 131.759 127.26C131.97 127.26 132.303 127.473 132.081 127.584C130.782 128.344 130.137 129.764 130.349 131.183L130.46 131.295C130.893 131.183 131.437 131.082 131.759 130.859C131.87 130.859 131.87 130.747 131.87 130.646C131.87 129.561 132.303 128.466 132.947 127.594C133.703 126.722 134.891 126.286 136.09 126.286C136.301 126.398 136.523 126.499 136.634 126.611V126.824C135.445 127.584 134.579 128.679 134.146 129.987L134.257 130.098C134.901 130.098 135.667 129.987 136.311 129.885C136.422 129.885 136.422 129.885 136.422 129.774C136.634 129.014 137.178 128.253 137.933 127.817C137.933 127.817 138.044 127.817 138.044 127.706V124.441H137.913C137.369 124.228 136.835 124.117 136.291 124.117C132.504 124.228 128.717 125.313 125.353 127.168C125.353 127.168 125.242 127.28 125.242 127.381C125.675 128.365 125.454 128.902 124.809 129.338C124.165 129.774 123.399 129.551 122.966 128.902C122.966 128.791 122.855 128.791 122.755 128.902C122.432 129.115 121.888 129.338 121.455 129.226C121.022 129.226 120.589 128.902 120.478 128.466C120.267 127.706 120.69 126.834 121.455 126.611C121.566 126.611 121.566 126.499 121.455 126.499C121.022 125.952 121.022 125.191 121.566 124.756L121.677 124.644C122.322 124.32 123.188 124.431 123.52 125.08C123.52 125.191 123.631 125.293 123.631 125.404C123.631 125.516 123.631 125.404 123.742 125.404C123.953 125.404 124.175 125.293 124.386 125.191C124.497 125.191 124.598 124.867 124.598 124.756C124.598 123.123 124.598 122.028 125.675 120.944C126.109 120.508 127.73 120.072 128.163 120.619V120.731C127.841 120.944 127.519 121.278 127.297 121.603C126.864 122.251 126.652 123.123 126.753 123.995C126.753 123.995 126.753 124.107 126.864 124.107C127.297 123.995 127.841 123.782 128.274 123.559V123.448C128.163 122.363 128.486 121.156 129.251 120.285C130.006 119.524 131.739 118.652 132.605 119.413C132.716 119.524 132.605 119.626 132.494 119.626C132.061 119.839 131.628 120.173 131.306 120.609C130.873 121.156 130.661 121.805 130.439 122.464C130.439 122.576 130.55 122.677 130.55 122.677C130.983 122.566 131.628 122.464 132.061 122.353C132.273 122.241 132.172 122.241 132.273 122.028C132.383 120.285 133.783 118.865 135.516 118.652C136.16 118.541 136.704 118.652 137.248 118.865L137.57 119.19V119.403C136.926 119.403 136.271 119.615 135.727 120.051C135.083 120.376 134.649 121.035 134.539 121.684C134.539 121.795 134.539 121.897 134.649 121.897H136.271C136.382 121.897 136.382 121.897 136.382 121.785C136.704 120.802 137.57 120.041 138.547 119.717C139.625 119.281 140.924 119.605 141.79 120.477C141.901 120.589 141.901 120.69 141.79 120.69C140.924 120.903 140.058 121.238 139.303 121.775C139.192 121.886 139.091 121.988 139.303 121.988H149.475L149.717 105.351ZM158.157 149.158C157.402 149.706 156.536 150.243 155.559 150.577L155.669 150.79C155.78 151.003 155.78 151.226 155.78 151.551C155.78 151.875 155.569 152.2 155.136 152.311C154.702 152.524 154.159 152.423 153.836 152.098C153.625 152.423 153.192 152.534 152.759 152.423C152.436 152.311 152.114 152.098 152.003 151.875C151.892 151.764 151.892 151.551 151.892 151.551C151.57 151.551 151.137 151.662 150.815 151.662V177.596C151.248 177.484 151.792 177.271 152.436 177.048C153.081 176.835 153.736 176.501 154.491 176.176C156.868 175.193 159.144 173.997 161.31 172.689C162.72 171.817 164.019 170.833 165.318 169.749C168.561 167.022 171.381 163.97 173.658 160.482C175.934 157.106 177.666 153.396 179.066 149.584C180.255 146.319 180.799 142.933 180.909 139.446H163.153V140.095C163.143 143.602 161.299 147.09 158.157 149.158ZM181.222 130.413H163.253V138.371H181.01C181.111 135.968 181.111 133.251 181.222 130.413ZM181.322 122.566H163.243V129.318H181.222C181.322 127.037 181.322 124.745 181.322 122.566ZM181.544 113.745H150.905V121.369H181.433C181.433 118.754 181.433 116.138 181.544 113.745ZM181.544 111.231C178.301 109.923 174.937 108.839 171.583 107.967C166.93 106.882 162.166 106.01 157.402 105.675C155.125 105.463 153.071 105.351 150.795 105.351V112.874H181.433C181.544 112.215 181.544 111.779 181.544 111.231ZM181.755 102.299C181.645 102.299 181.645 102.188 181.544 102.188C178.301 100.88 175.048 99.7954 171.583 98.9235C166.93 97.8387 162.166 96.9668 157.402 96.6322C155.025 96.4193 152.96 96.3078 150.583 96.3078H150.372C147.995 96.3078 145.93 96.4193 143.553 96.6322C138.789 97.0682 134.025 97.8285 129.372 98.9235C126.018 99.7954 122.664 100.88 119.411 102.188C119.3 102.188 119.199 102.299 119.199 102.299C119.199 102.299 119.199 105.564 119.31 110.258H119.421C122.664 108.95 125.917 107.865 129.382 106.993C134.035 105.909 138.799 105.037 143.563 104.702C145.94 104.489 148.005 104.378 150.382 104.378H150.593C152.97 104.378 155.035 104.591 157.412 104.702C162.176 105.138 166.94 105.899 171.593 106.993C174.947 107.865 178.301 108.95 181.554 110.258H181.665C181.655 105.463 181.755 102.299 181.755 102.299ZM165.086 162.561C164.543 162.885 164.22 163.433 163.898 163.98C163.898 163.98 163.898 164.092 163.787 164.092L163.032 163.879V163.767C163.576 162.784 164.442 162.135 165.409 161.811V161.699C164.976 160.716 163.133 160.827 162.166 161.486C161.299 162.034 160.655 162.905 160.433 163.99V164.102C160.222 164.213 159.889 164.213 159.678 164.315C159.678 164.315 159.567 164.315 159.567 164.203C159.456 163.767 159.567 163.22 159.779 162.784C160.101 162.236 160.423 161.8 160.856 161.364C160.967 161.253 160.967 161.253 160.856 161.152C160.312 160.827 159.668 160.827 159.124 161.152C158.369 161.587 157.714 162.236 157.502 163.108C157.392 163.757 157.392 164.416 157.502 165.065V165.176C157.291 165.288 157.069 165.389 156.747 165.501H156.636C156.203 164.629 156.314 163.646 156.959 162.885C157.069 162.885 157.069 162.774 156.959 162.774C156.314 162.662 155.548 162.885 155.115 163.422C154.572 164.071 154.471 164.943 154.682 165.714C154.793 166.038 154.894 166.363 155.005 166.586C155.005 166.586 155.115 166.697 155.005 166.697C154.793 166.809 154.682 166.91 154.461 167.133H154.35C154.138 166.697 153.806 166.484 153.373 166.261C152.94 166.15 152.618 166.261 152.295 166.586C151.751 167.022 151.751 167.893 152.295 168.329C152.406 168.441 152.618 168.542 152.839 168.654C152.839 168.654 152.95 168.654 152.839 168.765C152.517 168.978 152.295 169.201 152.195 169.526C151.983 169.962 152.084 170.61 152.517 170.945C152.839 171.158 153.161 171.269 153.494 171.269C154.038 171.057 154.471 170.722 154.682 170.185C154.682 170.185 154.793 170.073 154.793 170.185C155.005 170.509 155.337 170.732 155.659 170.833C156.092 170.945 156.525 170.833 156.737 170.621C157.17 170.296 157.281 169.749 157.17 169.201C156.959 168.877 156.737 168.654 156.525 168.441C156.525 168.441 156.525 168.329 156.636 168.228C158.046 167.143 159.668 166.373 161.511 166.048C162.699 165.937 163.999 166.048 165.086 166.596C165.52 166.809 165.953 167.143 166.275 167.579C166.275 167.579 166.486 167.691 166.486 167.579C167.03 167.032 167.131 166.271 166.597 165.622C166.386 165.41 166.164 165.187 165.842 165.075C166.053 164.528 166.386 164.092 166.92 163.656C167.242 163.443 167.564 163.331 167.897 163.108C168.007 163.108 168.007 162.997 167.897 162.997C167.685 162.013 165.953 162.013 165.086 162.561ZM144.087 109.923C144.953 110.035 145.598 110.572 145.93 111.343L145.819 111.454C145.175 111.454 144.409 111.566 143.764 111.667C143.331 111.88 142.898 112.103 142.576 112.428V112.539C143.331 112.752 144.087 113.086 144.741 113.735C145.386 114.283 145.718 115.256 145.497 116.128C145.497 116.239 145.386 116.239 145.285 116.341C145.175 116.341 145.074 116.341 145.074 116.229C143.664 115.033 141.931 114.374 140.098 114.273C135.012 114.384 130.027 115.692 125.595 117.973C125.595 117.973 125.484 118.085 125.595 118.085C125.806 118.409 125.917 118.733 125.917 119.169C125.806 119.717 125.595 119.717 125.162 120.041C124.618 120.477 123.752 120.477 123.218 119.828V119.737H123.107C122.896 119.95 122.563 120.062 122.241 120.173C121.697 120.386 121.053 120.173 120.73 119.737C120.408 118.977 120.619 117.993 121.375 117.669C122.13 117.345 121.486 117.557 121.375 117.557C121.053 116.909 121.264 116.138 121.808 115.814C122.352 115.489 123.54 115.266 123.863 116.361C123.863 116.361 123.863 116.473 123.973 116.473C124.296 116.361 124.517 116.26 124.729 116.148C124.84 116.148 124.84 115.935 124.84 115.824C124.517 114.516 124.729 113.097 125.484 111.9C126.562 110.593 127.972 110.045 129.382 110.593C129.493 110.593 129.382 110.704 129.382 110.805C128.838 111.353 128.083 111.789 127.65 112.438C127.216 113.086 127.005 113.958 127.005 114.729H127.116C127.871 114.516 128.737 114.181 129.603 113.857C129.714 113.857 129.815 113.857 129.714 113.745C129.714 113.31 129.714 112.762 129.825 112.326C130.037 111.018 130.903 109.822 132.202 109.275C133.068 108.839 134.045 108.839 135.012 109.275C135.123 109.275 135.123 109.386 135.012 109.487C134.367 109.923 133.824 110.359 133.28 110.907C132.736 111.454 132.414 112.215 132.414 112.975V113.086C133.169 112.874 133.924 112.762 134.79 112.651C134.901 112.651 134.901 112.539 134.901 112.539C135.012 111.779 135.657 109.812 136.634 109.163C137.711 108.403 139.011 108.18 140.209 108.514C140.531 108.626 140.753 108.839 140.854 109.062C140.854 109.062 140.854 109.173 140.743 109.275C139.877 109.599 139.121 110.035 138.366 110.582C137.933 111.13 137.611 111.667 137.5 112.438H139.665C139.665 112.438 139.776 112.438 139.776 112.326C140.098 111.454 140.753 110.805 141.508 110.369C142.354 109.923 143.221 109.822 144.087 109.923Z" fill="url(#paint1_linear)"/>
<path d="M172.67 99.9069C175.269 100.556 177.757 101.428 180.144 102.411C180.254 102.411 180.254 102.523 180.254 102.624V103.719C180.254 103.83 180.144 103.83 180.043 103.83C178.532 103.283 176.367 102.523 174.413 101.975H174.302V102.624C174.302 102.624 174.302 102.735 174.413 102.735C176.357 103.283 178.311 103.932 180.043 104.591C180.043 104.591 180.154 104.591 180.154 104.702V106.446C178.421 105.797 176.367 105.138 174.312 104.591H174.201V105.24C174.201 105.24 174.201 105.351 174.312 105.351C176.256 105.899 178.21 106.547 180.053 107.206L180.164 107.318V108.737C180.164 108.737 180.164 108.849 180.053 108.849C177.565 107.865 175.077 107.105 172.58 106.456L172.469 106.345C172.56 104.043 172.56 102.087 172.67 99.9069ZM164.009 104.479C164.552 104.591 165.086 104.692 165.519 104.692C165.519 104.692 165.63 104.692 165.63 104.581V102.411H165.741C167.04 102.624 168.229 102.847 169.528 103.171C169.528 103.171 169.739 103.171 169.739 103.283V105.463C169.739 105.574 169.739 105.574 169.85 105.574C170.394 105.686 170.827 105.787 171.26 105.899H171.371C171.482 104.378 171.482 101.762 171.482 99.6838V99.5723C170.938 99.4608 170.505 99.3594 169.971 99.2479L169.86 99.3594C169.86 100.12 169.86 100.88 169.749 101.651C168.45 101.438 167.151 101.103 165.852 100.89V100.779V98.4875C165.852 98.4875 165.852 98.376 165.741 98.376C165.197 98.2645 164.764 98.2645 164.331 98.1631C163.898 98.0617 164.22 98.1631 164.22 98.2746C164.109 99.2479 164.009 103.283 164.009 104.479ZM157.401 97.2912C156.757 97.2912 156.102 97.7272 155.991 98.4875V102.624C155.991 103.06 156.314 103.496 156.858 103.607C159.023 103.82 161.078 104.043 163.465 104.368C163.465 104.368 163.575 104.368 163.575 104.256V102.837L163.465 102.725C161.843 102.512 159.788 102.289 157.945 102.076C157.835 102.076 157.734 101.965 157.734 101.864V99.035C157.734 98.9235 157.945 98.8221 158.056 98.8221C159.899 98.9336 161.732 99.258 163.575 99.4709C163.575 99.4709 163.686 99.4709 163.686 99.3594V98.0516C163.686 97.9401 163.686 97.9401 163.575 97.9401C161.41 97.7272 159.889 97.6156 157.401 97.2912ZM154.591 97.1797C152.537 97.0682 150.371 97.0682 148.317 97.0682C147.884 97.0682 147.34 97.3926 147.34 97.8285V100.12C147.34 100.556 147.984 100.992 148.417 100.992C150.039 100.992 151.449 100.992 152.96 101.103C153.071 101.103 153.171 101.215 153.171 101.316V101.752C153.171 101.864 153.061 101.864 153.061 101.864C151.217 101.864 149.384 101.752 147.541 101.975C147.43 101.975 147.43 101.975 147.43 102.087L147.32 103.394V103.506C149.485 103.394 151.65 103.394 153.816 103.506C154.36 103.506 154.793 103.07 154.894 102.634V100.444C154.894 100.008 154.35 99.6838 154.027 99.6838C152.517 99.5723 150.784 99.6838 149.153 99.5723C149.042 99.5723 149.042 99.4608 149.042 99.3594V98.8119C149.042 98.7004 149.153 98.7004 149.153 98.7004C150.663 98.5889 152.94 98.7004 154.561 98.8119C154.672 98.8119 154.773 98.7004 154.773 98.599V97.5041C154.803 97.2912 154.692 97.1797 154.591 97.1797ZM145.386 101.215C145.819 101.002 146.141 100.566 146.03 100.13C146.03 99.4811 146.03 98.8221 145.92 98.1732C145.809 97.7373 145.376 97.3014 144.842 97.3014C143.331 97.3014 140.189 97.7373 138.346 97.9502V104.378L139.967 104.165V102.299L143.21 101.975C143.533 101.975 143.855 102.087 144.076 102.523C144.288 102.847 144.399 103.283 144.51 103.719L146.131 103.607H146.242C146.363 102.624 146.04 101.752 145.386 101.215ZM144.197 99.7954C144.197 100.12 143.986 100.343 143.764 100.343L140.088 100.667V99.3594L143.986 99.035C144.097 99.035 144.308 99.1465 144.308 99.2479L144.197 99.7954ZM137.479 99.2479C137.479 98.9235 137.369 98.7004 137.157 98.599C136.946 98.3861 136.613 98.2746 136.402 98.2746C134.559 98.599 132.615 98.9235 130.772 99.3594C130.449 99.4709 130.228 99.5723 130.016 99.9069C129.805 100.12 129.694 100.343 129.694 100.667V104.591C129.694 104.915 129.805 105.24 130.016 105.463C130.127 105.675 130.449 105.899 130.772 105.899C132.615 105.463 134.559 105.138 136.402 104.814C136.724 104.702 137.046 104.489 137.379 104.266C137.59 104.053 137.701 103.719 137.701 103.506L137.479 99.2479ZM135.646 102.847C135.646 102.958 135.536 103.171 135.435 103.171C135.324 103.283 135.223 103.283 135.002 103.384C134.025 103.597 132.514 103.82 131.537 104.033C131.426 104.033 131.326 104.033 131.215 103.922C131.104 103.81 131.104 103.709 131.104 103.597V101.103C131.104 100.992 131.104 100.89 131.215 100.779C131.326 100.667 131.426 100.566 131.648 100.566C132.625 100.353 133.924 100.13 135.002 99.917C135.113 99.917 135.213 99.917 135.435 100.029C135.546 100.14 135.646 100.241 135.646 100.353V102.847V102.847ZM128.828 101.103C128.828 100.779 128.616 100.556 128.395 100.454C128.072 100.241 127.75 100.13 127.418 100.241C125.141 100.789 122.875 101.661 120.599 102.533C120.488 102.533 120.488 102.644 120.488 102.746V109.062C120.488 109.062 122.11 108.413 122.432 108.301V106.345C122.432 106.345 122.432 106.233 122.543 106.233L128.173 104.489C128.385 104.378 128.495 104.276 128.606 104.165C128.717 104.053 128.818 103.84 128.818 103.617L128.828 101.103ZM126.985 102.958C126.985 103.07 126.773 103.283 126.662 103.394L122.553 104.702H122.442V103.496C122.442 103.384 122.553 103.384 122.553 103.384C123.963 102.837 125.262 102.401 126.773 101.965C126.884 101.965 126.985 102.076 126.985 102.178V102.958Z" fill="url(#paint2_linear)"/>
<path d="M122.543 103.607C122.432 103.607 122.432 103.719 122.432 103.719V103.394C122.432 103.283 122.543 103.283 122.543 103.283C123.953 102.735 125.252 102.299 126.652 101.864C126.763 101.864 126.864 101.975 126.864 102.076V102.401C126.864 102.289 126.753 102.188 126.541 102.188C125.363 102.624 123.953 103.06 122.543 103.607ZM128.928 103.496C128.928 103.709 128.818 103.932 128.717 104.043C128.606 104.155 128.395 104.368 128.284 104.368L122.654 106.111L122.543 106.223V106.547V106.436L128.173 104.692C128.385 104.581 128.495 104.479 128.606 104.368C128.717 104.256 128.818 104.043 128.818 103.82V103.496H128.928ZM122.543 108.078C122.543 108.078 122.543 108.19 122.543 108.078C122.11 108.291 120.488 108.95 120.488 108.95V109.275C120.488 109.275 122.11 108.626 122.432 108.514V108.078H122.543ZM135.425 100.008C135.314 99.8967 135.213 99.8967 134.992 99.8967C133.914 100.008 132.615 100.333 131.638 100.546C131.527 100.546 131.315 100.657 131.205 100.758C131.094 100.86 131.094 100.971 131.094 101.083V101.407C131.094 101.296 131.094 101.194 131.205 101.083C131.315 100.971 131.416 100.87 131.638 100.87C132.615 100.657 133.914 100.434 134.992 100.221C135.102 100.221 135.203 100.221 135.425 100.333C135.536 100.444 135.636 100.546 135.636 100.657V100.444C135.646 100.231 135.646 100.12 135.425 100.008ZM136.291 104.702C134.448 105.027 132.504 105.351 130.661 105.787C130.339 105.787 130.117 105.675 129.905 105.351C129.694 105.138 129.583 104.804 129.583 104.479V104.804C129.583 105.128 129.694 105.452 129.905 105.675C130.117 105.899 130.339 106.111 130.55 106.111C132.393 105.675 134.337 105.351 136.18 105.027C136.502 104.915 136.825 104.702 137.157 104.479C137.369 104.266 137.479 103.932 137.479 103.719V103.394C137.479 103.719 137.369 103.942 137.157 104.155C136.946 104.368 136.613 104.591 136.291 104.702ZM143.875 98.9235L139.977 99.2479V99.5723L143.875 99.2479C143.986 99.2479 144.197 99.3594 144.197 99.4608V99.1364C144.197 99.035 144.087 98.9235 143.875 98.9235ZM146.04 100.444V100.008C146.04 100.444 145.829 100.88 145.396 101.093L145.607 101.306C145.93 101.215 146.04 100.779 146.04 100.444ZM146.363 103.496L144.741 103.607C144.741 103.171 144.53 102.735 144.308 102.411C144.097 101.975 143.663 101.762 143.442 101.864L140.199 102.188V102.512L143.442 102.188C143.764 102.188 144.087 102.299 144.308 102.735C144.52 103.06 144.63 103.496 144.741 103.932L146.363 103.82H146.474L146.363 103.496ZM140.078 104.155L138.456 104.368V104.692L140.078 104.479V104.155C140.078 104.155 140.189 104.043 140.078 104.155ZM154.591 99.035C154.702 99.035 154.803 98.9235 154.803 98.8221V98.4977C154.803 98.6092 154.692 98.7106 154.591 98.7106C152.97 98.7106 150.694 98.5991 149.183 98.5991C149.072 98.5991 149.072 98.5991 149.072 98.7106V99.035C149.072 98.9235 149.183 98.9235 149.284 98.9235C150.694 98.9235 152.96 99.035 154.591 99.035ZM148.307 101.316C149.928 101.316 151.338 101.316 152.849 101.428C152.96 101.428 153.06 101.539 153.06 101.64V101.316C153.06 101.205 152.95 101.103 152.849 101.103C151.338 100.992 149.928 100.992 148.307 100.992C147.874 100.992 147.229 100.667 147.229 100.12V100.444C147.34 100.88 147.874 101.316 148.307 101.316ZM153.826 103.496C151.661 103.384 149.495 103.384 147.33 103.496V103.82C149.495 103.709 151.661 103.709 153.826 103.82C154.37 103.82 154.803 103.384 154.904 102.948V102.624C154.692 103.06 154.259 103.496 153.826 103.496ZM163.354 99.5723C161.511 99.3594 159.678 99.0249 157.835 98.9235C157.724 98.9235 157.512 98.9235 157.512 99.1364V99.3594C157.512 99.2479 157.724 99.1465 157.835 99.1465C159.678 99.258 161.511 99.5825 163.354 99.7954C163.354 99.7954 163.465 99.7954 163.465 99.6838V99.3594C163.465 99.5723 163.465 99.5723 163.354 99.5723ZM163.253 104.368C160.876 104.043 158.811 103.82 156.646 103.607C156.213 103.496 155.891 103.06 155.78 102.624V102.948C155.78 103.384 156.102 103.82 156.646 103.932C158.811 104.145 160.866 104.256 163.142 104.692C163.142 104.692 163.253 104.692 163.253 104.581V104.256C163.354 104.368 163.354 104.479 163.253 104.368ZM169.739 103.607V103.283C169.739 103.171 169.629 103.171 169.528 103.171C168.229 102.847 167.04 102.624 165.741 102.411H165.63V102.735H165.741C167.04 102.948 168.229 103.171 169.528 103.496L169.739 103.607ZM165.519 104.804C165.086 104.692 164.442 104.591 164.009 104.591V104.804C164.552 104.915 165.086 104.915 165.519 105.017C165.519 105.017 165.63 105.017 165.63 104.905V104.692C165.63 104.804 165.63 104.804 165.519 104.804ZM171.26 106.01C170.827 105.899 170.283 105.797 169.85 105.686C169.739 105.686 169.739 105.574 169.739 105.574V105.899C169.739 106.01 169.739 106.01 169.85 106.01C170.394 106.122 170.827 106.223 171.26 106.334H171.371V106.01H171.26ZM180.023 103.83C178.512 103.283 176.346 102.523 174.393 101.975H174.282V102.299H174.393C176.336 102.847 178.502 103.496 179.912 104.155C180.023 104.155 180.123 104.155 180.123 104.043V103.719C180.244 103.83 180.133 103.83 180.023 103.83ZM180.133 106.334C178.401 105.686 176.346 105.027 174.292 104.479H174.181V104.804H174.292C176.346 105.351 178.3 106 180.033 106.659V106.547L180.133 106.334ZM180.023 108.727C177.535 107.744 175.047 106.983 172.549 106.334L172.439 106.223V106.547C172.439 106.547 172.439 106.659 172.549 106.659C175.037 107.308 177.525 108.18 180.023 109.051C180.133 109.051 180.133 109.051 180.133 108.94L180.023 108.727C180.133 108.727 180.133 108.727 180.023 108.727Z" fill="#432918"/>
<path d="M234.582 195.571V198.947H261V201.775H234.582V205.151H261V207.98H231.228V192.631H261V195.469H234.582V195.571ZM223.865 198.845H203.409V192.631H200.055V207.99H203.409V202.211H223.865V207.99H227.219V192.631H223.865V198.845V198.845ZM168.551 196.007V204.614C168.551 206.469 170.062 207.99 171.905 207.99H196.258V204.614H172.338C172.126 204.614 171.905 204.401 171.905 204.178V196.442C171.905 196.118 172.227 196.007 172.449 196.007H196.268V192.631H172.016C170.072 192.631 168.551 194.161 168.551 196.007ZM161.088 198.957H139.655C139.332 198.957 139.111 198.744 139.111 198.409V196.118C139.111 195.794 139.322 195.571 139.655 195.571H164.008V192.742H139.111C137.268 192.742 135.757 194.263 135.757 196.118V198.409C135.757 200.265 137.268 201.785 139.111 201.785H160.544C160.866 201.785 161.088 201.998 161.088 202.333V204.624C161.088 204.948 160.876 205.171 160.544 205.171H136.18V208H161.078C162.921 208 164.431 206.479 164.431 204.624V202.333C164.442 200.477 162.921 198.957 161.088 198.957ZM131.859 208H128.505V207.351C128.505 205.496 126.995 203.975 125.151 203.975H106.317V208.01H102.963V192.631H128.405C130.248 192.631 131.758 194.151 131.758 196.007V199.383C131.758 201.238 130.348 202.759 128.515 202.759C130.56 203.752 131.859 205.709 131.859 208ZM128.495 196.666C128.495 196.341 128.284 196.118 127.951 196.118H106.418V200.69H127.961C128.284 200.69 128.505 200.477 128.505 200.143L128.495 196.666ZM98.9445 196.007V204.614C98.9445 206.469 97.4338 207.99 95.5906 207.99H74.047C72.2039 207.99 70.6931 206.469 70.6931 204.614V196.007C70.6931 194.151 72.2039 192.631 74.1578 192.631H95.7014C97.4338 192.631 98.9445 194.161 98.9445 196.007ZM95.5906 196.666C95.5906 196.341 95.3791 196.118 95.0467 196.118H74.5909C74.2686 196.118 74.047 196.331 74.047 196.554V204.289C74.047 204.502 74.2585 204.725 74.4801 204.725H95.0467C95.369 204.725 95.5906 204.512 95.5906 204.178V196.666ZM66.6845 196.007V200.579C66.6845 202.434 65.1737 203.955 63.3306 203.955H41.3539V207.99H38V192.631H63.3306C65.1737 192.631 66.6845 194.161 66.6845 196.007ZM63.3306 196.666C63.3306 196.341 63.1191 196.118 62.7867 196.118H41.3539V200.69H62.8975C63.2198 200.69 63.4414 200.477 63.4414 200.143L63.3306 196.666ZM180.023 103.06V103.607L179.59 103.496L179.267 103.384L177.323 102.735C176.679 102.523 176.135 102.299 175.591 102.188L175.158 102.076L174.614 101.965L174.181 101.853V103.05L174.392 103.161H174.604L174.926 103.273L175.249 103.384C176.004 103.597 176.659 103.82 177.414 104.033C178.169 104.246 178.824 104.469 179.469 104.682L179.68 104.793L180.002 104.905V106.213L179.68 106.101L179.469 105.99C178.713 105.777 177.958 105.442 177.192 105.229C176.427 105.017 175.571 104.682 174.815 104.469L174.171 104.256V105.341L174.382 105.452L174.926 105.564L175.359 105.675L175.571 105.787L175.782 105.899L177.726 106.547C178.371 106.76 179.026 106.983 179.569 107.196H179.892L180.103 107.308V108.393L179.781 108.281H179.569C178.381 107.845 177.293 107.521 176.215 107.196C175.138 106.872 173.939 106.436 172.972 106.213V103.83C172.972 102.958 172.972 100.454 173.083 100.343C173.194 100.343 175.359 100.992 176.437 101.326C177.515 101.651 178.602 102.087 179.579 102.411L179.791 102.523L180.113 102.634C180.023 102.624 180.023 102.958 180.023 103.06ZM171.149 99.9069C171.039 99.9069 170.827 99.7954 170.716 99.7954C170.605 99.7954 170.283 99.6838 170.072 99.6838V102.076L169.749 101.965H169.105C168.672 101.853 168.239 101.752 167.695 101.64C167.151 101.529 166.718 101.428 166.285 101.316H166.073L165.751 101.205L165.429 101.093H165.318V98.7004H164.24V104.692C164.351 104.692 164.452 104.692 164.562 104.804H165.106C165.217 104.804 165.429 104.804 165.539 104.915V104.155V103.719V102.847V102.634H165.751C165.962 102.634 166.506 102.746 167.161 102.847C167.816 102.948 168.571 103.171 169.326 103.283H169.971V105.24L170.293 105.351L170.505 105.463H170.716L171.039 105.574V105.027V102.735V100.12L171.149 99.9069ZM159.567 97.7272C158.59 97.6156 157.834 97.5143 157.512 97.5143C157.19 97.5143 156.868 97.6258 156.646 97.8387C156.434 97.9502 156.213 98.2746 156.213 98.4875V102.735C156.213 102.847 156.213 102.948 156.324 103.06C156.324 103.171 156.434 103.273 156.434 103.273C156.545 103.384 156.646 103.486 156.868 103.486H157.301C158.167 103.597 159.144 103.699 160.01 103.699C160.876 103.699 161.853 103.911 162.82 104.023L163.253 104.134V103.06L162.709 102.948L162.276 102.837L160 102.512L157.724 102.188C157.724 102.188 157.613 102.188 157.613 102.076V98.8119C157.613 98.7004 157.613 98.599 157.724 98.4875C157.834 98.376 157.935 98.376 158.046 98.376C158.59 98.376 162.81 99.0249 163.565 99.1364V98.5889V97.9401C162.387 98.0516 160.866 97.9401 159.567 97.7272ZM145.93 102.299C146.141 102.624 146.141 103.06 146.252 103.384L144.842 103.496C144.731 103.06 144.63 102.735 144.409 102.411C144.197 101.975 143.764 101.762 143.331 101.762C142.787 101.874 139.866 102.087 139.866 102.087V103.942L139.222 104.053L138.577 104.165V98.1631C138.577 98.1631 144.207 97.5143 144.751 97.5143C145.295 97.5143 145.507 97.8387 145.507 98.1631C145.617 98.812 145.617 99.5825 145.617 100.231C145.507 100.556 145.295 100.88 144.973 101.103C145.496 101.428 145.708 101.864 145.93 102.299ZM144.519 99.1364C144.519 99.0249 144.519 98.9235 144.409 98.8119C144.298 98.7004 144.086 98.7004 143.976 98.7004L139.967 99.1364V100.88L141.911 100.667L143.855 100.454C144.066 100.454 144.288 100.343 144.399 100.241C144.509 100.13 144.61 99.917 144.61 99.694L144.519 99.1364ZM137.157 99.2479V103.283C137.157 103.83 136.724 104.266 136.18 104.368C135.636 104.469 131.094 105.351 130.661 105.452C130.228 105.554 129.684 105.017 129.684 104.581V100.556C129.684 100.12 130.117 99.7954 130.55 99.6838C130.983 99.5723 135.747 98.599 136.069 98.599C136.724 98.4875 137.157 98.7004 137.157 99.2479ZM135.969 100.231C135.969 99.9069 135.858 99.5825 135.324 99.6838C134.679 99.7954 132.514 100.231 131.748 100.333C131.205 100.444 130.882 100.657 130.882 101.205V103.719C130.882 104.043 131.094 104.368 131.527 104.266C131.96 104.155 135.102 103.617 135.425 103.506C135.747 103.394 135.969 103.181 135.969 102.746V100.231ZM154.047 99.7954H148.85C148.85 99.6838 148.74 99.6838 148.74 99.5825V99.1465V98.599C148.74 98.4875 148.85 98.4875 149.062 98.4875H154.47V97.3926C153.826 97.3926 153.393 97.3926 152.849 97.2811H148.407C148.196 97.2811 148.085 97.3926 147.974 97.494C147.863 97.6055 147.763 97.7069 147.763 97.8184V100.211C147.763 100.323 147.873 100.424 147.974 100.535C148.085 100.647 148.296 100.647 148.518 100.748H151.66C151.66 100.748 152.738 100.748 153.282 100.86C153.393 100.86 153.493 100.971 153.493 101.073V102.056C153.493 102.168 153.383 102.168 153.171 102.168H148.951C148.518 102.168 148.085 102.168 147.763 102.279V103.364C148.306 103.364 148.951 103.364 149.384 103.252C149.817 103.141 150.361 103.252 150.683 103.252H154.148C154.36 103.252 154.47 103.141 154.581 103.04C154.692 102.938 154.793 102.827 154.793 102.604V100.231C154.793 100.12 154.682 99.9069 154.581 99.9069C154.259 99.9069 154.158 99.7954 154.047 99.7954ZM128.606 101.103L128.717 103.496V103.719C128.717 103.83 128.606 103.932 128.505 104.043C128.395 104.155 128.294 104.256 128.183 104.256L122.341 106.111V108.18L120.831 108.727V105.899V102.958C120.831 102.958 120.831 102.847 120.941 102.847C121.052 102.847 122.785 102.198 125.051 101.428C125.695 101.215 127.216 100.779 127.538 100.667C127.75 100.667 128.082 100.667 128.294 100.779C128.395 100.667 128.606 100.88 128.606 101.103ZM127.307 102.958V102.087C127.307 101.975 127.196 101.874 127.196 101.762C127.085 101.651 126.984 101.651 126.874 101.651H126.763C126.763 101.651 125.464 101.975 124.708 102.299C123.953 102.624 122.22 103.171 122.22 103.171V104.915L126.662 103.496C126.773 103.496 126.874 103.384 126.984 103.283C127.196 103.171 127.196 103.06 127.307 102.958ZM146.685 124.097V125.729C146.685 125.942 146.685 126.053 146.574 126.276C146.463 126.388 146.363 126.489 146.141 126.489C145.919 126.489 145.819 126.378 145.708 126.276C145.597 126.165 145.597 125.952 145.597 125.729V124.097C145.597 123.985 145.486 123.884 145.386 123.884C145.275 123.884 145.174 123.995 145.174 124.097V125.617C145.174 125.942 145.285 126.266 145.386 126.489C145.597 126.702 145.819 126.925 146.141 126.814C146.463 126.814 146.786 126.702 146.896 126.489C147.007 126.165 147.108 125.942 147.108 125.617V124.097C147.108 123.985 146.997 123.884 146.896 123.884C146.796 123.873 146.685 123.985 146.685 124.097ZM148.961 124.309C149.072 124.309 149.173 124.198 149.173 124.097C149.173 123.995 149.062 123.884 148.961 123.884H147.773C147.662 123.884 147.561 123.995 147.561 124.097C147.561 124.198 147.672 124.309 147.773 124.309H148.206V126.702C148.206 126.814 148.317 126.915 148.417 126.915C148.518 126.915 148.629 126.803 148.629 126.702V124.309H148.961ZM150.905 124.309C151.016 124.309 151.117 124.198 151.117 124.097C151.117 123.995 151.006 123.884 150.905 123.884H149.717C149.606 123.884 149.505 123.995 149.505 124.097C149.505 124.198 149.616 124.309 149.717 124.309H150.15V126.702C150.15 126.814 150.26 126.915 150.361 126.915C150.462 126.915 150.573 126.803 150.573 126.702V124.309H150.905ZM153.181 125.181H152.537C152.325 125.181 152.325 125.293 152.325 125.394C152.325 125.506 152.436 125.607 152.537 125.607H152.97V125.719C152.97 126.155 152.758 126.479 152.426 126.591C152.214 126.591 151.993 126.479 151.882 126.266C151.771 126.053 151.67 125.719 151.771 125.506C151.771 125.293 151.882 124.958 151.983 124.745C152.083 124.532 152.194 124.421 152.416 124.421C152.627 124.421 152.738 124.532 152.849 124.745C152.849 124.857 152.96 124.857 153.06 124.857C153.161 124.857 153.171 124.745 153.171 124.644C153.06 124.32 152.738 124.097 152.305 124.097C151.983 124.097 151.66 124.208 151.55 124.532C151.338 124.857 151.227 125.181 151.227 125.617C151.227 125.942 151.338 126.378 151.439 126.702C151.55 127.026 151.872 127.25 152.194 127.25C152.406 127.25 152.516 127.25 152.738 127.138C152.95 126.925 153.171 126.591 153.282 126.266V125.719C153.504 125.293 153.393 125.181 153.181 125.181ZM160.322 124.309C160.433 124.309 160.534 124.198 160.534 124.097C160.534 123.995 160.423 123.884 160.322 123.884H159.134C159.023 123.884 158.922 123.995 158.922 124.097C158.922 124.198 159.033 124.309 159.134 124.309H159.567V126.702C159.567 126.814 159.678 126.915 159.778 126.915C159.879 126.915 159.99 126.803 159.99 126.702V124.309H160.322ZM157.834 125.84C158.046 125.729 158.157 125.627 158.268 125.516C158.479 125.303 158.59 125.08 158.479 124.867C158.479 124.543 158.368 124.32 158.157 124.107C157.945 123.995 157.724 123.894 157.401 123.894H156.757C156.646 123.894 156.646 123.894 156.545 124.005C156.545 124.005 156.434 124.117 156.434 124.218V126.722C156.434 126.834 156.545 126.935 156.646 126.935C156.747 126.935 156.857 126.824 156.857 126.722V125.962H157.291L157.935 126.834C157.935 126.945 158.046 126.945 158.147 126.945C158.247 126.945 158.358 126.834 158.358 126.732C158.358 126.631 158.358 126.621 158.247 126.52L157.834 125.84ZM156.968 125.404V124.32H157.512C157.724 124.32 157.834 124.32 157.945 124.431C158.056 124.543 158.157 124.644 158.157 124.756C158.157 125.08 157.834 125.404 157.512 125.404H156.968ZM155.236 124.097C155.236 123.985 155.024 123.884 154.914 123.884C154.803 123.884 154.702 123.995 154.591 124.097L153.836 126.601V126.814L153.947 126.925C154.057 126.925 154.158 126.925 154.158 126.814L154.269 126.378H155.457L155.568 126.814C155.568 126.925 155.679 126.925 155.78 126.925C155.88 126.925 155.891 126.925 155.991 126.814V126.601L155.236 124.097ZM155.347 125.942H154.481L154.914 124.309L155.347 125.942ZM142.676 125.404C142.354 125.191 142.032 125.191 141.699 125.08C141.488 125.08 141.377 124.867 141.377 124.644C141.488 124.431 141.699 124.32 141.921 124.32C142.132 124.32 142.354 124.431 142.465 124.532C142.576 124.644 142.787 124.532 142.787 124.421C142.787 124.309 142.576 123.873 141.921 123.873C141.709 123.873 141.488 123.985 141.276 124.086C141.065 124.198 140.954 124.411 140.954 124.634C140.954 124.857 141.065 125.181 141.166 125.283C141.276 125.394 141.488 125.496 141.81 125.496C142.022 125.496 142.354 125.607 142.455 125.82C142.566 125.932 142.455 126.144 142.344 126.256C142.233 126.367 142.022 126.469 141.8 126.469C141.589 126.469 141.367 126.357 141.256 126.256C141.145 126.144 141.045 126.144 140.934 126.144C140.823 126.144 140.823 126.357 140.823 126.469C141.035 126.793 141.367 127.016 141.689 126.905C142.012 126.905 142.334 126.793 142.555 126.58C142.666 126.367 142.767 126.144 142.767 125.932C143.009 125.729 142.898 125.506 142.676 125.404ZM144.63 124.309C144.741 124.309 144.842 124.198 144.842 124.097C144.842 123.995 144.731 123.884 144.63 123.884H143.442C143.331 123.884 143.23 123.995 143.23 124.097C143.23 124.198 143.341 124.309 143.442 124.309H143.875V126.702C143.875 126.814 143.986 126.915 144.086 126.915C144.197 126.915 144.298 126.803 144.298 126.702V124.309H144.63ZM126.984 112.874C127.307 112.113 127.851 111.454 128.495 111.018C128.818 110.805 128.818 110.694 128.818 110.694C128.818 110.694 128.707 110.582 128.274 110.582C127.629 110.694 126.974 110.907 126.431 111.343C125.786 111.89 125.353 112.651 125.131 113.411C125.02 114.283 125.02 115.266 125.242 116.239L123.731 117C123.62 116.675 123.52 116.452 123.298 116.128C122.976 115.804 122.432 115.804 121.999 116.016C121.677 116.229 121.455 116.564 121.455 117C121.455 117.324 121.566 117.547 121.777 117.76C121.455 117.872 121.233 118.085 120.911 118.308C120.589 118.632 120.478 119.068 120.589 119.392C120.7 119.717 121.133 119.94 121.455 119.94C121.888 119.828 122.321 119.615 122.754 119.291C122.865 119.504 123.077 119.615 123.298 119.839C123.51 119.95 123.731 120.051 123.943 120.051C124.154 120.051 124.265 120.051 124.487 119.94C124.809 119.727 125.031 119.392 124.92 118.956C124.809 118.409 124.376 118.196 124.376 117.973C126.974 116.554 129.684 115.469 132.494 114.81C134.438 114.263 136.392 113.938 138.335 113.827C139.635 113.715 140.823 113.827 142.122 114.263C143.099 114.475 144.066 115.023 144.832 115.783C144.832 114.8 144.288 114.039 143.422 113.604C142.777 113.168 142.012 112.955 141.256 112.843C141.468 112.519 141.689 112.194 141.901 111.971C142.334 111.535 142.878 111.322 143.412 111.211C143.945 111.099 144.389 111.099 144.922 111.099C144.711 110.663 144.378 110.451 143.845 110.339C143.301 110.228 142.656 110.339 142.112 110.451C141.135 110.887 140.269 111.758 139.836 112.742C138.758 112.63 137.781 112.742 136.694 112.742C136.804 111.87 137.127 111.11 137.56 110.349C138.104 109.7 138.859 109.153 139.725 108.93C139.836 108.93 139.937 108.818 140.048 108.717C139.836 108.504 139.615 108.393 138.748 108.393C137.56 108.393 136.583 109.041 135.938 109.913C135.394 110.785 135.072 111.657 135.072 112.742C133.451 113.066 131.497 113.502 131.497 113.502C131.497 112.853 131.708 112.083 131.93 111.545C132.363 110.785 132.907 110.126 133.662 109.589L133.984 109.376C133.773 109.264 133.551 109.264 133.229 109.264C132.685 109.264 132.151 109.477 131.607 109.7C130.53 110.248 129.986 111.333 129.986 112.529V114.05C128.687 114.374 127.387 114.81 126.199 115.246C126.551 114.506 126.662 113.634 126.984 112.874ZM141.055 120.062C141.055 120.062 141.488 119.95 141.599 119.849C141.488 119.737 141.387 119.737 141.276 119.636C140.843 119.423 140.521 119.311 140.088 119.311C139.655 119.311 139.222 119.423 138.789 119.524C137.922 119.96 137.379 120.721 137.056 121.704C137.056 121.704 136.079 121.704 135.646 121.815L134.236 121.927C134.236 121.714 134.236 121.491 134.347 121.167C134.458 120.731 134.669 120.183 134.992 119.859C135.535 119.21 136.291 118.774 137.157 118.662H137.368C137.046 118.45 136.724 118.338 136.392 118.45C134.548 118.45 133.038 119.869 132.816 121.714C132.816 121.826 132.705 122.15 132.705 122.15C132.705 122.15 131.95 122.262 131.728 122.363C131.184 122.474 130.54 122.576 129.996 122.799C129.996 122.15 130.207 121.38 130.54 120.842C130.862 120.295 131.295 119.757 131.728 119.321C131.839 119.21 131.94 119.109 132.161 118.997C131.95 118.997 131.839 118.886 131.617 118.886C130.54 118.886 129.563 119.534 129.241 120.518C128.918 121.39 128.807 122.373 128.807 123.245C128.264 123.356 127.075 123.792 126.531 124.005C126.42 123.356 126.42 122.697 126.531 121.937C126.642 121.39 126.964 120.852 127.397 120.416L127.72 120.092C127.72 120.092 127.609 119.98 127.075 120.092C126.209 120.305 125.454 120.964 125.232 121.836C125.02 122.708 125.02 123.691 125.02 124.563C124.698 124.674 123.721 125.11 123.61 125.212C123.61 124.999 123.5 124.776 123.399 124.563C123.187 124.35 122.966 124.127 122.644 124.127C122.432 124.127 122.321 124.127 122.1 124.238C121.989 124.35 121.777 124.451 121.777 124.674C121.667 124.887 121.667 125.11 121.777 125.323C121.888 125.435 121.888 125.536 121.989 125.648C122.1 125.759 122.2 125.972 122.2 125.972C121.878 126.084 121.556 126.185 121.334 126.408C120.901 126.621 120.79 127.168 121.012 127.604C121.123 127.929 121.445 128.04 121.767 128.04C122.311 128.04 122.744 127.827 123.067 127.391C123.067 127.391 123.389 127.939 123.5 128.04C123.61 128.253 123.933 128.365 124.255 128.365C124.366 128.365 124.577 128.365 124.688 128.253C125.01 128.04 125.232 127.706 125.121 127.381C125.121 127.057 125.01 126.732 124.799 126.509L124.688 126.398L125.443 126.073C126.632 125.425 127.82 124.877 129.019 124.441C130.963 123.792 133.028 123.245 135.082 123.022C135.515 122.91 135.948 122.91 136.381 122.91C136.925 122.91 137.459 123.022 137.892 123.235V121.055H138.758C139.433 120.721 140.189 120.285 141.055 120.062ZM138.023 128.121V131.284C137.701 131.284 137.268 131.173 137.046 131.173C134.236 131.284 131.416 132.045 128.928 133.13C127.74 133.677 126.652 134.214 125.574 134.873C126.007 135.086 126.219 135.421 126.441 135.857C126.652 136.506 126.229 137.053 125.363 137.053C124.608 137.053 124.497 136.404 124.174 136.181C124.064 136.181 123.53 136.83 123.308 136.942C123.097 137.053 122.875 137.053 122.764 137.154C122.442 137.154 122.22 137.043 122.009 136.83C121.797 136.617 121.797 136.394 121.797 136.07C121.908 135.745 122.12 135.522 122.341 135.309C122.553 135.198 122.774 135.096 122.986 134.873C122.986 134.661 122.553 134.326 122.442 134.002C122.331 133.566 122.442 133.13 122.764 132.805C123.087 132.592 123.52 132.592 123.842 132.805C124.275 133.018 124.487 133.789 124.487 133.89C124.698 133.778 125.353 133.241 125.786 133.018C125.353 132.146 125.031 131.274 125.141 130.291C125.353 128.872 126.874 127.787 127.518 128.223C126.974 128.872 126.541 129.642 126.541 130.514C126.431 131.163 126.541 131.822 126.864 132.369C126.864 132.369 128.485 131.72 129.029 131.609C128.596 130.626 128.596 129.429 128.918 128.446C129.462 127.462 130.429 126.814 131.517 126.814C130.107 127.797 129.462 129.541 130.006 131.061C130.328 130.95 132.171 130.413 132.383 130.301C132.272 129.216 132.594 128.121 133.249 127.25C133.793 126.489 134.548 126.053 135.525 125.83C135.737 125.83 135.848 125.83 136.069 125.942C136.069 126.053 136.069 126.053 135.958 126.155L135.848 126.266C135.092 126.915 134.438 127.574 133.904 128.446C133.692 128.993 133.471 129.531 133.471 130.078V130.19C133.471 130.19 134.448 129.977 135.203 129.977C135.958 129.977 136.613 129.865 136.613 129.865C136.724 129.541 136.825 129.216 137.046 128.993C137.479 128.557 137.701 128.344 138.023 128.121ZM168.44 141.747C167.795 141.96 167.362 142.295 167.03 142.832C166.486 143.704 166.275 144.687 166.597 144.687H167.352C167.785 144.687 168.108 144.687 168.541 144.799C168.652 144.799 168.652 144.799 168.752 144.687C168.853 144.576 168.863 144.576 168.863 144.474C169.185 143.491 169.729 142.619 170.595 142.082C170.918 141.869 171.351 141.757 171.673 141.646C172.318 141.646 172.862 141.859 173.295 142.295C173.405 142.507 172.65 142.082 171.351 143.379C170.918 143.815 170.595 144.251 170.374 144.799C170.374 144.799 170.374 144.91 170.485 144.91C171.028 145.123 172.106 145.346 172.65 145.559C172.761 145.559 172.862 145.559 172.972 145.448C173.295 145.012 173.617 144.687 174.05 144.363C174.483 144.038 175.027 143.927 175.561 143.927H175.672C176.86 144.038 176.971 144.687 176.971 144.799C176.971 144.91 176.759 144.91 176.538 144.91C175.672 145.123 175.027 145.559 174.483 146.218C174.372 146.33 174.695 146.654 174.695 146.654C175.561 147.201 176.105 148.175 175.883 149.158C175.883 149.371 175.883 149.371 175.772 149.371C175.561 149.259 175.45 149.158 175.339 149.047L173.718 147.739C172.741 147.09 171.774 146.755 170.575 146.542C169.709 146.431 168.843 146.33 167.977 146.33C166.033 146.33 164.19 146.654 162.347 147.201C162.024 147.313 160.836 147.637 159.748 147.962L159.103 148.175L159.537 147.85C159.97 147.414 160.403 146.978 160.836 146.431L161.158 146.106L161.702 145.995L163.867 145.559C164.079 145.448 164.301 145.346 164.301 145.123C164.411 144.251 164.734 143.491 165.277 142.943C165.711 142.183 166.466 141.747 167.332 141.636C168.229 141.311 168.662 141.636 168.44 141.747ZM153.181 157.765C152.859 157.552 152.637 157.117 152.537 156.681C152.537 156.245 152.748 155.809 153.181 155.697C153.614 155.484 154.047 155.586 154.481 155.809C154.914 156.133 155.024 156.458 155.125 157.005H155.236C155.669 156.792 156.314 156.458 156.857 156.245L157.069 156.133C157.069 156.133 157.18 156.133 157.18 155.92C156.968 155.373 156.968 154.835 156.968 154.288C156.968 153.639 157.18 153.092 157.512 152.544C158.268 151.236 159.678 151.348 159.567 151.459C159.023 152.007 158.701 152.767 158.59 153.528C158.479 153.964 158.479 154.4 158.59 154.835C158.59 155.048 158.59 155.271 158.701 155.271C158.811 155.271 159.244 155.058 159.567 154.947C159.889 154.835 160.433 154.734 160.755 154.623C160.967 154.623 160.866 154.511 160.866 154.41C160.866 153.213 161.188 152.017 161.843 151.034C162.387 150.385 163.142 149.949 163.898 149.837C164.22 149.837 164.653 149.949 164.542 150.05C164.331 150.162 164.22 150.263 163.998 150.375C163.565 150.699 163.132 151.135 162.81 151.682C162.488 152.443 162.266 153.203 162.377 154.075C163.021 154.075 163.676 153.964 164.321 153.862C164.431 153.862 164.532 153.751 164.532 153.649C164.744 152.889 165.076 151.47 165.831 150.922C166.265 150.598 166.698 150.375 167.241 150.375C167.564 150.375 168.541 150.699 168.319 150.811C167.675 151.024 167.241 151.459 166.808 152.007C166.486 152.443 166.265 152.879 166.265 153.426C166.154 153.751 166.476 153.751 166.476 153.751C167.02 153.751 167.554 153.862 168.098 153.964C168.208 153.964 168.42 153.751 168.42 153.751C168.631 153.315 168.964 152.99 169.286 152.767C169.608 152.443 170.041 152.22 170.585 152.22C171.562 152.22 172.096 152.98 171.885 152.98C171.018 153.193 170.263 153.741 169.719 154.4C169.719 154.4 169.608 154.511 169.719 154.612C170.585 155.373 171.23 156.356 171.341 157.552C171.341 157.664 171.452 158.1 171.23 158.1C170.585 157.34 169.82 156.681 169.064 156.143C167.987 155.596 166.688 155.271 165.388 155.271C163.878 155.271 162.357 155.484 160.846 155.92C159.224 156.468 157.603 157.117 156.193 157.988C156.404 158.201 156.626 158.424 156.737 158.637C156.948 159.073 156.847 159.621 156.414 159.945C156.203 160.158 155.87 160.158 155.548 160.057C154.793 159.945 154.682 159.185 154.571 158.972C154.46 159.185 154.36 159.408 154.027 159.519C153.594 159.844 152.95 159.844 152.517 159.306C152.517 159.306 152.517 159.195 152.406 159.195C152.083 158.759 152.194 158.211 152.517 157.887C153.181 157.877 153.181 157.765 153.181 157.765ZM155.669 166.586C155.558 166.373 155.457 166.15 155.347 165.825C155.135 165.278 155.024 164.74 155.135 164.193C155.246 163.544 155.891 162.997 156.545 162.885C156.223 163.21 156.001 163.757 156.112 164.304C156.112 164.852 156.324 165.288 156.545 165.724C156.656 165.835 156.656 165.724 156.656 165.724C157.089 165.511 157.411 165.288 157.844 165.176V165.065C157.522 164.081 157.734 163.108 158.167 162.236C158.489 161.587 159.144 161.152 159.899 161.04C160.655 160.928 160.332 161.04 160.443 161.253C159.899 161.577 159.577 162.125 159.255 162.672C159.043 163.22 159.043 163.869 159.144 164.528H159.255C159.688 164.416 160.121 164.315 160.665 164.203C160.665 164.203 160.775 164.203 160.775 164.092C160.987 163.22 161.42 162.459 162.075 161.8C162.619 161.364 163.152 161.152 163.807 161.04C164.673 161.04 164.784 161.253 164.784 161.364C164.895 161.476 164.572 161.364 164.24 161.476C163.807 161.689 163.374 162.023 163.052 162.459C162.729 162.784 162.508 163.22 162.508 163.767V163.879C162.941 163.99 163.485 164.092 163.918 164.203H164.029C164.24 163.656 164.673 163.22 165.006 162.784C165.439 162.459 165.872 162.236 166.416 162.236C166.738 162.236 167.06 162.348 167.282 162.561C167.282 162.561 167.604 162.774 167.493 162.885C166.949 162.997 166.416 163.321 166.083 163.757C165.539 164.406 165.539 164.629 165.439 164.74C165.328 164.852 165.439 164.953 165.549 165.065C166.416 165.612 166.526 166.15 166.627 166.484C166.627 166.809 166.516 167.356 166.194 166.92C165.872 166.484 165.328 166.048 164.683 165.835C163.817 165.511 162.951 165.288 162.085 165.288C161.219 165.288 160.463 165.399 159.708 165.724C158.63 166.048 157.653 166.484 156.787 167.143C156.676 167.255 156.575 167.356 156.354 167.468C156.032 167.681 155.81 167.904 155.598 168.116C155.488 168.228 155.709 168.329 155.709 168.329C156.686 168.765 156.787 169.414 156.465 169.749C156.253 169.962 155.921 170.073 155.598 169.86C154.843 169.313 154.954 168.877 154.622 168.988C154.41 169.1 154.188 169.637 153.977 169.86C153.765 170.185 153.222 170.296 152.899 169.972C152.577 169.647 152.466 169.1 152.688 168.775C152.899 168.563 153.121 168.451 153.332 168.228C153.332 168.228 152.788 167.904 152.577 167.681C152.255 167.356 152.255 166.809 152.577 166.484C153.01 166.16 153.554 166.271 153.876 166.697C154.198 167.133 154.198 167.245 154.309 167.245H154.42C154.803 167.356 155.558 166.809 155.669 166.586C155.669 166.697 155.669 166.697 155.669 166.586ZM160.433 137.824H160.111C160 137.824 159.899 137.712 159.788 137.611C159.678 137.499 159.678 137.398 159.678 137.286C159.678 137.175 159.788 137.175 159.788 137.073C160 136.962 160.111 136.749 160.221 136.637C160.332 136.425 160.332 136.313 160.332 136.09H160.221C160.111 136.202 160.01 136.414 159.899 136.414C159.788 136.526 159.577 136.526 159.466 136.526C159.355 136.526 159.255 136.414 159.144 136.414C159.033 136.303 159.033 136.202 159.033 136.09C159.033 135.978 159.144 135.978 159.244 135.877C159.456 135.877 159.678 135.766 159.788 135.664C159.899 135.563 160 135.451 160 135.34V134.904C159.889 134.904 159.788 135.015 159.678 135.015C159.466 135.127 159.355 135.015 159.134 135.015C158.922 134.904 158.811 134.691 158.701 134.579V134.468C158.912 134.468 159.023 134.255 159.134 134.032C159.134 134.032 159.134 133.92 159.244 133.92C159.244 133.809 159.355 133.809 159.355 133.809V133.373C159.355 133.261 159.244 133.16 159.244 133.049H159.134C159.023 133.16 159.134 133.373 159.023 133.484L158.701 133.809C158.59 133.809 158.59 133.92 158.489 133.92C158.378 133.809 158.278 133.708 158.278 133.596C158.278 133.383 158.278 133.272 158.388 133.16C158.499 132.836 158.711 132.613 158.932 132.288C159.043 132.075 159.255 131.964 159.365 131.741C159.476 131.629 159.577 131.305 159.365 131.193C159.154 131.082 159.154 131.406 159.043 131.518C158.61 131.731 158.177 131.954 157.855 132.167C157.643 132.379 157.532 132.714 157.532 132.927C157.421 133.038 157.532 133.363 157.421 133.474C157.421 133.586 157.311 133.586 157.21 133.586C157.099 133.474 156.998 133.261 156.888 133.038V132.602C156.888 132.602 156.888 132.491 156.777 132.491C156.565 132.602 156.455 132.704 156.455 132.927C156.344 133.14 156.455 133.474 156.565 133.687L157.21 134.671C157.421 134.995 157.643 135.319 157.754 135.654C157.965 135.867 157.965 136.202 157.965 136.526C157.855 136.85 157.754 137.073 157.532 137.286H157.421C157.21 137.073 156.988 136.85 156.666 136.637C156.344 136.425 156.021 136.313 155.588 136.202C155.155 136.202 154.722 136.09 154.178 136.202C153.745 136.202 153.201 136.313 152.768 136.313C152.335 136.313 152.013 136.313 151.58 136.202C151.258 136.09 151.036 135.877 150.935 135.654C150.824 135.33 150.724 135.107 150.824 134.782C150.824 134.569 150.935 134.235 151.036 134.022C151.147 133.809 151.247 133.697 151.469 133.586C151.681 133.474 151.902 133.474 152.224 133.474C152.335 133.474 152.436 133.586 152.547 133.687L152.758 133.9H152.869C152.869 133.576 152.869 133.251 152.758 132.917C152.647 132.704 152.547 132.481 152.325 132.268H152.537C152.748 132.268 153.081 132.379 153.292 132.481L153.614 132.805C153.614 132.369 153.504 132.045 153.292 131.72C153.181 131.508 152.97 131.396 152.859 131.284C152.748 131.284 152.97 131.173 153.07 131.173C153.282 131.173 153.504 131.173 153.715 131.284C153.826 131.284 153.826 131.396 153.927 131.396L154.037 131.508C154.037 131.508 154.148 131.508 154.148 131.396C154.148 131.284 154.037 131.183 154.037 131.072C153.715 130.747 153.393 130.524 153.06 130.2C153.06 130.2 152.95 130.2 152.95 130.088C152.839 129.977 152.738 129.764 152.738 129.652C152.738 129.541 152.627 129.541 152.627 129.439V129.226C152.738 129.014 152.839 129.014 153.06 128.902C153.171 128.902 153.383 128.791 153.604 128.791H153.715V128.679C153.504 128.567 153.282 128.466 153.07 128.466C152.748 128.466 152.426 128.466 152.093 128.578C151.882 128.689 151.66 128.791 151.338 128.791C151.127 128.791 151.016 128.791 150.794 128.679C150.683 128.679 150.583 128.567 150.583 128.355C150.583 128.142 150.583 127.919 150.694 127.807L151.016 127.483C151.127 127.483 151.127 127.371 151.127 127.371H150.915C150.593 127.483 150.371 127.584 150.049 127.696L149.505 128.243L149.394 128.355H149.183L148.538 128.679C148.327 128.791 148.216 128.892 147.994 129.003C147.883 129.003 147.672 129.115 147.561 129.115C147.239 129.115 146.806 129.115 146.695 129.439C146.695 129.551 146.695 129.652 146.806 129.652C146.917 129.652 146.917 129.764 147.017 129.764L147.229 129.875C147.229 129.875 147.34 129.875 147.34 129.987C147.34 130.098 147.229 130.098 147.229 130.098C147.017 130.098 146.906 130.098 146.685 129.987H146.473C146.151 130.311 145.718 130.534 145.396 130.747L145.285 130.859V131.072C145.285 131.183 145.174 131.183 145.174 131.183C145.063 131.183 145.063 131.295 145.063 131.396V131.609C145.063 131.72 145.174 131.822 145.275 131.822H145.386C145.496 131.822 145.597 131.71 145.708 131.71H145.819V131.822C145.819 131.933 145.708 131.933 145.708 132.035C145.708 132.136 145.597 132.146 145.708 132.248C145.819 132.349 146.03 132.359 146.141 132.248C146.252 132.136 146.252 132.136 146.252 132.035C146.252 131.933 146.363 131.923 146.463 131.822C146.675 131.71 146.786 131.71 147.007 131.71C147.118 131.71 147.219 131.71 147.33 131.822C147.33 131.822 147.44 131.822 147.44 131.933C147.44 132.045 147.33 132.146 147.33 132.258C147.33 132.369 147.33 132.471 147.219 132.471C147.108 132.471 147.108 132.684 147.108 132.684C147.108 132.684 147.108 132.795 146.997 132.795C146.886 132.907 146.675 133.008 146.453 133.231C146.242 133.444 145.909 133.778 145.809 134.103C145.698 134.214 145.698 134.316 145.698 134.427C145.587 134.752 145.587 135.076 145.265 134.863C144.942 134.65 144.62 134.539 144.399 134.316L144.076 133.991C143.754 133.555 143.432 133.991 143.21 134.204L142.233 135.512C142.122 135.624 142.122 135.624 142.122 135.725C142.122 135.826 142.012 135.938 141.911 136.049C141.8 136.161 141.8 136.374 141.8 136.485C141.8 136.81 141.689 137.033 141.589 137.246C141.478 137.357 141.377 137.57 141.377 137.682V138.118C141.377 138.229 141.377 138.331 141.589 138.331H141.699L142.344 138.006C142.344 138.006 142.455 138.006 142.455 137.895C142.566 137.783 142.566 137.783 142.455 137.682V137.57C142.455 137.459 142.344 137.459 142.344 137.459V137.347V137.175C142.344 137.063 142.344 137.063 142.455 136.962C142.566 136.85 142.666 136.749 142.777 136.749C142.888 136.637 142.989 136.425 142.888 136.202V136.09V135.978C142.888 135.867 142.888 135.766 142.999 135.766C143.109 135.654 143.109 135.553 143.21 135.441C143.321 135.228 143.422 135.117 143.643 135.117C143.865 135.117 144.076 135.117 144.288 135.33C144.499 135.543 144.61 135.877 144.61 136.202L144.932 136.85C145.043 137.063 145.255 137.063 145.366 136.962H145.476C145.587 136.962 145.587 136.962 145.688 137.073L146.01 137.398C146.121 137.509 146.01 137.611 145.899 137.611H145.466C144.922 137.722 144.389 137.824 143.955 137.824H143.845C143.734 137.824 143.734 137.824 143.734 137.935V138.047C143.734 138.047 143.734 138.158 143.623 138.158V138.483C143.835 139.243 143.835 140.003 143.734 140.774C143.623 140.987 143.734 141.321 143.945 141.534C144.056 141.646 144.056 141.646 144.157 141.646C144.157 141.646 144.268 141.646 144.268 141.757C144.378 141.869 144.378 141.97 144.378 142.082C144.378 142.193 144.489 142.406 144.59 142.518C144.701 142.73 144.912 142.842 145.023 142.954H145.134C145.245 142.954 145.345 142.954 145.345 142.842C145.456 142.629 145.557 142.295 145.456 142.082C145.456 141.97 145.345 141.869 145.245 141.869H145.134H145.023C144.912 141.869 144.912 141.757 144.912 141.656C144.801 141.544 144.801 141.331 144.912 141.22V141.108V140.895C144.912 140.784 144.912 140.784 144.801 140.683C144.691 140.571 144.691 140.47 144.59 140.47C144.489 140.47 144.479 140.47 144.479 140.358V140.216C144.59 139.892 144.59 139.567 144.479 139.131C144.479 139.02 144.479 138.919 144.59 138.807C144.801 138.594 145.235 138.807 145.456 138.919C145.778 139.03 146.101 139.131 146.433 139.131C146.977 139.243 147.511 139.02 148.055 138.695H148.165C148.377 138.807 148.488 138.908 148.599 139.02C149.032 139.344 149.465 139.456 149.898 139.669C150.542 139.78 151.197 139.78 151.842 139.669C152.053 139.669 152.164 139.669 152.275 139.78C152.275 139.78 152.386 139.78 152.386 139.892C152.386 140.105 152.275 140.328 152.275 140.541C152.275 140.652 152.386 140.754 152.386 140.865C152.496 140.977 152.496 141.078 152.496 141.189L152.607 141.301C152.929 141.737 153.04 142.386 152.607 142.933C152.396 143.146 152.063 143.369 151.852 143.582C151.64 143.795 151.308 143.907 150.986 143.907C150.774 143.907 150.552 144.018 150.442 144.119C150.23 144.332 150.009 144.444 149.797 144.555C149.686 144.555 149.586 144.667 149.586 144.768C149.475 144.981 149.374 145.316 149.374 145.64C149.374 145.853 149.485 145.853 149.586 145.853C149.797 145.853 150.019 145.742 150.23 145.64C150.341 145.64 150.442 145.427 150.341 145.316L150.23 145.103V144.991V144.88L150.341 144.768C150.452 144.768 150.452 144.657 150.552 144.657H150.663C150.986 144.768 151.308 144.657 151.419 144.332C151.419 144.332 151.419 144.221 151.529 144.221C151.64 144.109 151.64 144.008 151.741 144.008C152.386 143.572 153.04 143.248 153.685 143.024C153.796 143.024 153.796 142.913 153.796 142.913V142.7V141.94C153.796 141.727 153.906 141.504 154.118 141.504C154.229 141.504 154.329 141.615 154.329 141.615C154.541 141.94 154.873 142.163 155.196 142.264C155.306 142.264 155.407 142.376 155.518 142.376C155.729 142.487 155.951 142.7 156.062 143.024C156.062 143.136 156.062 143.349 155.951 143.46L155.306 144.444C155.196 144.657 155.095 144.768 154.873 144.88C154.662 145.093 154.329 145.204 154.118 145.427C153.906 145.539 153.796 145.752 153.685 145.863L153.363 146.847C153.252 147.059 153.473 147.059 153.574 147.059C153.786 146.948 154.118 146.847 154.329 146.735C154.329 146.735 154.44 146.735 154.44 146.624V146.512C154.44 146.401 154.44 146.299 154.329 146.299C154.219 146.188 154.219 146.086 154.329 145.975L154.44 145.863C154.652 145.752 154.763 145.752 154.984 145.752C155.196 145.752 155.417 145.64 155.629 145.427L155.739 145.316C155.951 144.555 156.495 143.896 157.15 143.46C157.26 143.46 157.26 143.349 157.26 143.248V142.923L156.716 142.051C156.606 141.838 156.505 141.615 156.394 141.291C156.394 140.966 156.505 140.743 156.606 140.531C156.606 140.419 156.716 140.419 156.716 140.318C156.827 140.105 157.039 139.993 157.15 139.882C157.26 139.669 157.472 139.557 157.583 139.334C157.693 139.121 157.794 138.787 157.905 138.574C158.016 138.361 157.905 138.138 157.905 137.925C157.905 137.813 157.905 137.813 158.016 137.712L158.338 137.388H158.771C159.093 137.499 159.204 137.601 159.526 137.601H159.96C160.111 138.037 160.322 138.037 160.433 137.824ZM150.694 133.251C150.694 133.464 150.583 133.687 150.371 133.799C150.26 133.799 150.16 133.91 150.049 133.91C149.938 133.91 149.938 133.697 149.938 133.474V133.15V132.815V132.602V132.278V131.629C149.938 131.416 149.827 131.082 149.727 130.869C149.727 130.757 149.616 130.544 149.616 130.433C149.616 130.321 149.505 130.321 149.505 130.22C149.505 130.108 149.394 130.108 149.394 130.108C149.283 129.997 149.183 129.997 149.183 129.896V129.784C149.505 129.673 149.827 129.673 150.049 129.896C150.482 130.22 150.694 130.656 150.694 131.203C150.794 131.943 150.794 132.592 150.694 133.251ZM121.244 147.09H140.944C139.101 145.133 138.134 142.518 138.023 139.79V139.466H120.055C120.166 142.072 120.599 144.576 121.244 147.09ZM149.717 156.67H125.252C125.897 157.867 126.551 159.063 127.307 160.158C128.284 161.577 129.251 162.987 130.449 164.294H149.717V156.67ZM181.322 122.464H163.243V129.216H181.221C181.221 127.037 181.322 124.745 181.322 122.464ZM181.543 111.13C178.3 109.822 174.936 108.737 171.582 107.865C166.929 106.781 162.165 105.909 157.401 105.574C155.125 105.361 153.07 105.25 150.794 105.25V112.772H181.433C181.543 112.215 181.543 111.667 181.543 111.13ZM162.165 122.241H139.111V139.567C139.111 142.73 140.521 145.671 142.898 147.627C145.063 149.483 147.873 150.567 150.694 150.679C152.859 150.679 154.914 150.03 156.757 148.935C159.033 147.627 160.866 145.448 161.732 142.943C162.055 142.072 162.165 141.2 162.276 140.328L162.165 122.241ZM161.621 140.115C161.621 140.987 161.41 141.859 161.188 142.73C160.322 145.123 158.59 147.201 156.424 148.509C154.692 149.594 152.748 150.141 150.683 150.141C147.974 150.141 145.275 149.057 143.21 147.313C140.934 145.356 139.635 142.518 139.534 139.578V122.9H161.621V140.115ZM155.024 150.679C154.269 151.003 153.403 151.226 152.647 151.328C152.647 151.439 152.647 151.439 152.758 151.541C152.869 151.753 152.97 151.865 153.191 151.865C153.403 151.865 153.624 151.753 153.836 151.318C153.836 151.318 153.947 151.206 154.047 151.318C154.259 151.642 154.692 151.966 155.024 151.753C155.236 151.642 155.347 151.206 155.236 150.993L155.024 150.679ZM196.268 100.992H198.001C198.545 100.992 199.078 101.103 199.512 101.316C199.945 101.64 200.156 102.076 200.055 102.624C200.055 102.837 200.055 103.06 199.945 103.273C199.834 103.486 199.733 103.597 199.622 103.709C199.411 103.82 199.189 104.033 198.978 104.033C198.545 104.145 198.222 104.145 197.789 104.145H196.279L196.268 100.992ZM195.07 99.9069V109.386H196.258V105.138H198.102L199.945 109.386H201.244L199.3 104.915C199.945 104.804 200.489 104.479 200.811 104.043C201.133 103.607 201.355 103.06 201.355 102.523C201.355 102.198 201.355 101.874 201.244 101.651C201.133 101.326 201.032 101.002 200.811 100.779C200.599 100.454 200.267 100.231 199.834 100.13C199.29 99.917 198.756 99.917 198.212 99.917L195.07 99.9069ZM195.614 110.471C194.103 109.822 192.804 108.616 192.26 107.095C191.615 105.463 191.615 103.607 192.26 101.975C192.904 100.454 194.103 99.1465 195.614 98.599C198.857 97.1797 202.543 98.599 204.054 101.864V101.975C204.699 103.607 204.699 105.463 204.054 107.095C203.409 108.616 202.211 109.923 200.7 110.471C198.968 111.13 197.235 111.13 195.614 110.471ZM201.032 111.566C201.899 111.13 202.765 110.582 203.409 109.934C204.054 109.285 204.598 108.413 205.031 107.541C205.786 105.686 205.786 103.506 205.031 101.661C204.598 100.789 204.054 99.917 203.409 99.2682C202.765 98.6193 201.899 98.0719 201.032 97.6359C199.189 96.8756 197.024 96.8756 195.08 97.6359C194.214 98.0719 193.348 98.6193 192.703 99.2682C192.058 99.917 191.515 100.789 191.081 101.661C190.326 103.516 190.326 105.696 191.081 107.541C191.515 108.413 192.058 109.285 192.703 109.934C193.348 110.582 194.214 111.13 195.08 111.566C197.024 112.326 199.189 112.326 201.032 111.566Z" fill="black"/>
</g>
<defs>
<linearGradient id="paint0_linear" x1="118.126" y1="136.9" x2="182.952" y2="136.9" gradientUnits="userSpaceOnUse">
<stop stop-color="#E1BE78"/>
<stop offset="1" stop-color="#E3AB36"/>
</linearGradient>
<linearGradient id="paint1_linear" x1="113.287" y1="109.642" x2="181.705" y2="148.885" gradientUnits="userSpaceOnUse">
<stop stop-color="#E1BE78"/>
<stop offset="0.34" stop-color="#FFFAD1"/>
<stop offset="0.75" stop-color="#C69632"/>
<stop offset="0.995" stop-color="#FCDC99"/>
</linearGradient>
<linearGradient id="paint2_linear" x1="120.49" y1="103.066" x2="180.245" y2="103.066" gradientUnits="userSpaceOnUse">
<stop stop-color="#FFE3A8"/>
<stop offset="1" stop-color="#D2A249"/>
</linearGradient>
<clipPath id="clip0">
<rect width="223" height="113" fill="white" transform="translate(38 95)"/>
</clipPath>
</defs>
</svg>
